<?xml version="1.0" encoding="UTF-8"?>
<svg xmlns="http://www.w3.org/2000/svg"
     xmlns:xlink="http://www.w3.org/1999/xlink"
     xmlns:gadfly="http://www.gadflyjl.org/ns"
     version="1.2"
     width="80mm" height="80mm" viewBox="0 0 80 80"
     stroke="none"
     fill="#000000"
     stroke-width="0.3"
     font-size="3.88"
>
<g class="plotroot xscalable yscalable" id="img-b374326d-1">
  <g font-size="3.88" font-family="'PT Sans','Helvetica Neue','Helvetica',sans-serif" fill="#564A55" stroke="#000000" stroke-opacity="0.000" id="img-b374326d-2">
    <text x="46.41" y="68.39" text-anchor="middle" dy="0.6em">x</text>
  </g>
  <g class="guide xlabels" font-size="2.82" font-family="'PT Sans Caption','Helvetica Neue','Helvetica',sans-serif" fill="#6C606B" id="img-b374326d-3">
    <text x="19.83" y="61.72" text-anchor="middle" dy="0.6em">-10</text>
    <text x="33.12" y="61.72" text-anchor="middle" dy="0.6em">-5</text>
    <text x="46.41" y="61.72" text-anchor="middle" dy="0.6em">0</text>
    <text x="59.71" y="61.72" text-anchor="middle" dy="0.6em">5</text>
    <text x="73" y="61.72" text-anchor="middle" dy="0.6em">10</text>
  </g>
<g clip-path="url(#img-b374326d-4)">
  <g id="img-b374326d-5">
    <g pointer-events="visible" opacity="1" fill="#000000" fill-opacity="0.000" stroke="#000000" stroke-opacity="0.000" class="guide background" id="img-b374326d-6">
      <rect x="17.83" y="5" width="57.17" height="55.72"/>
    </g>
    <g class="guide ygridlines xfixed" stroke-dasharray="0.5,0.5" stroke-width="0.2" stroke="#D0D0E0" id="img-b374326d-7">
      <path fill="none" d="M17.83,58.72 L 75 58.72"/>
      <path fill="none" d="M17.83,45.79 L 75 45.79"/>
      <path fill="none" d="M17.83,32.86 L 75 32.86"/>
      <path fill="none" d="M17.83,19.93 L 75 19.93"/>
      <path fill="none" d="M17.83,7 L 75 7"/>
    </g>
    <g class="guide xgridlines yfixed" stroke-dasharray="0.5,0.5" stroke-width="0.2" stroke="#D0D0E0" id="img-b374326d-8">
      <path fill="none" d="M19.83,5 L 19.83 60.72"/>
      <path fill="none" d="M33.12,5 L 33.12 60.72"/>
      <path fill="none" d="M46.41,5 L 46.41 60.72"/>
      <path fill="none" d="M59.71,5 L 59.71 60.72"/>
      <path fill="none" d="M73,5 L 73 60.72"/>
    </g>
    <g class="plotpanel" id="img-b374326d-9">
      <g stroke-width="0.3" fill="#000000" fill-opacity="0.000" class="geometry" stroke-dasharray="none" stroke="#00BFFF" id="img-b374326d-10">
        <path fill="none" d="M19.83,22.29 L 20.04 22.5 20.25 22.66 20.47 22.76 20.68 22.82 20.89 22.84 21.11 22.84 21.32 22.82 21.53 22.8 21.75 22.78 21.96 22.78 22.17 22.8 22.39 22.86 22.6 22.96 22.82 23.11 23.03 23.32 23.24 23.59 23.46 23.92 23.67 24.32 23.88 24.77 24.1 25.29 24.31 25.86 24.52 26.48 24.74 27.15 24.95 27.84 25.16 28.57 25.38 29.3 25.59 30.05 25.81 30.78 26.02 31.5 26.23 32.19 26.45 32.84 26.66 33.45 26.87 34.01 27.09 34.5 27.3 34.93 27.51 35.3 27.73 35.59 27.94 35.82 28.15 35.97 28.37 36.06 28.58 36.09 28.79 36.07 29.01 36 29.22 35.9 29.44 35.77 29.65 35.62 29.86 35.47 30.08 35.32 30.29 35.18 30.5 35.07 30.72 34.99 30.93 34.96 31.14 34.98 31.36 35.05 31.57 35.18 31.78 35.37 32 35.63 32.21 35.95 32.43 36.33 32.64 36.76 32.85 37.25 33.07 37.78 33.28 38.34 33.49 38.93 33.71 39.54 33.92 40.15 34.13 40.75 34.35 41.34 34.56 41.91 34.77 42.44 34.99 42.92 35.2 43.35 35.42 43.72 35.63 44.03 35.84 44.27 36.06 44.44 36.27 44.54 36.48 44.58 36.7 44.54 36.91 44.45 37.12 44.3 37.34 44.11 37.55 43.88 37.76 43.62 37.98 43.34 38.19 43.06 38.4 42.78 38.62 42.51 38.83 42.27 39.05 42.06 39.26 41.89 39.47 41.77 39.69 41.7 39.9 41.69 40.11 41.75 40.33 41.87 40.54 42.05 40.75 42.29 40.97 42.59 41.18 42.94 41.39 43.33 41.61 43.76 41.82 44.22 42.04 44.69 42.25 45.18 42.46 45.65 42.68 46.11 42.89 46.55 43.1 46.95 43.32 47.31 43.53 47.62 43.74 47.87 43.96 48.05 44.17 48.17 44.38 48.22 44.6 48.2 44.81 48.11 45.02 47.95 45.24 47.73 45.45 47.46 45.67 47.14 45.88 46.79 46.09 46.4 46.31 45.99 46.52 45.58 46.73 45.17 46.95 44.77 47.16 44.39 47.37 44.04 47.59 43.74 47.8 43.48 48.01 43.28 48.23 43.13 48.44 43.05 48.66 43.03 48.87 43.08 49.08 43.18 49.3 43.35 49.51 43.56 49.72 43.82 49.94 44.11 50.15 44.44 50.36 44.78 50.58 45.13 50.79 45.48 51 45.81 51.22 46.12 51.43 46.4 51.64 46.63 51.86 46.81 52.07 46.94 52.29 47 52.5 46.99 52.71 46.92 52.93 46.77 53.14 46.56 53.35 46.28 53.57 45.94 53.78 45.55 53.99 45.1 54.21 44.62 54.42 44.1 54.63 43.57 54.85 43.02 55.06 42.48 55.28 41.95 55.49 41.43 55.7 40.95 55.92 40.51 56.13 40.12 56.34 39.78 56.56 39.5 56.77 39.28 56.98 39.13 57.2 39.03 57.41 39 57.62 39.03 57.84 39.1 58.05 39.23 58.26 39.39 58.48 39.58 58.69 39.79 58.91 40.01 59.12 40.22 59.33 40.43 59.55 40.61 59.76 40.76 59.97 40.87 60.19 40.93 60.4 40.93 60.61 40.87 60.83 40.74 61.04 40.54 61.25 40.28 61.47 39.94 61.68 39.54 61.9 39.07 62.11 38.55 62.32 37.98 62.54 37.37 62.75 36.73 62.96 36.07 63.18 35.39 63.39 34.72 63.6 34.05 63.82 33.41 64.03 32.79 64.24 32.22 64.46 31.69 64.67 31.21 64.89 30.79 65.1 30.44 65.31 30.14 65.53 29.91 65.74 29.74 65.95 29.63 66.17 29.57 66.38 29.56 66.59 29.59 66.81 29.65 67.02 29.72 67.23 29.81 67.45 29.9 67.66 29.98 67.87 30.03 68.09 30.05 68.3 30.04 68.52 29.97 68.73 29.85 68.94 29.66 69.16 29.41 69.37 29.09 69.58 28.7 69.8 28.25 70.01 27.72 70.22 27.13 70.44 26.49 70.65 25.79 70.86 25.05 71.08 24.28 71.29 23.49 71.51 22.69 71.72 21.88 71.93 21.08 72.15 20.31 72.36 19.56 72.57 18.85 72.79 18.18 73 17.57"/>
      </g>
      <g class="geometry" id="img-b374326d-11">
        <g class="color_RGBA{Float32}(1.0f0,0.0f0,1.0f0,1.0f0)" stroke="#FFFFFF" stroke-width="0.3" fill="#FF00FF" id="img-b374326d-12">
          <use xlink:href="#img-b374326d-13" x="44.42" y="48.22"/>
        </g>
      </g>
      <g stroke-width="0.3" fill="#000000" fill-opacity="0.000" class="geometry" stroke-dasharray="none" stroke="#00BFFF" id="img-b374326d-14">
        <path fill="none" d="M19.83,22.29 L 20.04 22.5 20.25 22.66 20.47 22.76 20.68 22.82 20.89 22.84 21.11 22.84 21.32 22.82 21.53 22.8 21.75 22.78 21.96 22.78 22.17 22.8 22.39 22.86 22.6 22.96 22.82 23.11 23.03 23.32 23.24 23.59 23.46 23.92 23.67 24.32 23.88 24.77 24.1 25.29 24.31 25.86 24.52 26.48 24.74 27.15 24.95 27.84 25.16 28.57 25.38 29.3 25.59 30.05 25.81 30.78 26.02 31.5 26.23 32.19 26.45 32.84 26.66 33.45 26.87 34.01 27.09 34.5 27.3 34.93 27.51 35.3 27.73 35.59 27.94 35.82 28.15 35.97 28.37 36.06 28.58 36.09 28.79 36.07 29.01 36 29.22 35.9 29.44 35.77 29.65 35.62 29.86 35.47 30.08 35.32 30.29 35.18 30.5 35.07 30.72 34.99 30.93 34.96 31.14 34.98 31.36 35.05 31.57 35.18 31.78 35.37 32 35.63 32.21 35.95 32.43 36.33 32.64 36.76 32.85 37.25 33.07 37.78 33.28 38.34 33.49 38.93 33.71 39.54 33.92 40.15 34.13 40.75 34.35 41.34 34.56 41.91 34.77 42.44 34.99 42.92 35.2 43.35 35.42 43.72 35.63 44.03 35.84 44.27 36.06 44.44 36.27 44.54 36.48 44.58 36.7 44.54 36.91 44.45 37.12 44.3 37.34 44.11 37.55 43.88 37.76 43.62 37.98 43.34 38.19 43.06 38.4 42.78 38.62 42.51 38.83 42.27 39.05 42.06 39.26 41.89 39.47 41.77 39.69 41.7 39.9 41.69 40.11 41.75 40.33 41.87 40.54 42.05 40.75 42.29 40.97 42.59 41.18 42.94 41.39 43.33 41.61 43.76 41.82 44.22 42.04 44.69 42.25 45.18 42.46 45.65 42.68 46.11 42.89 46.55 43.1 46.95 43.32 47.31 43.53 47.62 43.74 47.87 43.96 48.05 44.17 48.17 44.38 48.22 44.6 48.2 44.81 48.11 45.02 47.95 45.24 47.73 45.45 47.46 45.67 47.14 45.88 46.79 46.09 46.4 46.31 45.99 46.52 45.58 46.73 45.17 46.95 44.77 47.16 44.39 47.37 44.04 47.59 43.74 47.8 43.48 48.01 43.28 48.23 43.13 48.44 43.05 48.66 43.03 48.87 43.08 49.08 43.18 49.3 43.35 49.51 43.56 49.72 43.82 49.94 44.11 50.15 44.44 50.36 44.78 50.58 45.13 50.79 45.48 51 45.81 51.22 46.12 51.43 46.4 51.64 46.63 51.86 46.81 52.07 46.94 52.29 47 52.5 46.99 52.71 46.92 52.93 46.77 53.14 46.56 53.35 46.28 53.57 45.94 53.78 45.55 53.99 45.1 54.21 44.62 54.42 44.1 54.63 43.57 54.85 43.02 55.06 42.48 55.28 41.95 55.49 41.43 55.7 40.95 55.92 40.51 56.13 40.12 56.34 39.78 56.56 39.5 56.77 39.28 56.98 39.13 57.2 39.03 57.41 39 57.62 39.03 57.84 39.1 58.05 39.23 58.26 39.39 58.48 39.58 58.69 39.79 58.91 40.01 59.12 40.22 59.33 40.43 59.55 40.61 59.76 40.76 59.97 40.87 60.19 40.93 60.4 40.93 60.61 40.87 60.83 40.74 61.04 40.54 61.25 40.28 61.47 39.94 61.68 39.54 61.9 39.07 62.11 38.55 62.32 37.98 62.54 37.37 62.75 36.73 62.96 36.07 63.18 35.39 63.39 34.72 63.6 34.05 63.82 33.41 64.03 32.79 64.24 32.22 64.46 31.69 64.67 31.21 64.89 30.79 65.1 30.44 65.31 30.14 65.53 29.91 65.74 29.74 65.95 29.63 66.17 29.57 66.38 29.56 66.59 29.59 66.81 29.65 67.02 29.72 67.23 29.81 67.45 29.9 67.66 29.98 67.87 30.03 68.09 30.05 68.3 30.04 68.52 29.97 68.73 29.85 68.94 29.66 69.16 29.41 69.37 29.09 69.58 28.7 69.8 28.25 70.01 27.72 70.22 27.13 70.44 26.49 70.65 25.79 70.86 25.05 71.08 24.28 71.29 23.49 71.51 22.69 71.72 21.88 71.93 21.08 72.15 20.31 72.36 19.56 72.57 18.85 72.79 18.18 73 17.57"/>
      </g>
    </g>
  </g>
</g>
  <g class="guide ylabels" font-size="2.82" font-family="'PT Sans Caption','Helvetica Neue','Helvetica',sans-serif" fill="#6C606B" id="img-b374326d-15">
    <text x="16.83" y="58.72" text-anchor="end" dy="0.35em">-50</text>
    <text x="16.83" y="45.79" text-anchor="end" dy="0.35em">0</text>
    <text x="16.83" y="32.86" text-anchor="end" dy="0.35em">50</text>
    <text x="16.83" y="19.93" text-anchor="end" dy="0.35em">100</text>
    <text x="16.83" y="7" text-anchor="end" dy="0.35em">150</text>
  </g>
  <g font-size="3.88" font-family="'PT Sans','Helvetica Neue','Helvetica',sans-serif" fill="#564A55" stroke="#000000" stroke-opacity="0.000" id="img-b374326d-16">
    <text x="8.81" y="32.86" text-anchor="end" dy="0.35em">y</text>
  </g>
</g>
<defs>
  <clipPath id="img-b374326d-4">
  <path d="M17.83,5 L 75 5 75 60.72 17.83 60.72" />
</clipPath>
  <g id="img-b374326d-13">
    <circle cx="0" cy="0" r="0.9"/>
  </g>
</defs>
</svg>
