<?xml version="1.0" encoding="UTF-8"?>
<svg xmlns="http://www.w3.org/2000/svg"
     xmlns:xlink="http://www.w3.org/1999/xlink"
     xmlns:gadfly="http://www.gadflyjl.org/ns"
     version="1.2"
     width="240mm" height="80mm" viewBox="0 0 240 80"
     stroke="none"
     fill="#000000"
     stroke-width="0.3"
     font-size="3.88"
>
<g class="plotroot xscalable yscalable" id="img-23b2729b-1">
  <g font-size="3.88" font-family="'PT Sans','Helvetica Neue','Helvetica',sans-serif" fill="#564A55" stroke="#000000" stroke-opacity="0.000" id="img-23b2729b-2">
    <text x="114.86" y="68.39" text-anchor="middle" dy="0.6em">x</text>
  </g>
  <g class="guide xlabels" font-size="2.82" font-family="'PT Sans Caption','Helvetica Neue','Helvetica',sans-serif" fill="#6C606B" id="img-23b2729b-3">
    <text x="19.94" y="61.72" text-anchor="middle" dy="0.6em">0</text>
    <text x="67.4" y="61.72" text-anchor="middle" dy="0.6em">1×10³</text>
    <text x="114.86" y="61.72" text-anchor="middle" dy="0.6em">2×10³</text>
    <text x="162.32" y="61.72" text-anchor="middle" dy="0.6em">3×10³</text>
    <text x="209.78" y="61.72" text-anchor="middle" dy="0.6em">4×10³</text>
  </g>
  <g class="guide colorkey" id="img-23b2729b-4">
    <g fill="#4C404B" font-size="2.82" font-family="'PT Sans','Helvetica Neue','Helvetica',sans-serif" id="img-23b2729b-5">
      <text x="215.59" y="32.86" dy="0.35em">Target signal</text>
      <text x="215.59" y="36.48" dy="0.35em">Predicted signal</text>
    </g>
    <g stroke="#000000" stroke-opacity="0.000" id="img-23b2729b-6">
      <rect x="212.78" y="31.95" width="1.81" height="1.81" fill="#00BFFF"/>
      <rect x="212.78" y="35.58" width="1.81" height="1.81" fill="#FA8072"/>
    </g>
    <g fill="#362A35" font-size="3.88" font-family="'PT Sans','Helvetica Neue','Helvetica',sans-serif" stroke="#000000" stroke-opacity="0.000" id="img-23b2729b-7">
      <text x="212.78" y="29.04"></text>
    </g>
  </g>
<g clip-path="url(#img-23b2729b-8)">
  <g id="img-23b2729b-9">
    <g pointer-events="visible" opacity="1" fill="#000000" fill-opacity="0.000" stroke="#000000" stroke-opacity="0.000" class="guide background" id="img-23b2729b-10">
      <rect x="17.94" y="5" width="193.84" height="55.72"/>
    </g>
    <g class="guide ygridlines xfixed" stroke-dasharray="0.5,0.5" stroke-width="0.2" stroke="#D0D0E0" id="img-23b2729b-11">
      <path fill="none" d="M17.94,58.72 L 211.78 58.72"/>
      <path fill="none" d="M17.94,48.37 L 211.78 48.37"/>
      <path fill="none" d="M17.94,38.03 L 211.78 38.03"/>
      <path fill="none" d="M17.94,27.69 L 211.78 27.69"/>
      <path fill="none" d="M17.94,17.34 L 211.78 17.34"/>
      <path fill="none" d="M17.94,7 L 211.78 7"/>
    </g>
    <g class="guide xgridlines yfixed" stroke-dasharray="0.5,0.5" stroke-width="0.2" stroke="#D0D0E0" id="img-23b2729b-12">
      <path fill="none" d="M19.94,5 L 19.94 60.72"/>
      <path fill="none" d="M67.4,5 L 67.4 60.72"/>
      <path fill="none" d="M114.86,5 L 114.86 60.72"/>
      <path fill="none" d="M162.32,5 L 162.32 60.72"/>
      <path fill="none" d="M209.78,5 L 209.78 60.72"/>
    </g>
    <g class="plotpanel" id="img-23b2729b-13">
      <g stroke-width="0.3" fill="#000000" fill-opacity="0.000" class="geometry" stroke-dasharray="none" stroke="#00BFFF" id="img-23b2729b-14">
        <path fill="none" d="M19.99,21.37 L 20.03 25.25 20.08 28.63 20.13 31.92 20.18 34.63 20.22 37.28 20.27 39.55 20.32 41.93 20.37 43.5 20.41 45.17 20.46 46.4 20.51 47.48 20.56 48.51 20.6 49.14 20.65 50.1 20.7 51.08 20.75 51.79 20.79 52.08 20.84 51.4 20.89 49.7 20.94 47.05 20.98 43.82 21.03 40.4 21.08 37.14 21.13 34.25 21.17 31.85 21.22 29.93 21.27 28.45 21.32 27.33 21.36 26.56 21.41 26.02 21.46 25.73 21.51 25.67 21.55 25.81 21.6 26.09 21.65 26.31 21.7 26.24 21.74 25.69 21.79 24.59 21.84 23.05 21.89 21.35 21.93 19.89 21.98 18.96 22.03 18.67 22.07 18.97 22.12 19.7 22.17 20.73 22.22 21.92 22.26 23.17 22.31 24.37 22.36 25.44 22.41 26.33 22.45 27.03 22.5 27.62 22.55 28.27 22.6 29.16 22.64 30.45 22.69 32.18 22.74 34.23 22.79 36.39 22.83 38.48 22.88 40.33 22.93 41.87 22.98 43.02 23.02 43.75 23.07 44.06 23.12 43.95 23.17 43.47 23.21 42.69 23.26 41.69 23.31 40.55 23.36 39.28 23.4 37.86 23.45 36.19 23.5 34.19 23.55 31.89 23.59 29.44 23.64 27.08 23.69 25 23.74 23.26 23.78 21.86 23.83 20.75 23.88 19.83 23.93 19.03 23.97 18.26 24.02 17.47 24.07 16.64 24.12 15.77 24.16 14.87 24.21 14 24.26 13.22 24.31 12.63 24.35 12.42 24.4 12.81 24.45 13.93 24.5 15.77 24.54 18.16 24.59 20.91 24.64 23.83 24.69 26.79 24.73 29.7 24.78 32.52 24.83 35.22 24.88 37.79 24.92 40.23 24.97 42.52 25.02 44.67 25.06 46.65 25.11 48.47 25.16 50.11 25.21 51.54 25.25 52.73 25.3 53.62 25.35 54.14 25.4 54.17 25.44 53.58 25.49 52.24 25.54 50.08 25.59 47.21 25.63 43.87 25.68 40.41 25.73 37.16 25.78 34.34 25.82 32.06 25.87 30.35 25.92 29.18 25.97 28.5 26.01 28.24 26.06 28.31 26.11 28.65 26.16 29.13 26.2 29.65 26.25 30.06 26.3 30.19 26.35 29.9 26.39 29.05 26.44 27.65 26.49 25.81 26.54 23.83 26.58 22.11 26.63 20.93 26.68 20.36 26.73 20.31 26.77 20.58 26.82 21.01 26.87 21.43 26.92 21.74 26.96 21.87 27.01 21.8 27.06 21.58 27.11 21.28 27.15 21.02 27.2 20.98 27.25 21.33 27.3 22.26 27.34 23.84 27.39 25.95 27.44 28.36 27.49 30.8 27.53 33.09 27.58 35.11 27.63 36.82 27.68 38.23 27.72 39.37 27.77 40.33 27.82 41.18 27.87 41.98 27.91 42.77 27.96 43.57 28.01 44.32 28.05 44.97 28.1 45.38 28.15 45.4 28.2 44.83 28.24 43.52 28.29 41.48 28.34 38.89 28.39 36.02 28.43 33.14 28.48 30.44 28.53 28 28.58 25.85 28.62 23.99 28.67 22.41 28.72 21.09 28.77 20.02 28.81 19.17 28.86 18.53 28.91 18.06 28.96 17.67 29 17.28 29.05 16.77 29.1 16.07 29.15 15.18 29.19 14.27 29.24 13.65 29.29 13.63 29.34 14.36 29.38 15.83 29.43 17.93 29.48 20.48 29.53 23.29 29.57 26.23 29.62 29.16 29.67 31.99 29.72 34.65 29.76 37.13 29.81 39.41 29.86 41.51 29.91 43.48 29.95 45.34 30 47.11 30.05 48.76 30.1 50.25 30.14 51.53 30.19 52.53 30.24 53.18 30.29 53.37 30.33 52.97 30.38 51.83 30.43 49.86 30.48 47.14 30.52 43.9 30.57 40.48 30.62 37.21 30.67 34.29 30.71 31.85 30.76 29.93 30.81 28.52 30.86 27.61 30.9 27.12 30.95 27.01 31 27.18 31.04 27.55 31.09 27.99 31.14 28.37 31.19 28.54 31.23 28.32 31.28 27.6 31.33 26.33 31.38 24.62 31.42 22.77 31.47 21.16 31.52 20.1 31.57 19.7 31.61 19.89 31.66 20.49 31.71 21.29 31.76 22.14 31.8 22.91 31.85 23.49 31.9 23.87 31.95 24.05 31.99 24.1 32.04 24.14 32.09 24.35 32.14 24.91 32.18 25.98 32.23 27.63 32.28 29.73 32.33 32.03 32.37 34.32 32.42 36.39 32.47 38.13 32.52 39.5 32.56 40.48 32.61 41.12 32.66 41.47 32.71 41.62 32.75 41.67 32.8 41.68 32.85 41.67 32.9 41.63 32.94 41.47 32.99 41.05 33.04 40.18 33.09 38.71 33.13 36.64 33.18 34.13 33.23 31.48 33.28 28.93 33.32 26.64 33.37 24.63 33.42 22.9 33.47 21.4 33.51 20.08 33.56 18.9 33.61 17.85 33.66 16.91 33.7 16.06 33.75 15.29 33.8 14.56 33.85 13.86 33.89 13.13 33.94 12.43 33.99 11.91 34.03 11.82 34.08 12.4 34.13 13.73 34.18 15.73 34.22 18.25 34.27 21.11 34.32 24.18 34.37 27.32 34.41 30.44 34.46 33.46 34.51 36.34 34.56 39.03 34.6 41.53 34.65 43.82 34.7 45.93 34.75 47.85 34.79 49.59 34.84 51.15 34.89 52.5 34.94 53.6 34.98 54.41 35.03 54.84 35.08 54.78 35.13 54.07 35.17 52.57 35.22 50.21 35.27 47.13 35.32 43.65 35.36 40.17 35.41 37.01 35.46 34.37 35.51 32.31 35.55 30.82 35.6 29.85 35.65 29.35 35.7 29.25 35.74 29.46 35.79 29.89 35.84 30.45 35.89 31.01 35.93 31.43 35.98 31.54 36.03 31.17 36.08 30.22 36.12 28.67 36.17 26.7 36.22 24.63 36.27 22.83 36.31 21.55 36.36 20.82 36.41 20.54 36.46 20.53 36.5 20.62 36.55 20.7 36.6 20.65 36.65 20.44 36.69 20.07 36.74 19.59 36.79 19.07 36.84 18.62 36.88 18.41 36.93 18.61 36.98 19.43 37.02 20.94 37.07 23.05 37.12 25.51 37.17 28.06 37.21 30.53 37.26 32.78 37.31 34.79 37.36 36.57 37.4 38.15 37.45 39.59 37.5 40.95 37.55 42.28 37.59 43.58 37.64 44.85 37.69 46.05 37.74 47.12 37.78 47.98 37.83 48.5 37.88 48.52 37.93 47.87 37.97 46.46 38.02 44.3 38.07 41.59 38.12 38.58 38.16 35.53 38.21 32.63 38.26 30 38.31 27.69 38.35 25.74 38.4 24.17 38.45 22.95 38.5 22.08 38.54 21.51 38.59 21.2 38.64 21.07 38.69 21.01 38.73 20.9 38.78 20.6 38.83 19.98 38.88 19.02 38.92 17.82 38.97 16.65 39.02 15.86 39.07 15.75 39.11 16.42 39.16 17.81 39.21 19.74 39.26 22.02 39.3 24.47 39.35 26.93 39.4 29.3 39.45 31.5 39.49 33.51 39.54 35.33 39.59 37.01 39.64 38.63 39.68 40.28 39.73 42 39.78 43.77 39.82 45.5 39.87 47.11 39.92 48.5 39.97 49.56 40.01 50.21 40.06 50.34 40.11 49.84 40.16 48.63 40.2 46.72 40.25 44.2 40.3 41.29 40.35 38.19 40.39 35.13 40.44 32.26 40.49 29.69 40.54 27.49 40.58 25.74 40.63 24.44 40.68 23.58 40.73 23.12 40.77 22.97 40.82 23.03 40.87 23.18 40.92 23.28 40.96 23.19 41.01 22.77 41.06 21.95 41.11 20.76 41.15 19.35 41.2 18.04 41.25 17.17 41.3 17.03 41.34 17.67 41.39 19 41.44 20.79 41.49 22.82 41.53 24.92 41.58 26.93 41.63 28.77 41.68 30.39 41.72 31.8 41.77 33.07 41.82 34.28 41.87 35.58 41.91 37.04 41.96 38.72 42.01 40.56 42.06 42.43 42.1 44.19 42.15 45.7 42.2 46.86 42.25 47.56 42.29 47.71 42.34 47.25 42.39 46.16 42.44 44.49 42.48 42.36 42.53 39.92 42.58 37.31 42.63 34.63 42.67 31.98 42.72 29.43 42.77 27.07 42.81 25 42.86 23.3 42.91 22.02 42.96 21.15 43 20.62 43.05 20.33 43.1 20.16 43.15 19.98 43.19 19.66 43.24 19.12 43.29 18.31 43.34 17.28 43.38 16.17 43.43 15.22 43.48 14.7 43.53 14.87 43.57 15.82 43.62 17.51 43.67 19.76 43.72 22.35 43.76 25.06 43.81 27.75 43.86 30.3 43.91 32.65 43.95 34.81 44 36.8 44.05 38.68 44.1 40.51 44.14 42.34 44.19 44.15 44.24 45.93 44.29 47.6 44.33 49.1 44.38 50.35 44.43 51.28 44.48 51.77 44.52 51.71 44.57 50.97 44.62 49.46 44.67 47.2 44.71 44.37 44.76 41.19 44.81 37.95 44.86 34.85 44.9 32.06 44.95 29.68 45 27.77 45.05 26.35 45.09 25.39 45.14 24.87 45.19 24.7 45.24 24.81 45.28 25.08 45.33 25.38 45.38 25.57 45.43 25.48 45.47 24.99 45.52 24.02 45.57 22.63 45.62 21.02 45.66 19.54 45.71 18.57 45.76 18.32 45.8 18.81 45.85 19.87 45.9 21.3 45.95 22.88 45.99 24.45 46.04 25.89 46.09 27.13 46.14 28.13 46.18 28.94 46.23 29.64 46.28 30.37 46.33 31.3 46.37 32.56 46.42 34.19 46.47 36.12 46.52 38.17 46.56 40.15 46.61 41.88 46.66 43.24 46.71 44.16 46.75 44.56 46.8 44.44 46.85 43.83 46.9 42.81 46.94 41.46 46.99 39.91 47.04 38.22 47.09 36.43 47.13 34.54 47.18 32.5 47.23 30.31 47.28 28.02 47.32 25.81 47.37 23.84 47.42 22.2 47.47 20.93 47.51 19.96 47.56 19.2 47.61 18.55 47.66 17.9 47.7 17.18 47.75 16.38 47.8 15.49 47.85 14.58 47.89 13.73 47.94 13.06 47.99 12.72 48.04 12.87 48.08 13.68 48.13 15.21 48.18 17.4 48.23 20.05 48.27 22.96 48.32 25.96 48.37 28.91 48.42 31.76 48.46 34.46 48.51 37.02 48.56 39.44 48.61 41.73 48.65 43.89 48.7 45.9 48.75 47.77 48.79 49.45 48.84 50.95 48.89 52.21 48.94 53.21 48.98 53.86 49.03 54.08 49.08 53.7 49.13 52.6 49.17 50.67 49.22 47.97 49.27 44.73 49.32 41.28 49.36 37.95 49.41 34.99 49.46 32.53 49.51 30.64 49.55 29.29 49.6 28.44 49.65 28.04 49.7 28 49.74 28.25 49.79 28.68 49.84 29.19 49.89 29.65 49.93 29.88 49.98 29.72 50.03 29.04 50.08 27.8 50.12 26.07 50.17 24.12 50.22 22.32 50.27 21.01 50.31 20.33 50.36 20.21 50.41 20.48 50.46 20.96 50.5 21.48 50.55 21.92 50.6 22.18 50.65 22.25 50.69 22.13 50.74 21.9 50.79 21.67 50.84 21.6 50.88 21.87 50.93 22.67 50.98 24.1 51.03 26.1 51.07 28.45 51.12 30.88 51.17 33.18 51.22 35.22 51.26 36.94 51.31 38.33 51.36 39.44 51.41 40.32 51.45 41.05 51.5 41.72 51.55 42.37 51.6 43.02 51.64 43.66 51.69 44.21 51.74 44.57 51.78 44.56 51.83 43.99 51.88 42.7 51.93 40.7 51.97 38.14 52.02 35.32 52.07 32.49 52.12 29.85 52.16 27.47 52.21 25.37 52.26 23.55 52.31 21.99 52.35 20.67 52.4 19.57 52.45 18.68 52.5 17.97 52.54 17.41 52.59 16.94 52.64 16.47 52.69 15.92 52.73 15.19 52.78 14.34 52.83 13.54 52.88 13.09 52.92 13.28 52.97 14.23 53.02 15.9 53.07 18.16 53.11 20.83 53.16 23.75 53.21 26.76 53.26 29.76 53.3 32.65 53.35 35.38 53.4 37.92 53.45 40.25 53.49 42.4 53.54 44.4 53.59 46.28 53.64 48.03 53.68 49.64 53.73 51.08 53.78 52.28 53.83 53.2 53.87 53.75 53.92 53.83 53.97 53.29 54.02 51.98 54.06 49.84 54.11 46.95 54.16 43.59 54.21 40.15 54.25 36.92 54.3 34.11 54.35 31.82 54.4 30.07 54.44 28.84 54.49 28.09 54.54 27.76 54.59 27.77 54.63 28.05 54.68 28.49 54.73 28.97 54.77 29.36 54.82 29.5 54.87 29.21 54.92 28.37 54.96 26.98 55.01 25.17 55.06 23.25 55.11 21.61 55.15 20.53 55.2 20.07 55.25 20.15 55.3 20.57 55.34 21.16 55.39 21.76 55.44 22.25 55.49 22.56 55.53 22.66 55.58 22.59 55.63 22.43 55.68 22.3 55.72 22.37 55.77 22.84 55.82 23.88 55.87 25.54 55.91 27.68 55.96 30.06 56.01 32.44 56.06 34.62 56.1 36.51 56.15 38.05 56.2 39.26 56.25 40.17 56.29 40.87 56.34 41.43 56.39 41.92 56.44 42.4 56.48 42.89 56.53 43.34 56.58 43.67 56.63 43.75 56.67 43.38 56.72 42.39 56.77 40.67 56.82 38.33 56.86 35.61 56.91 32.81 56.96 30.14 57.01 27.73 57.05 25.6 57.1 23.74 57.15 22.13 57.2 20.75 57.24 19.57 57.29 18.57 57.34 17.75 57.39 17.07 57.43 16.49 57.48 15.95 57.53 15.38 57.58 14.69 57.62 13.89 57.67 13.12 57.72 12.67 57.76 12.82 57.81 13.71 57.86 15.34 57.91 17.57 57.95 20.23 58 23.16 58.05 26.22 58.1 29.28 58.14 32.25 58.19 35.08 58.24 37.73 58.29 40.17 58.33 42.42 58.38 44.49 58.43 46.42 58.48 48.2 58.52 49.84 58.57 51.29 58.62 52.52 58.67 53.47 58.71 54.07 58.76 54.23 58.81 53.8 58.86 52.62 58.9 50.6 58.95 47.79 59 44.46 59.05 40.98 59.09 37.69 59.14 34.82 59.19 32.47 59.24 30.69 59.28 29.43 59.33 28.66 59.38 28.32 59.43 28.34 59.47 28.62 59.52 29.08 59.57 29.6 59.62 30.05 59.66 30.25 59.71 30.06 59.76 29.33 59.81 28.01 59.85 26.22 59.9 24.23 59.95 22.43 60 21.13 60.04 20.44 60.09 20.28 60.14 20.48 60.19 20.87 60.23 21.28 60.28 21.6 60.33 21.76 60.38 21.72 60.42 21.52 60.47 21.22 60.52 20.93 60.57 20.82 60.61 21.07 60.66 21.88 60.71 23.34 60.75 25.37 60.8 27.75 60.85 30.21 60.9 32.55 60.94 34.65 60.99 36.44 61.04 37.93 61.09 39.15 61.13 40.17 61.18 41.06 61.23 41.89 61.28 42.71 61.32 43.53 61.37 44.32 61.42 45.02 61.47 45.51 61.51 45.65 61.56 45.23 61.61 44.1 61.66 42.22 61.7 39.72 61.75 36.88 61.8 33.98 61.85 31.21 61.89 28.69 61.94 26.46 61.99 24.53 62.04 22.88 62.08 21.5 62.13 20.38 62.18 19.49 62.23 18.83 62.27 18.34 62.32 17.95 62.37 17.59 62.42 17.14 62.46 16.49 62.51 15.63 62.56 14.68 62.61 13.93 62.65 13.69 62.7 14.18 62.75 15.44 62.8 17.35 62.84 19.77 62.89 22.51 62.94 25.4 62.99 28.31 63.03 31.15 63.08 33.84 63.13 36.35 63.18 38.65 63.22 40.78 63.27 42.76 63.32 44.64 63.37 46.43 63.41 48.12 63.46 49.67 63.51 51.02 63.56 52.12 63.6 52.88 63.65 53.22 63.7 53.01 63.74 52.09 63.79 50.38 63.84 47.87 63.89 44.76 63.93 41.37 63.98 38.03 64.03 34.99 64.08 32.4 64.12 30.31 64.17 28.73 64.22 27.66 64.27 27.03 64.31 26.8 64.36 26.88 64.41 27.19 64.46 27.61 64.5 28.01 64.55 28.24 64.6 28.15 64.65 27.57 64.69 26.46 64.74 24.87 64.79 23.04 64.84 21.35 64.88 20.15 64.93 19.62 64.98 19.71 65.03 20.27 65.07 21.1 65.12 22.03 65.17 22.9 65.22 23.61 65.26 24.12 65.31 24.42 65.36 24.56 65.41 24.65 65.45 24.85 65.5 25.34 65.55 26.31 65.6 27.83 65.64 29.82 65.69 32.08 65.74 34.36 65.79 36.46 65.83 38.25 65.88 39.67 65.93 40.68 65.98 41.31 66.02 41.63 66.07 41.71 66.12 41.64 66.17 41.51 66.21 41.35 66.26 41.16 66.31 40.88 66.36 40.38 66.4 39.47 66.45 38.01 66.5 35.97 66.55 33.51 66.59 30.91 66.64 28.41 66.69 26.17 66.73 24.23 66.78 22.56 66.83 21.11 66.88 19.84 66.92 18.69 66.97 17.65 67.02 16.7 67.07 15.83 67.11 15.02 67.16 14.26 67.21 13.53 67.26 12.8 67.3 12.15 67.35 11.72 67.4 11.77 67.45 12.52 67.49 14.02 67.54 16.16 67.59 18.77 67.64 21.7 67.68 24.79 67.73 27.94 67.78 31.04 67.83 34.04 67.87 36.89 67.92 39.56 67.97 42.03 68.02 44.31 68.06 46.39 68.11 48.29 68.16 50 68.21 51.52 68.25 52.82 68.3 53.86 68.35 54.59 68.4 54.94 68.44 54.76 68.49 53.91 68.54 52.23 68.59 49.71 68.63 46.52 68.68 43 68.73 39.56 68.78 36.5 68.82 33.97 68.87 32.03 68.92 30.66 68.97 29.8 69.01 29.4 69.06 29.37 69.11 29.64 69.16 30.12 69.2 30.69 69.25 31.25 69.3 31.62 69.35 31.65 69.39 31.17 69.44 30.1 69.49 28.45 69.54 26.42 69.58 24.36 69.63 22.64 69.68 21.44 69.72 20.79 69.77 20.54 69.82 20.53 69.87 20.6 69.91 20.62 69.96 20.51 70.01 20.24 70.06 19.82 70.1 19.3 70.15 18.76 70.2 18.33 70.25 18.17 70.29 18.45 70.34 19.37 70.39 21 70.44 23.18 70.48 25.68 70.53 28.24 70.58 30.69 70.63 32.93 70.67 34.93 70.72 36.7 70.77 38.29 70.82 39.77 70.86 41.17 70.91 42.54 70.96 43.88 71.01 45.17 71.05 46.39 71.1 47.47 71.15 48.32 71.2 48.8 71.24 48.76 71.29 48.05 71.34 46.56 71.39 44.34 71.43 41.59 71.48 38.56 71.53 35.5 71.58 32.6 71.62 29.97 71.67 27.68 71.72 25.77 71.77 24.23 71.81 23.06 71.86 22.24 71.91 21.73 71.96 21.47 72 21.38 72.05 21.35 72.1 21.26 72.15 20.95 72.19 20.31 72.24 19.32 72.29 18.08 72.34 16.89 72.38 16.08 72.43 15.95 72.48 16.61 72.53 17.98 72.57 19.89 72.62 22.12 72.67 24.52 72.71 26.91 72.76 29.21 72.81 31.33 72.86 33.26 72.9 35 72.95 36.62 73 38.19 73.05 39.81 73.09 41.52 73.14 43.29 73.19 45.05 73.24 46.68 73.28 48.08 73.33 49.16 73.38 49.82 73.43 49.96 73.47 49.47 73.52 48.28 73.57 46.4 73.62 43.95 73.66 41.09 73.71 38.06 73.76 35.04 73.81 32.17 73.85 29.58 73.9 27.35 73.95 25.54 74 24.18 74.04 23.26 74.09 22.74 74.14 22.53 74.19 22.55 74.23 22.66 74.28 22.72 74.33 22.6 74.38 22.17 74.42 21.36 74.47 20.19 74.52 18.83 74.57 17.57 74.61 16.77 74.66 16.69 74.71 17.41 74.76 18.82 74.8 20.71 74.85 22.86 74.9 25.07 74.95 27.21 74.99 29.17 75.04 30.92 75.09 32.47 75.14 33.86 75.18 35.19 75.23 36.58 75.28 38.11 75.33 39.81 75.37 41.63 75.42 43.46 75.47 45.17 75.52 46.62 75.56 47.72 75.61 48.35 75.66 48.44 75.7 47.88 75.75 46.67 75.8 44.86 75.85 42.56 75.89 39.94 75.94 37.17 75.99 34.36 76.04 31.63 76.08 29.07 76.13 26.77 76.18 24.81 76.23 23.27 76.27 22.16 76.32 21.45 76.37 21.07 76.42 20.9 76.46 20.84 76.51 20.74 76.56 20.47 76.61 19.93 76.65 19.09 76.7 17.99 76.75 16.8 76.8 15.8 76.84 15.29 76.89 15.51 76.94 16.53 76.99 18.25 77.03 20.48 77.08 22.99 77.13 25.58 77.18 28.11 77.22 30.48 77.27 32.64 77.32 34.6 77.37 36.4 77.41 38.11 77.46 39.82 77.51 41.56 77.56 43.34 77.6 45.12 77.65 46.81 77.7 48.32 77.75 49.58 77.79 50.47 77.84 50.91 77.89 50.76 77.94 49.92 77.98 48.34 78.03 46.06 78.08 43.27 78.13 40.18 78.17 37.03 78.22 34.01 78.27 31.26 78.32 28.87 78.36 26.92 78.41 25.44 78.46 24.41 78.51 23.82 78.55 23.58 78.6 23.61 78.65 23.8 78.69 24.01 78.74 24.09 78.79 23.9 78.84 23.32 78.88 22.31 78.93 20.94 78.98 19.45 79.03 18.2 79.07 17.53 79.12 17.63 79.17 18.48 79.22 19.9 79.26 21.68 79.31 23.6 79.36 25.51 79.41 27.27 79.45 28.83 79.5 30.16 79.55 31.3 79.6 32.34 79.64 33.41 79.69 34.63 79.74 36.12 79.79 37.86 79.83 39.76 79.88 41.68 79.93 43.43 79.98 44.9 80.02 45.97 80.07 46.55 80.12 46.56 80.17 45.98 80.21 44.83 80.26 43.19 80.31 41.18 80.36 38.93 80.4 36.54 80.45 34.09 80.5 31.63 80.55 29.19 80.59 26.87 80.64 24.77 80.69 23.02 80.74 21.66 80.78 20.69 80.83 20.04 80.88 19.62 80.93 19.3 80.97 18.96 81.02 18.5 81.07 17.84 81.12 16.98 81.16 15.98 81.21 14.99 81.26 14.21 81.31 13.88 81.35 14.21 81.4 15.3 81.45 17.1 81.5 19.47 81.54 22.19 81.59 25.04 81.64 27.88 81.68 30.59 81.73 33.12 81.78 35.47 81.83 37.66 81.87 39.72 81.92 41.71 81.97 43.64 82.02 45.51 82.06 47.28 82.11 48.9 82.16 50.33 82.21 51.51 82.25 52.37 82.3 52.81 82.35 52.71 82.4 51.91 82.44 50.32 82.49 47.96 82.54 44.99 82.59 41.69 82.63 38.37 82.68 35.25 82.73 32.52 82.78 30.26 82.82 28.52 82.87 27.28 82.92 26.51 82.97 26.16 83.01 26.15 83.06 26.39 83.11 26.77 83.16 27.16 83.2 27.42 83.25 27.37 83.3 26.87 83.35 25.86 83.39 24.37 83.44 22.62 83.49 20.96 83.54 19.77 83.58 19.26 83.63 19.43 83.68 20.12 83.73 21.14 83.77 22.28 83.82 23.39 83.87 24.35 83.92 25.11 83.96 25.63 84.01 25.98 84.06 26.24 84.11 26.57 84.15 27.16 84.2 28.16 84.25 29.67 84.3 31.61 84.34 33.8 84.39 36 84.44 38 84.49 39.69 84.53 40.96 84.58 41.8 84.63 42.21 84.67 42.24 84.72 41.97 84.77 41.5 84.82 40.92 84.86 40.28 84.91 39.59 84.96 38.81 85.01 37.82 85.05 36.46 85.1 34.65 85.15 32.41 85.2 29.97 85.24 27.57 85.29 25.41 85.34 23.56 85.39 22 85.43 20.68 85.48 19.52 85.53 18.46 85.58 17.47 85.62 16.51 85.67 15.6 85.72 14.72 85.77 13.89 85.81 13.11 85.86 12.42 85.91 11.88 85.96 11.65 86 11.96 86.05 12.98 86.1 14.72 86.15 17.07 86.19 19.82 86.24 22.82 86.29 25.92 86.34 29.03 86.38 32.07 86.43 35 86.48 37.78 86.53 40.38 86.57 42.81 86.62 45.03 86.67 47.07 86.72 48.91 86.76 50.56 86.81 52.01 86.86 53.22 86.91 54.16 86.95 54.76 87 54.93 87.05 54.53 87.1 53.39 87.14 51.41 87.19 48.63 87.24 45.28 87.29 41.76 87.33 38.42 87.38 35.53 87.43 33.2 87.48 31.46 87.52 30.28 87.57 29.59 87.62 29.33 87.66 29.42 87.71 29.78 87.76 30.31 87.81 30.89 87.85 31.4 87.9 31.66 87.95 31.53 88 30.84 88.04 29.55 88.09 27.73 88.14 25.65 88.19 23.68 88.23 22.14 88.28 21.15 88.33 20.66 88.38 20.53 88.42 20.57 88.47 20.63 88.52 20.62 88.57 20.45 88.61 20.13 88.66 19.66 88.71 19.13 88.76 18.62 88.8 18.27 88.85 18.24 88.9 18.74 88.95 19.92 88.99 21.77 89.04 24.1 89.09 26.64 89.14 29.17 89.18 31.55 89.23 33.7 89.28 35.6 89.33 37.3 89.37 38.84 89.42 40.27 89.47 41.65 89.52 43.01 89.56 44.33 89.61 45.6 89.66 46.78 89.71 47.78 89.75 48.51 89.8 48.82 89.85 48.55 89.9 47.55 89.94 45.78 89.99 43.34 90.04 40.45 90.09 37.38 90.13 34.37 90.18 31.56 90.23 29.06 90.28 26.91 90.32 25.13 90.37 23.73 90.42 22.69 90.47 21.98 90.51 21.56 90.56 21.37 90.61 21.32 90.65 21.28 90.7 21.12 90.75 20.7 90.8 19.92 90.84 18.82 90.89 17.56 90.94 16.48 90.99 15.91 91.03 16.08 91.08 17.03 91.13 18.63 91.18 20.69 91.22 23.02 91.27 25.44 91.32 27.82 91.37 30.06 91.41 32.13 91.46 33.99 91.51 35.69 91.56 37.28 91.6 38.87 91.65 40.52 91.7 42.26 91.75 44.04 91.79 45.76 91.84 47.31 91.89 48.6 91.94 49.53 91.98 50 92.03 49.91 92.08 49.15 92.13 47.69 92.17 45.57 92.22 42.92 92.27 39.97 92.32 36.91 92.36 33.93 92.41 31.16 92.46 28.7 92.51 26.63 92.55 25 92.6 23.82 92.65 23.07 92.7 22.69 92.74 22.59 92.79 22.66 92.84 22.77 92.89 22.79 92.93 22.57 92.98 22 93.03 21.04 93.08 19.77 93.12 18.39 93.17 17.26 93.22 16.7 93.27 16.92 93.31 17.92 93.36 19.52 93.41 21.52 93.46 23.7 93.5 25.88 93.55 27.94 93.6 29.8 93.64 31.45 93.69 32.91 93.74 34.25 93.79 35.57 93.83 36.99 93.88 38.58 93.93 40.34 93.98 42.19 94.02 43.99 94.07 45.62 94.12 46.96 94.17 47.9 94.21 48.34 94.26 48.2 94.31 47.41 94.36 45.97 94.4 43.98 94.45 41.56 94.5 38.89 94.55 36.11 94.59 33.34 94.64 30.67 94.69 28.19 94.74 26 94.78 24.18 94.83 22.78 94.88 21.8 94.93 21.2 94.97 20.9 95.02 20.77 95.07 20.7 95.12 20.54 95.16 20.17 95.21 19.52 95.26 18.57 95.31 17.42 95.35 16.28 95.4 15.44 95.45 15.19 95.5 15.71 95.54 17.01 95.59 18.96 95.64 21.33 95.69 23.91 95.73 26.52 95.78 29.02 95.83 31.34 95.88 33.45 95.92 35.37 95.97 37.16 96.02 38.88 96.07 40.62 96.11 42.38 96.16 44.17 96.21 45.92 96.26 47.55 96.3 48.97 96.35 50.1 96.4 50.84 96.45 51.07 96.49 50.68 96.54 49.56 96.59 47.7 96.63 45.2 96.68 42.25 96.73 39.09 96.78 35.96 96.82 33.02 96.87 30.4 96.92 28.18 96.97 26.42 97.01 25.12 97.06 24.29 97.11 23.85 97.16 23.74 97.2 23.86 97.25 24.09 97.3 24.29 97.35 24.3 97.39 23.98 97.44 23.24 97.49 22.07 97.54 20.61 97.58 19.14 97.63 18.04 97.68 17.61 97.73 17.96 97.77 19 97.82 20.54 97.87 22.34 97.92 24.23 97.96 26.04 98.01 27.68 98.06 29.1 98.11 30.3 98.15 31.33 98.2 32.32 98.25 33.38 98.3 34.66 98.34 36.23 98.39 38.05 98.44 39.99 98.49 41.89 98.53 43.58 98.58 44.95 98.63 45.88 98.68 46.29 98.72 46.14 98.77 45.4 98.82 44.13 98.87 42.42 98.91 40.4 98.96 38.18 99.01 35.86 99.06 33.47 99.1 31.06 99.15 28.67 99.2 26.39 99.25 24.35 99.29 22.66 99.34 21.37 99.39 20.44 99.44 19.82 99.48 19.39 99.53 19.03 99.58 18.62 99.62 18.08 99.67 17.35 99.72 16.44 99.77 15.44 99.81 14.52 99.86 13.86 99.91 13.69 99.96 14.21 100 15.47 100.05 17.43 100.1 19.91 100.15 22.7 100.19 25.59 100.24 28.44 100.29 31.15 100.34 33.69 100.38 36.05 100.43 38.26 100.48 40.36 100.53 42.37 100.57 44.31 100.62 46.17 100.67 47.91 100.72 49.49 100.76 50.86 100.81 51.97 100.86 52.75 100.91 53.08 100.95 52.84 101 51.89 101.05 50.13 101.1 47.61 101.14 44.53 101.19 41.18 101.24 37.86 101.29 34.81 101.33 32.18 101.38 30.05 101.43 28.45 101.48 27.35 101.52 26.71 101.57 26.47 101.62 26.55 101.67 26.85 101.71 27.27 101.76 27.66 101.81 27.89 101.86 27.77 101.9 27.18 101.95 26.05 102 24.47 102.05 22.67 102.09 21.03 102.14 19.9 102.19 19.45 102.24 19.65 102.28 20.33 102.33 21.27 102.38 22.31 102.43 23.28 102.47 24.09 102.52 24.68 102.57 25.06 102.61 25.27 102.66 25.43 102.71 25.7 102.76 26.27 102.8 27.3 102.85 28.87 102.9 30.88 102.95 33.11 102.99 35.34 103.04 37.37 103.09 39.06 103.14 40.36 103.18 41.23 103.23 41.71 103.28 41.85 103.33 41.73 103.37 41.46 103.42 41.11 103.47 40.73 103.52 40.31 103.56 39.79 103.61 39.03 103.66 37.87 103.71 36.18 103.75 34 103.8 31.52 103.85 29.01 103.9 26.69 103.94 24.66 103.99 22.93 104.04 21.44 104.09 20.15 104.13 18.99 104.18 17.92 104.23 16.93 104.28 16 104.32 15.12 104.37 14.31 104.42 13.53 104.47 12.8 104.51 12.14 104.56 11.67 104.61 11.61 104.66 12.18 104.7 13.51 104.75 15.51 104.8 18.04 104.85 20.91 104.89 23.98 104.94 27.12 104.99 30.24 105.04 33.27 105.08 36.17 105.13 38.9 105.18 41.44 105.23 43.79 105.27 45.93 105.32 47.89 105.37 49.65 105.42 51.22 105.46 52.58 105.51 53.69 105.56 54.51 105.6 54.96 105.65 54.92 105.7 54.26 105.75 52.81 105.79 50.5 105.84 47.44 105.89 43.97 105.94 40.47 105.98 37.29 106.03 34.62 106.08 32.53 106.13 31.02 106.17 30.05 106.22 29.55 106.27 29.44 106.32 29.65 106.36 30.09 106.41 30.66 106.46 31.24 106.51 31.68 106.55 31.81 106.6 31.48 106.65 30.56 106.7 29.05 106.74 27.08 106.79 24.99 106.84 23.13 106.89 21.78 106.93 20.97 106.98 20.6 107.03 20.52 107.08 20.55 107.12 20.56 107.17 20.46 107.22 20.21 107.27 19.79 107.31 19.27 107.36 18.71 107.41 18.23 107.46 17.95 107.5 18.08 107.55 18.8 107.6 20.23 107.65 22.28 107.69 24.72 107.74 27.29 107.79 29.8 107.84 32.12 107.88 34.21 107.93 36.07 107.98 37.75 108.03 39.29 108.07 40.75 108.12 42.17 108.17 43.56 108.22 44.91 108.26 46.19 108.31 47.34 108.36 48.29 108.4 48.93 108.45 49.1 108.5 48.63 108.55 47.42 108.59 45.45 108.64 42.85 108.69 39.88 108.74 36.79 108.78 33.8 108.83 31.05 108.88 28.63 108.93 26.57 108.97 24.9 109.02 23.62 109.07 22.7 109.12 22.1 109.16 21.79 109.21 21.68 109.26 21.67 109.31 21.64 109.35 21.45 109.4 20.95 109.45 20.08 109.5 18.9 109.54 17.61 109.59 16.57 109.64 16.11 109.69 16.41 109.73 17.48 109.78 19.15 109.83 21.22 109.88 23.52 109.92 25.87 109.97 28.16 110.02 30.29 110.07 32.23 110.11 33.97 110.16 35.56 110.21 37.09 110.26 38.64 110.3 40.29 110.35 42.04 110.4 43.83 110.45 45.56 110.49 47.09 110.54 48.34 110.59 49.21 110.64 49.6 110.68 49.41 110.73 48.55 110.78 47 110.83 44.83 110.87 42.18 110.92 39.26 110.97 36.27 111.02 33.35 111.06 30.63 111.11 28.2 111.16 26.15 111.21 24.54 111.25 23.37 111.3 22.62 111.35 22.23 111.39 22.11 111.44 22.15 111.49 22.21 111.54 22.16 111.58 21.86 111.63 21.22 111.68 20.22 111.73 18.95 111.77 17.65 111.82 16.66 111.87 16.29 111.92 16.72 111.96 17.91 112.01 19.69 112.06 21.84 112.11 24.14 112.15 26.43 112.2 28.59 112.25 30.56 112.3 32.31 112.34 33.87 112.39 35.33 112.44 36.77 112.49 38.3 112.53 39.96 112.58 41.74 112.63 43.56 112.68 45.29 112.72 46.82 112.77 48.04 112.82 48.85 112.87 49.14 112.91 48.81 112.96 47.81 113.01 46.15 113.06 43.91 113.1 41.28 113.15 38.42 113.2 35.51 113.25 32.67 113.29 30.01 113.34 27.63 113.39 25.6 113.44 24 113.48 22.83 113.53 22.09 113.58 21.69 113.63 21.55 113.67 21.56 113.72 21.56 113.77 21.43 113.82 21.03 113.86 20.31 113.91 19.26 113.96 18.01 114.01 16.82 114.05 16.01 114.1 15.88 114.15 16.54 114.2 17.96 114.24 19.94 114.29 22.26 114.34 24.7 114.38 27.11 114.43 29.38 114.48 31.45 114.53 33.31 114.57 34.98 114.62 36.56 114.67 38.13 114.72 39.76 114.76 41.49 114.81 43.28 114.86 45.05 114.91 46.69 114.95 48.1 115 49.19 115.05 49.84 115.1 49.96 115.14 49.42 115.19 48.17 115.24 46.24 115.29 43.75 115.33 40.89 115.38 37.86 115.43 34.86 115.48 32.02 115.52 29.44 115.57 27.22 115.62 25.41 115.67 24.06 115.71 23.16 115.76 22.65 115.81 22.46 115.86 22.49 115.9 22.6 115.95 22.67 116 22.54 116.05 22.09 116.09 21.25 116.14 20.07 116.19 18.71 116.24 17.47 116.28 16.71 116.33 16.68 116.38 17.45 116.43 18.91 116.47 20.83 116.52 23.01 116.57 25.24 116.62 27.39 116.66 29.36 116.71 31.11 116.76 32.65 116.81 34.04 116.85 35.38 116.9 36.78 116.95 38.32 117 40.03 117.04 41.85 117.09 43.67 117.14 45.36 117.19 46.79 117.23 47.85 117.28 48.45 117.33 48.49 117.37 47.88 117.42 46.61 117.47 44.74 117.52 42.39 117.56 39.74 117.61 36.94 117.66 34.13 117.71 31.4 117.75 28.86 117.8 26.59 117.85 24.67 117.9 23.17 117.94 22.11 117.99 21.44 118.04 21.09 118.09 20.95 118.13 20.9 118.18 20.8 118.23 20.52 118.28 19.96 118.32 19.09 118.37 17.97 118.42 16.78 118.47 15.8 118.51 15.34 118.56 15.62 118.61 16.7 118.66 18.47 118.7 20.73 118.75 23.24 118.8 25.82 118.85 28.32 118.89 30.66 118.94 32.79 118.99 34.71 119.04 36.49 119.08 38.18 119.13 39.88 119.18 41.62 119.23 43.4 119.27 45.17 119.32 46.85 119.37 48.35 119.42 49.58 119.46 50.44 119.51 50.83 119.56 50.63 119.61 49.73 119.65 48.08 119.7 45.76 119.75 42.94 119.8 39.85 119.84 36.71 119.89 33.72 119.94 30.99 119.99 28.64 120.03 26.72 120.08 25.26 120.13 24.26 120.18 23.69 120.22 23.46 120.27 23.5 120.32 23.69 120.36 23.89 120.41 23.95 120.46 23.72 120.51 23.1 120.55 22.05 120.6 20.67 120.65 19.2 120.7 18 120.74 17.42 120.79 17.61 120.84 18.54 120.89 20.03 120.93 21.86 120.98 23.82 121.03 25.75 121.08 27.53 121.12 29.1 121.17 30.44 121.22 31.6 121.27 32.67 121.31 33.77 121.36 35.04 121.41 36.56 121.46 38.33 121.5 40.23 121.55 42.12 121.6 43.84 121.65 45.26 121.69 46.27 121.74 46.77 121.79 46.71 121.84 46.04 121.88 44.8 121.93 43.07 121.98 40.98 122.03 38.66 122.07 36.21 122.12 33.72 122.17 31.22 122.22 28.78 122.26 26.48 122.31 24.45 122.36 22.77 122.41 21.5 122.45 20.61 122.5 20.03 122.55 19.66 122.6 19.38 122.64 19.06 122.69 18.59 122.74 17.91 122.79 17.02 122.83 16 122.88 15.01 122.93 14.26 122.98 14.02 123.02 14.46 123.07 15.67 123.12 17.58 123.17 20.01 123.21 22.75 123.26 25.59 123.31 28.39 123.35 31.04 123.4 33.51 123.45 35.8 123.5 37.93 123.54 39.95 123.59 41.9 123.64 43.8 123.69 45.65 123.73 47.39 123.78 48.99 123.83 50.39 123.88 51.53 123.92 52.33 123.97 52.68 124.02 52.46 124.07 51.53 124.11 49.8 124.16 47.32 124.21 44.28 124.26 40.97 124.3 37.68 124.35 34.63 124.4 31.97 124.45 29.78 124.49 28.11 124.54 26.94 124.59 26.23 124.64 25.92 124.68 25.94 124.73 26.2 124.78 26.58 124.83 26.94 124.87 27.14 124.92 27.02 124.97 26.43 125.02 25.32 125.06 23.78 125.11 22.04 125.16 20.47 125.21 19.43 125.25 19.1 125.3 19.44 125.35 20.28 125.4 21.4 125.44 22.62 125.49 23.78 125.54 24.78 125.59 25.57 125.63 26.13 125.68 26.52 125.73 26.85 125.78 27.28 125.82 27.98 125.87 29.12 125.92 30.74 125.97 32.75 126.01 34.93 126.06 37.07 126.11 38.98 126.16 40.53 126.2 41.66 126.25 42.34 126.3 42.58 126.34 42.44 126.39 42 126.44 41.35 126.49 40.6 126.53 39.78 126.58 38.9 126.63 37.9 126.68 36.66 126.72 35.05 126.77 33.03 126.82 30.7 126.87 28.3 126.91 26.05 126.96 24.08 127.01 22.44 127.06 21.07 127.1 19.9 127.15 18.86 127.2 17.89 127.25 16.95 127.29 16.02 127.34 15.12 127.39 14.26 127.44 13.45 127.48 12.71 127.53 12.12 127.58 11.78 127.63 11.91 127.67 12.69 127.72 14.21 127.77 16.38 127.82 19.03 127.86 21.96 127.91 25.03 127.96 28.12 128.01 31.16 128.05 34.1 128.1 36.9 128.15 39.55 128.2 42.01 128.24 44.3 128.29 46.39 128.34 48.29 128.39 50 128.43 51.51 128.48 52.8 128.53 53.83 128.58 54.54 128.62 54.85 128.67 54.63 128.72 53.72 128.77 51.99 128.81 49.44 128.86 46.23 128.91 42.73 128.96 39.31 129 36.26 129.05 33.75 129.1 31.82 129.15 30.47 129.19 29.63 129.24 29.24 129.29 29.23 129.33 29.51 129.38 29.99 129.43 30.56 129.48 31.1 129.52 31.44 129.57 31.44 129.62 30.92 129.67 29.81 129.71 28.13 129.76 26.11 129.81 24.08 129.86 22.41 129.9 21.29 129.95 20.7 130 20.52 130.05 20.57 130.09 20.68 130.14 20.74 130.19 20.67 130.24 20.42 130.28 20.03 130.33 19.53 130.38 19.03 130.43 18.64 130.47 18.52 130.52 18.88 130.57 19.88 130.62 21.57 130.66 23.8 130.71 26.31 130.76 28.85 130.81 31.25 130.85 33.43 130.9 35.36 130.95 37.06 131 38.57 131.04 39.97 131.09 41.3 131.14 42.6 131.19 43.88 131.23 45.12 131.28 46.28 131.33 47.29 131.38 48.06 131.42 48.44 131.47 48.28 131.52 47.4 131.57 45.75 131.61 43.41 131.66 40.58 131.71 37.54 131.76 34.53 131.8 31.71 131.85 29.17 131.9 26.98 131.95 25.14 131.99 23.67 132.04 22.55 132.09 21.77 132.14 21.27 132.18 21.01 132.23 20.9 132.28 20.83 132.32 20.67 132.37 20.27 132.42 19.54 132.47 18.49 132.51 17.28 132.56 16.21 132.61 15.63 132.66 15.79 132.7 16.74 132.75 18.34 132.8 20.43 132.85 22.81 132.89 25.3 132.94 27.77 132.99 30.12 133.04 32.3 133.08 34.27 133.13 36.07 133.18 37.75 133.23 39.39 133.27 41.08 133.32 42.82 133.37 44.58 133.42 46.28 133.46 47.81 133.51 49.08 133.56 50.01 133.61 50.49 133.65 50.41 133.7 49.67 133.75 48.2 133.8 46.04 133.84 43.34 133.89 40.31 133.94 37.19 133.99 34.17 134.03 31.39 134.08 28.95 134.13 26.92 134.18 25.35 134.22 24.23 134.27 23.54 134.32 23.22 134.37 23.18 134.41 23.3 134.46 23.47 134.51 23.53 134.56 23.35 134.6 22.81 134.65 21.85 134.7 20.54 134.75 19.1 134.79 17.87 134.84 17.2 134.89 17.3 134.94 18.16 134.98 19.63 135.03 21.48 135.08 23.5 135.13 25.52 135.17 27.43 135.22 29.13 135.27 30.62 135.31 31.91 135.36 33.09 135.41 34.26 135.46 35.57 135.5 37.08 135.55 38.82 135.6 40.69 135.65 42.57 135.69 44.28 135.74 45.72 135.79 46.76 135.84 47.31 135.88 47.3 135.93 46.67 135.98 45.44 136.03 43.67 136.07 41.51 136.12 39.08 136.17 36.51 136.22 33.9 136.26 31.32 136.31 28.83 136.36 26.53 136.41 24.51 136.45 22.88 136.5 21.67 136.55 20.84 136.6 20.33 136.64 20.03 136.69 19.83 136.74 19.58 136.79 19.18 136.83 18.55 136.88 17.67 136.93 16.62 136.98 15.56 137.02 14.74 137.07 14.41 137.12 14.79 137.17 15.96 137.21 17.83 137.26 20.21 137.31 22.89 137.36 25.66 137.4 28.38 137.45 30.94 137.5 33.32 137.55 35.5 137.59 37.53 137.64 39.46 137.69 41.34 137.74 43.19 137.78 45.01 137.83 46.77 137.88 48.39 137.93 49.82 137.97 50.98 138.02 51.8 138.07 52.17 138.12 51.95 138.16 51.03 138.21 49.32 138.26 46.88 138.3 43.9 138.35 40.64 138.4 37.39 138.45 34.34 138.49 31.66 138.54 29.42 138.59 27.67 138.64 26.42 138.68 25.63 138.73 25.24 138.78 25.2 138.83 25.39 138.87 25.72 138.92 26.04 138.97 26.21 139.02 26.05 139.06 25.45 139.11 24.36 139.16 22.86 139.21 21.2 139.25 19.74 139.3 18.84 139.35 18.67 139.4 19.19 139.44 20.23 139.49 21.57 139.54 23.01 139.59 24.41 139.63 25.65 139.68 26.67 139.73 27.47 139.78 28.09 139.82 28.63 139.87 29.26 139.92 30.15 139.97 31.42 140.01 33.1 140.06 35.1 140.11 37.2 140.16 39.22 140.2 40.97 140.25 42.35 140.3 43.27 140.35 43.71 140.39 43.65 140.44 43.16 140.49 42.31 140.54 41.2 140.58 39.93 140.63 38.57 140.68 37.11 140.73 35.53 140.77 33.74 140.82 31.69 140.87 29.44 140.92 27.14 140.96 25 141.01 23.17 141.06 21.68 141.11 20.5 141.15 19.54 141.2 18.72 141.25 17.93 141.29 17.13 141.34 16.28 141.39 15.39 141.44 14.49 141.48 13.65 141.53 12.93 141.58 12.43 141.63 12.3 141.67 12.73 141.72 13.85 141.77 15.68 141.82 18.09 141.86 20.88 141.91 23.87 141.96 26.9 142.01 29.88 142.05 32.76 142.1 35.5 142.15 38.11 142.2 40.57 142.24 42.88 142.29 45.03 142.34 47.01 142.39 48.81 142.43 50.42 142.48 51.82 142.53 52.98 142.58 53.86 142.62 54.36 142.67 54.38 142.72 53.78 142.77 52.4 142.81 50.19 142.86 47.26 142.91 43.87 142.96 40.4 143 37.17 143.05 34.39 143.1 32.16 143.15 30.51 143.19 29.4 143.24 28.77 143.29 28.55 143.34 28.67 143.38 29.03 143.43 29.54 143.48 30.07 143.53 30.49 143.57 30.63 143.62 30.32 143.67 29.46 143.72 28.02 143.76 26.14 143.81 24.13 143.86 22.38 143.91 21.16 143.95 20.53 144 20.39 144.05 20.57 144.1 20.89 144.14 21.2 144.19 21.4 144.24 21.42 144.28 21.26 144.33 20.94 144.38 20.57 144.43 20.24 144.47 20.13 144.52 20.42 144.57 21.29 144.62 22.84 144.66 24.95 144.71 27.37 144.76 29.85 144.81 32.2 144.85 34.3 144.9 36.11 144.95 37.64 145 38.93 145.04 40.05 145.09 41.07 145.14 42.05 145.19 43.02 145.23 43.98 145.28 44.91 145.33 45.71 145.38 46.3 145.42 46.51 145.47 46.16 145.52 45.1 145.57 43.26 145.61 40.79 145.66 37.94 145.71 34.99 145.76 32.15 145.8 29.54 145.85 27.22 145.9 25.2 145.95 23.5 145.99 22.09 146.04 20.96 146.09 20.11 146.14 19.49 146.18 19.07 146.23 18.78 146.28 18.5 146.33 18.13 146.37 17.54 146.42 16.7 146.47 15.69 146.52 14.76 146.56 14.24 146.61 14.42 146.66 15.37 146.71 17.03 146.75 19.24 146.8 21.82 146.85 24.6 146.9 27.42 146.94 30.18 146.99 32.8 147.04 35.24 147.09 37.48 147.13 39.54 147.18 41.46 147.23 43.31 147.27 45.1 147.32 46.83 147.37 48.45 147.42 49.91 147.46 51.12 147.51 52.03 147.56 52.53 147.61 52.52 147.65 51.85 147.7 50.41 147.75 48.17 147.8 45.29 147.84 42.02 147.89 38.68 147.94 35.54 147.99 32.76 148.03 30.44 148.08 28.61 148.13 27.28 148.18 26.42 148.22 25.98 148.27 25.89 148.32 26.06 148.37 26.39 148.41 26.76 148.46 27.02 148.51 27.01 148.56 26.58 148.6 25.65 148.65 24.23 148.7 22.52 148.75 20.86 148.79 19.64 148.84 19.08 148.89 19.22 148.94 19.92 148.98 20.97 149.03 22.17 149.08 23.38 149.13 24.45 149.17 25.33 149.22 25.99 149.27 26.45 149.32 26.82 149.36 27.22 149.41 27.84 149.46 28.84 149.51 30.33 149.55 32.24 149.6 34.39 149.65 36.56 149.7 38.55 149.74 40.22 149.79 41.49 149.84 42.32 149.89 42.7 149.93 42.67 149.98 42.3 150.03 41.7 150.08 40.95 150.12 40.12 150.17 39.23 150.22 38.23 150.26 37.04 150.31 35.51 150.36 33.58 150.41 31.31 150.45 28.9 150.5 26.59 150.55 24.55 150.6 22.84 150.64 21.41 150.69 20.22 150.74 19.17 150.79 18.2 150.83 17.27 150.88 16.35 150.93 15.44 150.98 14.57 151.02 13.73 151.07 12.97 151.12 12.32 151.17 11.89 151.21 11.87 151.26 12.47 151.31 13.81 151.36 15.83 151.4 18.36 151.45 21.23 151.5 24.27 151.55 27.35 151.59 30.4 151.64 33.35 151.69 36.17 151.74 38.85 151.78 41.35 151.83 43.67 151.88 45.81 151.93 47.77 151.97 49.53 152.02 51.09 152.07 52.44 152.12 53.54 152.16 54.34 152.21 54.76 152.26 54.69 152.31 53.97 152.35 52.45 152.4 50.1 152.45 47.04 152.5 43.58 152.54 40.1 152.59 36.94 152.64 34.28 152.69 32.2 152.73 30.7 152.78 29.73 152.83 29.23 152.88 29.12 152.92 29.33 152.97 29.76 153.02 30.32 153.07 30.87 153.11 31.28 153.16 31.37 153.21 30.99 153.25 30.03 153.3 28.49 153.35 26.53 153.4 24.47 153.44 22.7 153.49 21.45 153.54 20.76 153.59 20.52 153.63 20.55 153.68 20.69 153.73 20.8 153.78 20.79 153.82 20.61 153.87 20.27 153.92 19.81 153.97 19.31 154.01 18.89 154.06 18.71 154.11 18.95 154.16 19.8 154.2 21.34 154.25 23.47 154.3 25.93 154.35 28.47 154.39 30.91 154.44 33.12 154.49 35.09 154.54 36.8 154.58 38.32 154.63 39.71 154.68 41.01 154.73 42.27 154.77 43.52 154.82 44.74 154.87 45.89 154.92 46.92 154.96 47.73 155.01 48.18 155.06 48.12 155.11 47.37 155.15 45.85 155.2 43.61 155.25 40.85 155.3 37.84 155.34 34.83 155.39 31.98 155.44 29.41 155.49 27.17 155.53 25.27 155.58 23.74 155.63 22.55 155.68 21.69 155.72 21.13 155.77 20.81 155.82 20.65 155.87 20.56 155.91 20.41 155.96 20.04 156.01 19.36 156.06 18.36 156.1 17.17 156.15 16.1 156.2 15.48 156.24 15.58 156.29 16.46 156.34 18.03 156.39 20.11 156.43 22.5 156.48 25.03 156.53 27.56 156.58 29.99 156.62 32.24 156.67 34.29 156.72 36.16 156.77 37.9 156.81 39.58 156.86 41.28 156.91 43.02 156.96 44.78 157 46.47 157.05 48.01 157.1 49.29 157.15 50.24 157.19 50.76 157.24 50.74 157.29 50.05 157.34 48.64 157.38 46.51 157.43 43.81 157.48 40.75 157.53 37.59 157.57 34.54 157.62 31.73 157.67 29.28 157.72 27.25 157.76 25.67 157.81 24.56 157.86 23.88 157.91 23.57 157.95 23.54 158 23.69 158.05 23.89 158.1 24 158.14 23.86 158.19 23.36 158.24 22.43 158.29 21.13 158.33 19.65 158.38 18.33 158.43 17.54 158.48 17.5 158.52 18.23 158.57 19.57 158.62 21.3 158.67 23.22 158.71 25.15 158.76 26.96 158.81 28.57 158.86 29.97 158.9 31.17 158.95 32.25 159 33.32 159.05 34.53 159.09 35.98 159.14 37.68 159.19 39.57 159.23 41.49 159.28 43.28 159.33 44.8 159.38 45.94 159.42 46.61 159.47 46.73 159.52 46.25 159.57 45.19 159.61 43.62 159.66 41.66 159.71 39.42 159.76 37.02 159.8 34.56 159.85 32.07 159.9 29.6 159.95 27.25 159.99 25.11 160.04 23.3 160.09 21.89 160.14 20.87 160.18 20.2 160.23 19.76 160.28 19.45 160.33 19.14 160.37 18.72 160.42 18.11 160.47 17.28 160.52 16.29 160.56 15.27 160.61 14.42 160.66 13.99 160.71 14.18 160.75 15.13 160.8 16.82 160.85 19.1 160.9 21.76 160.94 24.59 160.99 27.42 161.04 30.14 161.09 32.68 161.13 35.03 161.18 37.22 161.23 39.29 161.28 41.27 161.32 43.2 161.37 45.07 161.42 46.86 161.47 48.51 161.51 49.99 161.56 51.22 161.61 52.15 161.66 52.67 161.7 52.66 161.75 51.99 161.8 50.54 161.85 48.3 161.89 45.43 161.94 42.18 161.99 38.84 162.04 35.68 162.08 32.87 162.13 30.52 162.18 28.68 162.22 27.34 162.27 26.48 162.32 26.05 162.37 25.97 162.41 26.16 162.46 26.52 162.51 26.91 162.56 27.19 162.6 27.2 162.65 26.78 162.7 25.85 162.75 24.44 162.79 22.73 162.84 21.04 162.89 19.78 162.94 19.18 162.98 19.29 163.03 19.95 163.08 20.98 163.13 22.16 163.17 23.33 163.22 24.38 163.27 25.22 163.32 25.84 163.36 26.26 163.41 26.57 163.46 26.92 163.51 27.49 163.55 28.45 163.6 29.9 163.65 31.79 163.7 33.95 163.74 36.13 163.79 38.15 163.84 39.86 163.89 41.16 163.93 42.02 163.98 42.43 164.03 42.45 164.08 42.14 164.12 41.6 164.17 40.92 164.22 40.17 164.27 39.37 164.31 38.48 164.36 37.39 164.41 35.98 164.46 34.14 164.5 31.92 164.55 29.5 164.6 27.15 164.65 25.03 164.69 23.23 164.74 21.73 164.79 20.46 164.84 19.36 164.88 18.34 164.93 17.38 164.98 16.44 165.03 15.53 165.07 14.64 165.12 13.81 165.17 13.04 165.21 12.36 165.26 11.87 165.31 11.73 165.36 12.17 165.4 13.32 165.45 15.19 165.5 17.62 165.55 20.44 165.59 23.46 165.64 26.55 165.69 29.63 165.74 32.64 165.78 35.52 165.83 38.25 165.88 40.82 165.93 43.19 165.97 45.38 166.02 47.38 166.07 49.19 166.12 50.8 166.16 52.21 166.21 53.37 166.26 54.25 166.31 54.78 166.35 54.84 166.4 54.3 166.45 53 166.5 50.86 166.54 47.94 166.59 44.54 166.64 41.03 166.69 37.76 166.73 34.97 166.78 32.75 166.83 31.12 166.88 30.03 166.92 29.43 166.97 29.24 167.02 29.38 167.07 29.78 167.11 30.32 167.16 30.89 167.21 31.36 167.26 31.55 167.3 31.31 167.35 30.51 167.4 29.1 167.45 27.21 167.49 25.13 167.54 23.24 167.59 21.82 167.64 20.96 167.68 20.59 167.73 20.53 167.78 20.61 167.83 20.7 167.87 20.68 167.92 20.51 167.97 20.18 168.02 19.71 168.06 19.19 168.11 18.72 168.16 18.43 168.2 18.51 168.25 19.16 168.3 20.5 168.35 22.48 168.39 24.88 168.44 27.43 168.49 29.93 168.54 32.24 168.58 34.31 168.63 36.13 168.68 37.76 168.73 39.23 168.77 40.61 168.82 41.94 168.87 43.25 168.92 44.53 168.96 45.75 169.01 46.87 169.06 47.79 169.11 48.41 169.15 48.57 169.2 48.1 169.25 46.88 169.3 44.89 169.34 42.3 169.39 39.34 169.44 36.28 169.49 33.33 169.53 30.62 169.58 28.23 169.63 26.19 169.68 24.52 169.72 23.21 169.77 22.26 169.82 21.62 169.87 21.25 169.91 21.08 169.96 21.02 170.01 20.94 170.06 20.69 170.1 20.16 170.15 19.28 170.2 18.12 170.25 16.91 170.29 15.99 170.34 15.7 170.39 16.17 170.44 17.4 170.48 19.22 170.53 21.43 170.58 23.85 170.63 26.32 170.67 28.73 170.72 30.98 170.77 33.04 170.82 34.9 170.86 36.61 170.91 38.24 170.96 39.88 171.01 41.58 171.05 43.34 171.1 45.09 171.15 46.74 171.19 48.19 171.24 49.34 171.29 50.1 171.34 50.37 171.38 50.03 171.43 49.01 171.48 47.26 171.53 44.88 171.57 42.04 171.62 38.97 171.67 35.88 171.72 32.95 171.76 30.29 171.81 28 171.86 26.13 171.91 24.72 171.95 23.76 172 23.21 172.05 22.99 172.1 23.01 172.14 23.15 172.19 23.28 172.24 23.25 172.29 22.92 172.33 22.21 172.38 21.1 172.43 19.72 172.48 18.34 172.52 17.33 172.57 16.99 172.62 17.45 172.67 18.62 172.71 20.32 172.76 22.31 172.81 24.4 172.86 26.44 172.9 28.33 172.95 30 173 31.46 173.05 32.74 173.09 33.96 173.14 35.22 173.19 36.63 173.24 38.26 173.28 40.07 173.33 41.94 173.38 43.74 173.43 45.33 173.47 46.59 173.52 47.41 173.57 47.71 173.62 47.4 173.66 46.47 173.71 44.94 173.76 42.92 173.81 40.54 173.85 37.97 173.9 35.3 173.95 32.64 174 30.06 174.04 27.64 174.09 25.49 174.14 23.69 174.18 22.3 174.23 21.33 174.28 20.71 174.33 20.37 174.37 20.18 174.42 20.01 174.47 19.74 174.52 19.26 174.56 18.52 174.61 17.53 174.66 16.42 174.71 15.41 174.75 14.76 174.8 14.74 174.85 15.49 174.9 17.01 174.94 19.14 174.99 21.67 175.04 24.37 175.09 27.08 175.13 29.67 175.18 32.08 175.23 34.3 175.28 36.33 175.32 38.23 175.37 40.08 175.42 41.9 175.47 43.72 175.51 45.51 175.56 47.22 175.61 48.77 175.66 50.09 175.7 51.1 175.75 51.71 175.8 51.81 175.85 51.24 175.89 49.93 175.94 47.85 175.99 45.14 176.04 42.02 176.08 38.77 176.13 35.62 176.18 32.74 176.23 30.25 176.27 28.22 176.32 26.68 176.37 25.61 176.42 24.99 176.46 24.74 176.51 24.79 176.56 25.03 176.61 25.34 176.65 25.58 176.7 25.58 176.75 25.19 176.8 24.34 176.84 23.05 176.89 21.46 176.94 19.91 176.98 18.77 177.03 18.33 177.08 18.64 177.13 19.57 177.17 20.92 177.22 22.47 177.27 24.05 177.32 25.52 177.36 26.8 177.41 27.86 177.46 28.7 177.51 29.4 177.55 30.11 177.6 30.96 177.65 32.12 177.7 33.67 177.74 35.54 177.79 37.58 177.84 39.59 177.89 41.4 177.93 42.87 177.98 43.91 178.03 44.46 178.08 44.48 178.12 44 178.17 43.08 178.22 41.82 178.27 40.33 178.31 38.68 178.36 36.94 178.41 35.1 178.46 33.12 178.5 30.97 178.55 28.7 178.6 26.45 178.65 24.39 178.69 22.65 178.74 21.27 178.79 20.22 178.84 19.4 178.88 18.72 178.93 18.07 178.98 17.37 179.03 16.59 179.07 15.72 179.12 14.81 179.17 13.93 179.22 13.2 179.26 12.75 179.31 12.74 179.36 13.35 179.41 14.67 179.45 16.68 179.5 19.21 179.55 22.07 179.6 25.06 179.64 28.04 179.69 30.93 179.74 33.68 179.79 36.29 179.83 38.75 179.88 41.08 179.93 43.28 179.97 45.35 180.02 47.26 180.07 49 180.12 50.55 180.16 51.89 180.21 52.97 180.26 53.73 180.31 54.09 180.35 53.9 180.4 53.03 180.45 51.35 180.5 48.87 180.54 45.75 180.59 42.33 180.64 38.93 180.69 35.84 180.73 33.22 180.78 31.16 180.83 29.66 180.88 28.67 180.92 28.15 180.97 28.02 181.02 28.19 181.07 28.58 181.11 29.08 181.16 29.57 181.21 29.88 181.26 29.86 181.3 29.35 181.35 28.27 181.4 26.67 181.45 24.74 181.49 22.85 181.54 21.37 181.59 20.49 181.64 20.21 181.68 20.37 181.73 20.8 181.78 21.31 181.83 21.77 181.87 22.08 181.92 22.2 181.97 22.12 182.02 21.91 182.06 21.65 182.11 21.51 182.16 21.64 182.21 22.26 182.25 23.5 182.3 25.34 182.35 27.61 182.4 30.05 182.44 32.41 182.49 34.55 182.54 36.37 182.59 37.88 182.63 39.07 182.68 40.03 182.73 40.82 182.78 41.52 182.82 42.19 182.87 42.86 182.92 43.53 182.96 44.14 183.01 44.59 183.06 44.73 183.11 44.37 183.15 43.34 183.2 41.57 183.25 39.16 183.3 36.39 183.34 33.53 183.39 30.81 183.44 28.32 183.49 26.12 183.53 24.21 183.58 22.55 183.63 21.15 183.68 19.98 183.72 19.02 183.77 18.26 183.82 17.67 183.87 17.19 183.91 16.74 183.96 16.23 184.01 15.58 184.06 14.75 184.1 13.89 184.15 13.26 184.2 13.18 184.25 13.84 184.29 15.25 184.34 17.31 184.39 19.84 184.44 22.68 184.48 25.66 184.53 28.67 184.58 31.6 184.63 34.38 184.67 36.97 184.72 39.37 184.77 41.57 184.82 43.62 184.86 45.53 184.91 47.33 184.96 48.99 185.01 50.5 185.05 51.8 185.1 52.83 185.15 53.53 185.2 53.8 185.24 53.51 185.29 52.5 185.34 50.66 185.39 48.03 185.43 44.81 185.48 41.36 185.53 38.02 185.58 35.05 185.62 32.55 185.67 30.6 185.72 29.17 185.77 28.24 185.81 27.75 185.86 27.64 185.91 27.82 185.95 28.21 186 28.69 186.05 29.12 186.1 29.37 186.14 29.25 186.19 28.62 186.24 27.43 186.29 25.75 186.33 23.83 186.38 22.06 186.43 20.77 186.48 20.11 186.52 20.04 186.57 20.38 186.62 20.96 186.67 21.6 186.71 22.18 186.76 22.59 186.81 22.79 186.86 22.81 186.9 22.7 186.95 22.56 187 22.56 187.05 22.88 187.09 23.72 187.14 25.17 187.19 27.17 187.24 29.49 187.28 31.88 187.33 34.13 187.38 36.11 187.43 37.75 187.47 39.04 187.52 40.02 187.57 40.74 187.62 41.28 187.66 41.74 187.71 42.16 187.76 42.59 187.81 43 187.85 43.33 187.9 43.46 187.95 43.2 188 42.38 188.04 40.86 188.09 38.67 188.14 36.03 188.19 33.25 188.23 30.55 188.28 28.09 188.33 25.91 188.38 24.01 188.42 22.36 188.47 20.94 188.52 19.71 188.57 18.66 188.61 17.78 188.66 17.05 188.71 16.42 188.76 15.85 188.8 15.27 188.85 14.6 188.9 13.83 188.94 13.06 188.99 12.56 189.04 12.61 189.09 13.4 189.13 14.93 189.18 17.08 189.23 19.7 189.28 22.61 189.32 25.66 189.37 28.75 189.42 31.76 189.47 34.64 189.51 37.34 189.56 39.84 189.61 42.15 189.66 44.27 189.7 46.23 189.75 48.04 189.8 49.71 189.85 51.19 189.89 52.45 189.94 53.45 189.99 54.12 190.04 54.36 190.08 54.04 190.13 53.01 190.18 51.13 190.23 48.44 190.27 45.16 190.32 41.67 190.37 38.32 190.42 35.37 190.46 32.94 190.51 31.07 190.56 29.75 190.61 28.92 190.65 28.52 190.7 28.5 190.75 28.76 190.8 29.21 190.84 29.73 190.89 30.21 190.94 30.48 190.99 30.37 191.03 29.74 191.08 28.52 191.13 26.79 191.18 24.79 191.22 22.91 191.27 21.48 191.32 20.63 191.37 20.34 191.41 20.44 191.46 20.75 191.51 21.11 191.56 21.39 191.6 21.52 191.65 21.46 191.7 21.24 191.75 20.9 191.79 20.56 191.84 20.36 191.89 20.49 191.93 21.15 191.98 22.45 192.03 24.38 192.08 26.71 192.12 29.2 192.17 31.6 192.22 33.79 192.27 35.7 192.31 37.31 192.36 38.65 192.41 39.78 192.46 40.79 192.5 41.73 192.55 42.65 192.6 43.57 192.65 44.46 192.69 45.27 192.74 45.91 192.79 46.24 192.84 46.06 192.88 45.21 192.93 43.59 192.98 41.29 193.03 38.52 193.07 35.59 193.12 32.71 193.17 30.05 193.22 27.66 193.26 25.58 193.31 23.8 193.36 22.31 193.41 21.11 193.45 20.17 193.5 19.46 193.55 18.97 193.6 18.62 193.64 18.32 193.69 17.96 193.74 17.43 193.79 16.65 193.83 15.68 193.88 14.73 193.93 14.12 193.98 14.16 194.02 14.97 194.07 16.51 194.12 18.64 194.17 21.18 194.21 23.95 194.26 26.8 194.31 29.62 194.36 32.31 194.4 34.83 194.45 37.15 194.5 39.29 194.55 41.28 194.59 43.16 194.64 44.97 194.69 46.72 194.74 48.36 194.78 49.85 194.83 51.11 194.88 52.08 194.92 52.67 194.97 52.77 195.02 52.25 195.07 50.98 195.11 48.9 195.16 46.12 195.21 42.88 195.26 39.51 195.3 36.3 195.35 33.44 195.4 31.04 195.45 29.13 195.49 27.73 195.54 26.81 195.59 26.31 195.64 26.18 195.68 26.33 195.73 26.66 195.78 27.05 195.83 27.36 195.87 27.43 195.92 27.11 195.97 26.29 196.02 24.95 196.06 23.26 196.11 21.52 196.16 20.13 196.21 19.36 196.25 19.28 196.3 19.79 196.35 20.69 196.4 21.79 196.44 22.91 196.49 23.92 196.54 24.75 196.59 25.36 196.63 25.76 196.68 26.05 196.73 26.35 196.78 26.82 196.82 27.67 196.87 29 196.92 30.81 196.97 32.95 197.01 35.17 197.06 37.27 197.11 39.09 197.16 40.53 197.2 41.55 197.25 42.14 197.3 42.32 197.35 42.18 197.39 41.81 197.44 41.28 197.49 40.68 197.54 40.04 197.58 39.32 197.63 38.43 197.68 37.22 197.73 35.58 197.77 33.48 197.82 31.07 197.87 28.62 197.91 26.34 197.96 24.35 198.01 22.67 198.06 21.26 198.1 20.04 198.15 18.95 198.2 17.94 198.25 16.97 198.29 16.05 198.34 15.16 198.39 14.31 198.44 13.51 198.48 12.76 198.53 12.13 198.58 11.73 198.63 11.76 198.67 12.45 198.72 13.89 198.77 15.98 198.82 18.57 198.86 21.48 198.91 24.54 198.96 27.65 199.01 30.72 199.05 33.69 199.1 36.54 199.15 39.22 199.2 41.72 199.24 44.03 199.29 46.15 199.34 48.08 199.39 49.82 199.43 51.36 199.48 52.68 199.53 53.75 199.58 54.51 199.62 54.89 199.67 54.76 199.72 53.97 199.77 52.37 199.81 49.93 199.86 46.8 199.91 43.31 199.96 39.85 200 36.73 200.05 34.14 200.1 32.14 200.15 30.71 200.19 29.8 200.24 29.36 200.29 29.3 200.34 29.55 200.38 30.01 200.43 30.58 200.48 31.13 200.53 31.53 200.57 31.59 200.62 31.16 200.67 30.14 200.72 28.54 200.76 26.54 200.81 24.47 200.86 22.72 200.9 21.49 200.95 20.8 201 20.55 201.05 20.54 201.09 20.63 201.14 20.67 201.19 20.6 201.24 20.35 201.28 19.95 201.33 19.45 201.38 18.92 201.43 18.49 201.47 18.3 201.52 18.55 201.57 19.43 201.62 21 201.66 23.15 201.71 25.64 201.76 28.19 201.81 30.64 201.85 32.88 201.9 34.88 201.95 36.65 202 38.23 202.04 39.68 202.09 41.06 202.14 42.41 202.19 43.73 202.23 45.01 202.28 46.22 202.33 47.29 202.38 48.14 202.42 48.63 202.47 48.62 202.52 47.92 202.57 46.46 202.61 44.27 202.66 41.53 202.71 38.51 202.76 35.46 202.8 32.56 202.85 29.93 202.9 27.64 202.95 25.72 202.99 24.16 203.04 22.97 203.09 22.13 203.14 21.59 203.18 21.3 203.23 21.19 203.28 21.15 203.33 21.05 203.37 20.74 203.42 20.1 203.47 19.12 203.52 17.9 203.56 16.72 203.61 15.94 203.66 15.84 203.71 16.52 203.75 17.92 203.8 19.85 203.85 22.11 203.89 24.54 203.94 26.97 203.99 29.31 204.04 31.48 204.08 33.45 204.13 35.23 204.18 36.88 204.23 38.49 204.27 40.12 204.32 41.84 204.37 43.61 204.42 45.35 204.46 46.97 204.51 48.35 204.56 49.41 204.61 50.06 204.65 50.18 204.7 49.67 204.75 48.45 204.8 46.54 204.84 44.04 204.89 41.14 204.94 38.07 204.99 35.03 205.03 32.16 205.08 29.59 205.13 27.39 205.18 25.62 205.22 24.3 205.27 23.43 205.32 22.95 205.37 22.78 205.41 22.83 205.46 22.96 205.51 23.05 205.56 22.94 205.6 22.51 205.65 21.68 205.7 20.5 205.75 19.11 205.79 17.82 205.84 16.99 205.89 16.89 205.94 17.59 205.98 18.96 206.03 20.8 206.08 22.89 206.13 25.03 206.17 27.1 206.22 28.98 206.27 30.65 206.32 32.12 206.36 33.43 206.41 34.7 206.46 36.03 206.51 37.53 206.55 39.22 206.6 41.05 206.65 42.91 206.7 44.64 206.74 46.12 206.79 47.24 206.84 47.9 206.88 48.01 206.93 47.49 206.98 46.34 207.03 44.6 207.07 42.39 207.12 39.86 207.17 37.18 207.22 34.44 207.26 31.76 207.31 29.2 207.36 26.87 207.41 24.85 207.45 23.23 207.5 22.03 207.55 21.24 207.6 20.78 207.64 20.54 207.69 20.42 207.74 20.27 207.79 19.98 207.83 19.43 207.88 18.6 207.93 17.54 207.98 16.4 208.02 15.43 208.07 14.94 208.12 15.15 208.17 16.15 208.21 17.88 208.26 20.14 208.31 22.71 208.36 25.38 208.4 28 208.45 30.47 208.5 32.74 208.55 34.81 208.59 36.72 208.64 38.54 208.69 40.31 208.74 42.1 208.78 43.9 208.83 45.67 208.88 47.35 208.93 48.85 208.97 50.09 209.02 50.99 209.07 51.44 209.12 51.32 209.16 50.51 209.21 48.94 209.26 46.65 209.31 43.81 209.35 40.66 209.4 37.45 209.45 34.4 209.5 31.63 209.54 29.27 209.59 27.36 209.64 25.93 209.69 24.96 209.73 24.43 209.78 24.24"/>
      </g>
      <g stroke-width="0.3" fill="#000000" fill-opacity="0.000" class="geometry" stroke-dasharray="none" stroke="#FA8072" id="img-23b2729b-15">
        <path fill="none" d="M114.91,46.69 L 114.95 48.1 115 49.19 115.05 49.84 115.1 49.95 115.14 49.42 115.19 48.17 115.24 46.24 115.29 43.75 115.33 40.89 115.38 37.86 115.43 34.86 115.48 32.02 115.52 29.44 115.57 27.22 115.62 25.42 115.67 24.07 115.71 23.16 115.76 22.65 115.81 22.46 115.86 22.48 115.9 22.6 115.95 22.67 116 22.54 116.05 22.09 116.09 21.26 116.14 20.08 116.19 18.72 116.24 17.48 116.28 16.71 116.33 16.68 116.38 17.45 116.43 18.91 116.47 20.84 116.52 23.01 116.57 25.25 116.62 27.4 116.66 29.37 116.71 31.12 116.76 32.66 116.81 34.06 116.85 35.39 116.9 36.79 116.95 38.32 117 40.03 117.04 41.85 117.09 43.66 117.14 45.35 117.19 46.78 117.23 47.85 117.28 48.45 117.33 48.48 117.37 47.87 117.42 46.6 117.47 44.73 117.52 42.38 117.56 39.73 117.61 36.92 117.66 34.11 117.71 31.38 117.75 28.84 117.8 26.57 117.85 24.66 117.9 23.16 117.94 22.09 117.99 21.42 118.04 21.07 118.09 20.93 118.13 20.88 118.18 20.78 118.23 20.5 118.28 19.94 118.32 19.07 118.37 17.96 118.42 16.77 118.47 15.79 118.51 15.33 118.56 15.62 118.61 16.71 118.66 18.48 118.7 20.74 118.75 23.26 118.8 25.85 118.85 28.36 118.89 30.7 118.94 32.83 118.99 34.76 119.04 36.54 119.08 38.24 119.13 39.93 119.18 41.66 119.23 43.44 119.27 45.21 119.32 46.88 119.37 48.37 119.42 49.6 119.46 50.46 119.51 50.84 119.56 50.64 119.61 49.72 119.65 48.07 119.7 45.74 119.75 42.91 119.8 39.82 119.84 36.68 119.89 33.69 119.94 30.97 119.99 28.62 120.03 26.7 120.08 25.25 120.13 24.26 120.18 23.69 120.22 23.48 120.27 23.52 120.32 23.7 120.36 23.9 120.41 23.96 120.46 23.74 120.51 23.11 120.55 22.07 120.6 20.68 120.65 19.21 120.7 18.02 120.74 17.44 120.79 17.63 120.84 18.57 120.89 20.06 120.93 21.89 120.98 23.85 121.03 25.77 121.08 27.55 121.12 29.11 121.17 30.45 121.22 31.6 121.27 32.66 121.31 33.76 121.36 35.03 121.41 36.54 121.46 38.3 121.5 40.21 121.55 42.1 121.6 43.82 121.65 45.23 121.69 46.24 121.74 46.74 121.79 46.67 121.84 46 121.88 44.75 121.93 43.02 121.98 40.93 122.03 38.61 122.07 36.16 122.12 33.67 122.17 31.18 122.22 28.75 122.26 26.45 122.31 24.42 122.36 22.74 122.41 21.47 122.45 20.58 122.5 20 122.55 19.63 122.6 19.34 122.64 19.02 122.69 18.54 122.74 17.86 122.79 16.97 122.83 15.95 122.88 14.97 122.93 14.24 122.98 14 123.02 14.46 123.07 15.68 123.12 17.6 123.17 20.04 123.21 22.78 123.26 25.63 123.31 28.43 123.35 31.09 123.4 33.57 123.45 35.85 123.5 37.99 123.54 40.01 123.59 41.97 123.64 43.87 123.69 45.72 123.73 47.46 123.78 49.06 123.83 50.45 123.88 51.58 123.92 52.37 123.97 52.71 124.02 52.48 124.07 51.53 124.11 49.79 124.16 47.3 124.21 44.25 124.26 40.94 124.3 37.64 124.35 34.6 124.4 31.95 124.45 29.77 124.49 28.11 124.54 26.96 124.59 26.26 124.64 25.97 124.68 26 124.73 26.26 124.78 26.64 124.83 27 124.87 27.19 124.92 27.06 124.97 26.46 125.02 25.35 125.06 23.8 125.11 22.05 125.16 20.49 125.21 19.45 125.25 19.13 125.3 19.46 125.35 20.29 125.4 21.4 125.44 22.6 125.49 23.75 125.54 24.74 125.59 25.5 125.63 26.05 125.68 26.43 125.73 26.75 125.78 27.17 125.82 27.87 125.87 29.01 125.92 30.64 125.97 32.66 126.01 34.85 126.06 36.99 126.11 38.9 126.16 40.46 126.2 41.59 126.25 42.28 126.3 42.53 126.34 42.41 126.39 41.99 126.44 41.37 126.49 40.65 126.53 39.86 126.58 39.02 126.63 38.05 126.68 36.84 126.72 35.26 126.77 33.24 126.82 30.91 126.87 28.5 126.91 26.23 126.96 24.24 127.01 22.57 127.06 21.18 127.1 19.99 127.15 18.93 127.2 17.95 127.25 17 127.29 16.08 127.34 15.18 127.39 14.31 127.44 13.49 127.48 12.76 127.53 12.14 127.58 11.77 127.63 11.85 127.67 12.58 127.72 14.05 127.77 16.17 127.82 18.79 127.86 21.71 127.91 24.77 127.96 27.87 128.01 30.92 128.05 33.88 128.1 36.7 128.15 39.36 128.2 41.84 128.24 44.14 128.29 46.24 128.34 48.15 128.39 49.88 128.43 51.4 128.48 52.71 128.53 53.77 128.58 54.51 128.62 54.86 128.67 54.69 128.72 53.85 128.77 52.2 128.81 49.7 128.86 46.53 128.91 43.03 128.96 39.58 129 36.49 129.05 33.94 129.1 31.97 129.15 30.57 129.19 29.69 129.24 29.27 129.29 29.23 129.33 29.49 129.38 29.96 129.43 30.54 129.48 31.09 129.52 31.46 129.57 31.5 129.62 31.03 129.67 29.96 129.71 28.33 129.76 26.32 129.81 24.27 129.86 22.55 129.9 21.38 129.95 20.75 130 20.54 130.05 20.56 130.09 20.67 130.14 20.73 130.19 20.66 130.24 20.43 130.28 20.03 130.33 19.53 130.38 19.02 130.43 18.6 130.47 18.45 130.52 18.75 130.57 19.69 130.62 21.32 130.66 23.51 130.71 26.01 130.76 28.55 130.81 30.98 130.85 33.18 130.9 35.14 130.95 36.86 131 38.4 131.04 39.82 131.09 41.16 131.14 42.48 131.19 43.77 131.23 45.03 131.28 46.21 131.33 47.25 131.38 48.06 131.42 48.49 131.47 48.39 131.52 47.61 131.57 46.04 131.61 43.77 131.66 40.98 131.71 37.95 131.76 34.93 131.8 32.07 131.85 29.5 131.9 27.26 131.95 25.38 131.99 23.87 132.04 22.71 132.09 21.9 132.14 21.38 132.18 21.1 132.23 20.98 132.28 20.93 132.32 20.79 132.37 20.42 132.42 19.74 132.47 18.71 132.51 17.5 132.56 16.39 132.61 15.72 132.66 15.77 132.7 16.61 132.75 18.13 132.8 20.16 132.85 22.5 132.89 24.97 132.94 27.43 132.99 29.79 133.04 31.97 133.08 33.95 133.13 35.75 133.18 37.43 133.23 39.06 133.27 40.73 133.32 42.47 133.37 44.23 133.42 45.95 133.46 47.52 133.51 48.84 133.56 49.82 133.61 50.37 133.65 50.38 133.7 49.73 133.75 48.37 133.8 46.31 133.84 43.69 133.89 40.7 133.94 37.59 133.99 34.55 134.03 31.73 134.08 29.23 134.13 27.14 134.18 25.48 134.22 24.29 134.27 23.54 134.32 23.16 134.37 23.07 134.41 23.17 134.46 23.33 134.51 23.42 134.56 23.27 134.6 22.78 134.65 21.87 134.7 20.61 134.75 19.18 134.79 17.91 134.84 17.16 134.89 17.17 134.94 17.95 134.98 19.37 135.03 21.2 135.08 23.24 135.13 25.3 135.17 27.25 135.22 29.01 135.27 30.55 135.31 31.9 135.36 33.11 135.41 34.31 135.46 35.6 135.5 37.1 135.55 38.82 135.6 40.68 135.65 42.55 135.69 44.28 135.74 45.75 135.79 46.84 135.84 47.45 135.88 47.49 135.93 46.93 135.98 45.74 136.03 44.01 136.07 41.85 136.12 39.41 136.17 36.81 136.22 34.17 136.26 31.56 136.31 29.04 136.36 26.72 136.41 24.69 136.45 23.04 136.5 21.81 136.55 20.97 136.6 20.46 136.64 20.17 136.69 19.98 136.74 19.76 136.79 19.4 136.83 18.8 136.88 17.94 136.93 16.9 136.98 15.81 137.02 14.94 137.07 14.54 137.12 14.84 137.17 15.93 137.21 17.73 137.26 20.06 137.31 22.7 137.36 25.45 137.4 28.15 137.45 30.71 137.5 33.07 137.55 35.23 137.59 37.24 137.64 39.14 137.69 41 137.74 42.84 137.78 44.67 137.83 46.43 137.88 48.07 137.93 49.53 137.97 50.73 138.02 51.59 138.07 52 138.12 51.83 138.16 50.97 138.21 49.33 138.26 46.97 138.3 44.04 138.35 40.82 138.4 37.56 138.45 34.5 138.49 31.78 138.54 29.48 138.59 27.67 138.64 26.35 138.68 25.5 138.73 25.07 138.78 24.98 138.83 25.14 138.87 25.44 138.92 25.75 138.97 25.92 139.02 25.78 139.06 25.22 139.11 24.18 139.16 22.72 139.21 21.08 139.25 19.62 139.3 18.7 139.35 18.52 139.4 19.04 139.44 20.1 139.49 21.48 139.54 23 139.59 24.47 139.63 25.8 139.68 26.91 139.73 27.8 139.78 28.5 139.82 29.11 139.87 29.79 139.92 30.71 139.97 31.98 140.01 33.65 140.06 35.63 140.11 37.71 140.16 39.7 140.2 41.44 140.25 42.8 140.3 43.7 140.35 44.11 140.39 44.01 140.44 43.45 140.49 42.51 140.54 41.29 140.58 39.88 140.63 38.36 140.68 36.76 140.73 35.03 140.77 33.12 140.82 30.99 140.87 28.71 140.92 26.45 140.96 24.39 141.01 22.66 141.06 21.28 141.11 20.2 141.15 19.34 141.2 18.6 141.25 17.88 141.29 17.11 141.34 16.28 141.39 15.39 141.44 14.49 141.48 13.64 141.53 12.95 141.58 12.52 141.63 12.53 141.67 13.15 141.72 14.49 141.77 16.51 141.82 19.06 141.86 21.92 141.91 24.92 141.96 27.92 142.01 30.85 142.05 33.64 142.1 36.3 142.15 38.82 142.2 41.19 142.24 43.43 142.29 45.51 142.34 47.43 142.39 49.17 142.43 50.72 142.48 52.06 142.53 53.14 142.58 53.9 142.62 54.27 142.67 54.11 142.72 53.26 142.77 51.61 142.81 49.14 142.86 46.03 142.91 42.59 142.96 39.18 143 36.07 143.05 33.45 143.1 31.39 143.15 29.9 143.19 28.92 143.24 28.41 143.29 28.29 143.34 28.48 143.38 28.89 143.43 29.42 143.48 29.93 143.53 30.27 143.57 30.28 143.62 29.79 143.67 28.74 143.72 27.14 143.76 25.19 143.81 23.26 143.86 21.69 143.91 20.72 143.95 20.34 144 20.41 144.05 20.73 144.1 21.15 144.14 21.51 144.19 21.73 144.24 21.76 144.28 21.61 144.33 21.31 144.38 20.98 144.43 20.75 144.47 20.8 144.52 21.32 144.57 22.46 144.62 24.25 144.66 26.5 144.71 28.95 144.76 31.37 144.81 33.59 144.85 35.52 144.9 37.14 144.95 38.48 145 39.59 145.04 40.54 145.09 41.41 145.14 42.26 145.19 43.1 145.23 43.94 145.28 44.72 145.33 45.35 145.38 45.71 145.42 45.6 145.47 44.85 145.52 43.34 145.57 41.12 145.61 38.42 145.66 35.52 145.71 32.66 145.76 30 145.8 27.61 145.85 25.52 145.9 23.71 145.95 22.19 145.99 20.93 146.04 19.93 146.09 19.17 146.14 18.6 146.18 18.18 146.23 17.83 146.28 17.45 146.33 16.91 146.37 16.16 146.42 15.23 146.47 14.33 146.52 13.77 146.56 13.85 146.61 14.71 146.66 16.29 146.71 18.47 146.75 21.05 146.8 23.88 146.85 26.8 146.9 29.68 146.94 32.46 146.99 35.06 147.04 37.46 147.09 39.66 147.13 41.71 147.18 43.63 147.23 45.45 147.27 47.2 147.32 48.83 147.37 50.29 147.42 51.54 147.46 52.49 147.51 53.07 147.56 53.16 147.61 52.64 147.65 51.35 147.7 49.24 147.75 46.41 147.8 43.13 147.84 39.72 147.89 36.5 147.94 33.66 147.99 31.3 148.03 29.45 148.08 28.11 148.13 27.25 148.18 26.82 148.22 26.74 148.27 26.93 148.32 27.31 148.37 27.74 148.41 28.08 148.46 28.17 148.51 27.86 148.56 27.03 148.6 25.67 148.65 23.93 148.7 22.13 148.75 20.65 148.79 19.78 148.84 19.57 148.89 19.93 148.94 20.66 148.98 21.58 149.03 22.52 149.08 23.34 149.13 23.98 149.17 24.41 149.22 24.64 149.27 24.75 149.32 24.89 149.36 25.22 149.41 25.94 149.46 27.18 149.51 28.95 149.55 31.1 149.6 33.39 149.65 35.59 149.7 37.53 149.74 39.13 149.79 40.33 149.84 41.12 149.89 41.56 149.93 41.72 149.98 41.68 150.03 41.53 150.08 41.34 150.12 41.12 150.17 40.85 150.22 40.43 150.26 39.7 150.31 38.5 150.36 36.71 150.41 34.42 150.45 31.86 150.5 29.31 150.55 26.96 150.6 24.91 150.64 23.15 150.69 21.63 150.74 20.3 150.79 19.11 150.83 18.03 150.88 17.04 150.93 16.13 150.98 15.28 151.02 14.5 151.07 13.75 151.12 13.02 151.17 12.32 151.21 11.79 151.26 11.65 151.31 12.13 151.36 13.35 151.4 15.27 151.45 17.73 151.5 20.56 151.55 23.61 151.59 26.75 151.64 29.88 151.69 32.92 151.74 35.84 151.78 38.58 151.83 41.13 151.88 43.49 151.93 45.65 151.97 47.62 152.02 49.4 152.07 51 152.12 52.38 152.16 53.53 152.21 54.38 152.26 54.88 152.31 54.91 152.35 54.33 152.4 52.98 152.45 50.78 152.5 47.8 152.54 44.36 152.59 40.85 152.64 37.62 152.69 34.88 152.73 32.72 152.78 31.13 152.83 30.09 152.88 29.53 152.92 29.38 152.97 29.55 153.02 29.96 153.07 30.51 153.11 31.09 153.16 31.55 153.21 31.73 153.25 31.46 153.3 30.62 153.35 29.17 153.4 27.25 153.44 25.16 153.49 23.27 153.54 21.86 153.59 21 153.63 20.61 153.68 20.52 153.73 20.56 153.78 20.6 153.82 20.54 153.87 20.32 153.92 19.95 153.97 19.45 154.01 18.9 154.06 18.41 154.11 18.12 154.16 18.2 154.2 18.86 154.25 20.22 154.3 22.21 154.35 24.62 154.39 27.19 154.44 29.7 154.49 32.03 154.54 34.13 154.58 35.99 154.63 37.66 154.68 39.19 154.73 40.62 154.77 42.02 154.82 43.38 154.87 44.71 154.92 45.98 154.96 47.13 155.01 48.08 155.06 48.73 155.11 48.93 155.15 48.51 155.2 47.34 155.25 45.4 155.3 42.84 155.34 39.88 155.39 36.81 155.44 33.82 155.49 31.06 155.53 28.63 155.58 26.56 155.63 24.87 155.68 23.55 155.72 22.6 155.77 21.97 155.82 21.62 155.87 21.49 155.91 21.46 155.96 21.42 156.01 21.22 156.06 20.73 156.1 19.88 156.15 18.72 156.2 17.45 156.24 16.43 156.29 15.98 156.34 16.29 156.39 17.36 156.43 19.05 156.48 21.16 156.53 23.49 156.58 25.88 156.62 28.21 156.67 30.39 156.72 32.38 156.77 34.17 156.81 35.81 156.86 37.37 156.91 38.96 156.96 40.62 157 42.38 157.05 44.16 157.1 45.86 157.15 47.39 157.19 48.62 157.24 49.48 157.29 49.86 157.34 49.66 157.38 48.78 157.43 47.21 157.48 45 157.53 42.31 157.57 39.35 157.62 36.32 157.67 33.38 157.72 30.66 157.76 28.25 157.81 26.23 157.86 24.66 157.91 23.54 157.95 22.83 158 22.48 158.05 22.4 158.1 22.47 158.14 22.56 158.19 22.53 158.24 22.24 158.29 21.6 158.33 20.58 158.38 19.28 158.43 17.95 158.48 16.92 158.52 16.52 158.57 16.92 158.62 18.07 158.67 19.8 158.71 21.89 158.76 24.12 158.81 26.33 158.86 28.41 158.9 30.29 158.95 31.96 159 33.45 159.05 34.83 159.09 36.2 159.14 37.69 159.19 39.33 159.23 41.11 159.28 42.94 159.33 44.7 159.38 46.27 159.42 47.52 159.47 48.36 159.52 48.68 159.57 48.39 159.61 47.44 159.66 45.85 159.71 43.71 159.76 41.17 159.8 38.4 159.85 35.56 159.9 32.76 159.95 30.11 159.99 27.69 160.04 25.6 160.09 23.91 160.14 22.66 160.18 21.82 160.23 21.34 160.28 21.13 160.33 21.06 160.37 21.02 160.42 20.85 160.47 20.44 160.52 19.73 160.56 18.72 160.61 17.52 160.66 16.38 160.71 15.61 160.75 15.48 160.8 16.15 160.85 17.59 160.9 19.61 160.94 22 160.99 24.54 161.04 27.07 161.09 29.47 161.13 31.66 161.18 33.65 161.23 35.47 161.28 37.16 161.32 38.83 161.37 40.52 161.42 42.27 161.47 44.06 161.51 45.8 161.56 47.41 161.61 48.8 161.66 49.87 161.7 50.52 161.75 50.63 161.8 50.1 161.85 48.84 161.89 46.86 161.94 44.29 161.99 41.33 162.04 38.22 162.08 35.15 162.13 32.28 162.18 29.71 162.22 27.55 162.27 25.83 162.32 24.57 162.37 23.76 162.41 23.34 162.46 23.24 162.51 23.34 162.56 23.53 162.6 23.66 162.65 23.59 162.7 23.17 162.75 22.34 162.79 21.13 162.84 19.69 162.89 18.33 162.94 17.43 162.98 17.26 163.03 17.87 163.08 19.16 163.13 20.89 163.17 22.87 163.22 24.89 163.27 26.82 163.32 28.57 163.36 30.1 163.41 31.41 163.46 32.58 163.51 33.7 163.55 34.92 163.6 36.34 163.65 37.99 163.7 39.84 163.74 41.73 163.79 43.52 163.84 45.08 163.89 46.27 163.93 47 163.98 47.19 164.03 46.77 164.08 45.74 164.12 44.15 164.17 42.13 164.22 39.8 164.27 37.3 164.31 34.73 164.36 32.16 164.41 29.65 164.46 27.27 164.5 25.14 164.55 23.36 164.6 21.97 164.65 20.99 164.69 20.36 164.74 19.98 164.79 19.73 164.84 19.49 164.88 19.14 164.93 18.58 164.98 17.78 165.03 16.78 165.07 15.72 165.12 14.81 165.17 14.32 165.21 14.46 165.26 15.38 165.31 17.03 165.36 19.28 165.4 21.91 165.45 24.69 165.5 27.47 165.55 30.14 165.59 32.61 165.64 34.89 165.69 37 165.74 38.99 165.78 40.91 165.83 42.79 165.88 44.63 165.93 46.42 165.97 48.08 166.02 49.57 166.07 50.83 166.12 51.76 166.16 52.29 166.21 52.28 166.26 51.6 166.31 50.15 166.35 47.93 166.4 45.08 166.45 41.87 166.5 38.57 166.54 35.43 166.59 32.61 166.64 30.24 166.69 28.35 166.73 26.96 166.78 26.05 166.83 25.57 166.88 25.44 166.92 25.59 166.97 25.9 167.02 26.26 167.07 26.5 167.11 26.48 167.16 26.05 167.21 25.12 167.26 23.73 167.3 22.06 167.35 20.45 167.4 19.29 167.45 18.81 167.49 19.06 167.54 19.88 167.59 21.06 167.64 22.41 167.68 23.76 167.73 24.98 167.78 25.99 167.83 26.78 167.87 27.37 167.92 27.85 167.97 28.36 168.02 29.07 168.06 30.15 168.11 31.68 168.16 33.59 168.2 35.71 168.25 37.81 168.3 39.72 168.35 41.29 168.39 42.44 168.44 43.12 168.49 43.33 168.54 43.09 168.58 42.49 168.63 41.61 168.68 40.56 168.73 39.42 168.77 38.19 168.82 36.86 168.87 35.34 168.92 33.54 168.96 31.42 169.01 29.1 169.06 26.8 169.11 24.71 169.15 22.94 169.2 21.5 169.25 20.33 169.3 19.35 169.34 18.46 169.39 17.61 169.44 16.74 169.49 15.85 169.53 14.95 169.58 14.08 169.63 13.28 169.68 12.61 169.72 12.16 169.77 12.11 169.82 12.65 169.87 13.9 169.91 15.85 169.96 18.34 170.01 21.19 170.06 24.2 170.1 27.25 170.15 30.25 170.2 33.16 170.25 35.94 170.29 38.57 170.34 41.05 170.39 43.36 170.44 45.49 170.48 47.45 170.53 49.22 170.58 50.8 170.63 52.17 170.67 53.29 170.72 54.11 170.77 54.56 170.82 54.52 170.86 53.83 170.91 52.36 170.96 50.04 171.01 47.02 171.05 43.58 171.1 40.11 171.15 36.92 171.19 34.21 171.24 32.08 171.29 30.52 171.34 29.5 171.38 28.95 171.43 28.8 171.48 28.97 171.53 29.38 171.57 29.92 171.62 30.48 171.67 30.89 171.72 30.99 171.76 30.64 171.81 29.7 171.86 28.19 171.91 26.26 171.95 24.23 172 22.48 172.05 21.27 172.1 20.64 172.14 20.47 172.19 20.59 172.24 20.83 172.29 21.04 172.33 21.13 172.38 21.05 172.43 20.78 172.48 20.39 172.52 19.94 172.57 19.57 172.62 19.43 172.67 19.71 172.71 20.6 172.76 22.17 172.81 24.3 172.86 26.75 172.9 29.26 172.95 31.64 173 33.79 173.05 35.66 173.09 37.26 173.14 38.65 173.19 39.89 173.24 41.05 173.28 42.17 173.33 43.28 173.38 44.38 173.43 45.42 173.47 46.34 173.52 47.04 173.57 47.36 173.62 47.14 173.66 46.2 173.71 44.5 173.76 42.12 173.81 39.29 173.85 36.3 173.9 33.37 173.95 30.65 174 28.21 174.04 26.09 174.09 24.3 174.14 22.84 174.18 21.7 174.23 20.85 174.28 20.27 174.33 19.91 174.37 19.69 174.42 19.5 174.47 19.23 174.52 18.74 174.56 17.95 174.61 16.91 174.66 15.83 174.71 15.02 174.75 14.81 174.8 15.36 174.85 16.68 174.9 18.61 174.94 20.97 174.99 23.58 175.04 26.28 175.09 28.94 175.13 31.48 175.18 33.83 175.23 35.99 175.28 37.97 175.32 39.82 175.37 41.61 175.42 43.37 175.47 45.13 175.51 46.83 175.56 48.4 175.61 49.77 175.66 50.86 175.7 51.57 175.75 51.81 175.8 51.45 175.85 50.37 175.89 48.51 175.94 45.95 175.99 42.9 176.04 39.64 176.08 36.42 176.13 33.47 176.18 30.88 176.23 28.75 176.27 27.09 176.32 25.91 176.37 25.17 176.42 24.84 176.46 24.81 176.51 25 176.56 25.3 176.61 25.56 176.65 25.64 176.7 25.37 176.75 24.65 176.8 23.46 176.84 21.92 176.89 20.32 176.94 19.04 176.98 18.4 177.03 18.51 177.08 19.27 177.13 20.51 177.17 22 177.22 23.57 177.27 25.07 177.32 26.39 177.36 27.49 177.41 28.38 177.46 29.11 177.51 29.8 177.55 30.6 177.6 31.67 177.65 33.12 177.7 34.92 177.74 36.94 177.79 38.99 177.84 40.88 177.89 42.46 177.93 43.63 177.98 44.32 178.03 44.51 178.08 44.18 178.12 43.4 178.17 42.25 178.22 40.84 178.27 39.26 178.31 37.58 178.36 35.79 178.41 33.87 178.46 31.78 178.5 29.53 178.55 27.24 178.6 25.09 178.65 23.24 178.69 21.74 178.74 20.59 178.79 19.7 178.84 18.98 178.88 18.32 178.93 17.63 178.98 16.87 179.03 16.02 179.07 15.11 179.12 14.2 179.17 13.41 179.22 12.84 179.26 12.65 179.31 13.01 179.36 14.08 179.41 15.86 179.45 18.23 179.5 20.99 179.55 23.94 179.6 26.93 179.64 29.86 179.69 32.66 179.74 35.32 179.79 37.84 179.83 40.23 179.88 42.48 179.93 44.6 179.97 46.57 180.02 48.38 180.07 50.01 180.12 51.43 180.16 52.62 180.21 53.51 180.26 54.02 180.31 54.06 180.35 53.46 180.4 52.09 180.45 49.9 180.5 46.99 180.54 43.64 180.59 40.2 180.64 36.96 180.69 34.15 180.73 31.88 180.78 30.17 180.83 28.99 180.88 28.3 180.92 28.03 180.97 28.1 181.02 28.43 181.07 28.92 181.11 29.43 181.16 29.83 181.21 29.96 181.26 29.65 181.3 28.79 181.35 27.37 181.4 25.53 181.45 23.58 181.49 21.89 181.54 20.77 181.59 20.27 181.64 20.28 181.68 20.63 181.73 21.12 181.78 21.6 181.83 21.97 181.87 22.15 181.92 22.14 181.97 21.95 182.02 21.69 182.06 21.47 182.11 21.46 182.16 21.87 182.21 22.85 182.25 24.48 182.3 26.61 182.35 29.02 182.4 31.43 182.44 33.67 182.49 35.63 182.54 37.26 182.59 38.58 182.63 39.63 182.68 40.49 182.73 41.23 182.78 41.92 182.82 42.61 182.87 43.3 182.92 43.96 182.96 44.51 183.01 44.81 183.06 44.69 183.11 43.95 183.15 42.48 183.2 40.31 183.25 37.65 183.3 34.8 183.34 31.99 183.39 29.39 183.44 27.06 183.49 25.02 183.53 23.25 183.58 21.74 183.63 20.48 183.68 19.44 183.72 18.6 183.77 17.95 183.82 17.44 183.87 17.01 183.91 16.55 183.96 15.97 184.01 15.21 184.06 14.33 184.1 13.56 184.15 13.19 184.2 13.51 184.25 14.59 184.29 16.38 184.34 18.72 184.39 21.43 184.44 24.37 184.48 27.37 184.53 30.34 184.58 33.18 184.63 35.85 184.67 38.33 184.72 40.6 184.77 42.7 184.82 44.66 184.86 46.5 184.91 48.22 184.96 49.81 185.01 51.2 185.05 52.36 185.1 53.22 185.15 53.69 185.2 53.67 185.24 52.99 185.29 51.52 185.34 49.21 185.39 46.21 185.43 42.82 185.48 39.4 185.53 36.24 185.58 33.53 185.62 31.34 185.67 29.68 185.72 28.53 185.77 27.85 185.81 27.57 185.86 27.63 185.91 27.93 185.95 28.38 186 28.85 186.05 29.2 186.1 29.25 186.14 28.86 186.19 27.91 186.24 26.43 186.29 24.58 186.33 22.7 186.38 21.19 186.43 20.27 186.48 19.98 186.52 20.19 186.57 20.71 186.62 21.38 186.67 22.02 186.71 22.53 186.76 22.85 186.81 22.97 186.86 22.93 186.9 22.8 186.95 22.74 187 22.92 187.05 23.53 187.09 24.73 187.14 26.52 187.19 28.73 187.24 31.11 187.28 33.43 187.33 35.52 187.38 37.28 187.43 38.69 187.47 39.76 187.52 40.54 187.57 41.11 187.62 41.55 187.66 41.93 187.71 42.31 187.76 42.67 187.81 43 187.85 43.17 187.9 43.05 187.95 42.43 188 41.16 188.04 39.19 188.09 36.69 188.14 33.93 188.19 31.2 188.23 28.68 188.28 26.42 188.33 24.46 188.38 22.74 188.42 21.26 188.47 19.97 188.52 18.86 188.57 17.92 188.61 17.12 188.66 16.44 188.71 15.84 188.76 15.25 188.8 14.6 188.85 13.86 188.9 13.08 188.94 12.51 188.99 12.41 189.04 13.01 189.09 14.38 189.13 16.4 189.18 18.93 189.23 21.79 189.28 24.84 189.32 27.94 189.37 31 189.42 33.93 189.47 36.7 189.51 39.28 189.56 41.65 189.61 43.84 189.66 45.85 189.7 47.72 189.75 49.42 189.8 50.95 189.85 52.27 189.89 53.33 189.94 54.09 189.99 54.45 190.04 54.29 190.08 53.45 190.13 51.8 190.18 49.31 190.23 46.15 190.27 42.67 190.32 39.25 190.37 36.18 190.42 33.62 190.46 31.62 190.51 30.17 190.56 29.23 190.61 28.75 190.65 28.65 190.7 28.85 190.75 29.27 190.8 29.8 190.84 30.31 190.89 30.66 190.94 30.68 190.99 30.2 191.03 29.13 191.08 27.51 191.13 25.54 191.18 23.57 191.22 21.96 191.27 20.92 191.32 20.45 191.37 20.41 191.41 20.63 191.46 20.93 191.51 21.19 191.56 21.31 191.6 21.26 191.65 21.02 191.7 20.67 191.75 20.28 191.79 19.99 191.84 19.97 191.89 20.43 191.93 21.52 191.98 23.26 192.03 25.51 192.08 27.99 192.12 30.46 192.17 32.76 192.22 34.8 192.27 36.54 192.31 38.02 192.36 39.28 192.41 40.39 192.46 41.43 192.5 42.44 192.55 43.45 192.6 44.44 192.65 45.36 192.69 46.15 192.74 46.67 192.79 46.76 192.84 46.23 192.88 44.95 192.93 42.93 192.98 40.32 193.03 37.4 193.07 34.44 193.12 31.63 193.17 29.08 193.22 26.82 193.26 24.88 193.31 23.26 193.36 21.93 193.41 20.9 193.45 20.14 193.5 19.6 193.55 19.25 193.6 19 193.64 18.73 193.69 18.33 193.74 17.68 193.79 16.77 193.83 15.72 193.88 14.82 193.93 14.4 193.98 14.7 194.02 15.78 194.07 17.54 194.12 19.81 194.17 22.41 194.21 25.16 194.26 27.94 194.31 30.63 194.36 33.17 194.4 35.52 194.45 37.68 194.5 39.67 194.55 41.54 194.59 43.35 194.64 45.13 194.69 46.85 194.74 48.46 194.78 49.88 194.83 51.06 194.88 51.91 194.92 52.33 194.97 52.21 195.02 51.4 195.07 49.82 195.11 47.47 195.16 44.51 195.21 41.23 195.26 37.92 195.3 34.84 195.35 32.13 195.4 29.87 195.45 28.1 195.49 26.83 195.54 26.01 195.59 25.61 195.64 25.55 195.68 25.73 195.73 26.06 195.78 26.4 195.83 26.61 195.87 26.51 195.92 25.98 195.97 24.95 196.02 23.48 196.06 21.79 196.11 20.23 196.16 19.19 196.21 18.85 196.25 19.2 196.3 20.07 196.35 21.27 196.4 22.6 196.44 23.9 196.49 25.06 196.54 26 196.59 26.73 196.63 27.27 196.68 27.73 196.73 28.26 196.78 29.03 196.82 30.2 196.87 31.81 196.92 33.78 196.97 35.93 197.01 38.02 197.06 39.88 197.11 41.4 197.16 42.48 197.2 43.1 197.25 43.25 197.3 42.98 197.35 42.37 197.39 41.51 197.44 40.5 197.49 39.39 197.54 38.21 197.58 36.91 197.63 35.39 197.68 33.55 197.73 31.39 197.77 29.05 197.82 26.74 197.87 24.67 197.91 22.92 197.96 21.49 198.01 20.32 198.06 19.33 198.1 18.44 198.15 17.57 198.2 16.69 198.25 15.79 198.29 14.89 198.34 14.02 198.39 13.22 198.44 12.55 198.48 12.11 198.53 12.06 198.58 12.62 198.63 13.89 198.67 15.85 198.72 18.35 198.77 21.2 198.82 24.21 198.86 27.26 198.91 30.27 198.96 33.18 199.01 35.96 199.05 38.6 199.1 41.08 199.15 43.4 199.2 45.54 199.24 47.49 199.29 49.26 199.34 50.84 199.39 52.21 199.43 53.33 199.48 54.15 199.53 54.59 199.58 54.54 199.62 53.85 199.67 52.37 199.72 50.05 199.77 47.02 199.81 43.58 199.86 40.1 199.91 36.92 199.96 34.22 200 32.1 200.05 30.55 200.1 29.53 200.15 28.98 200.19 28.84 200.24 29.02 200.29 29.44 200.34 29.98 200.38 30.53 200.43 30.94 200.48 31.05 200.53 30.68 200.57 29.74 200.62 28.23 200.67 26.29 200.72 24.26 200.76 22.51 200.81 21.29 200.86 20.65 200.9 20.48 200.95 20.59 201 20.81 201.05 21.01 201.09 21.08 201.14 20.99 201.19 20.71 201.24 20.3 201.28 19.85 201.33 19.47 201.38 19.33 201.43 19.6 201.47 20.49 201.52 22.05 201.57 24.19 201.62 26.64 201.66 29.15 201.71 31.54 201.76 33.7 201.81 35.58 201.85 37.2 201.9 38.61 201.95 39.87 202 41.05 202.04 42.19 202.09 43.32 202.14 44.43 202.19 45.49 202.23 46.43 202.28 47.14 202.33 47.48 202.38 47.28 202.42 46.37 202.47 44.69 202.52 42.32 202.57 39.51 202.61 36.51 202.66 33.57 202.71 30.83 202.76 28.37 202.8 26.24 202.85 24.43 202.9 22.96 202.95 21.81 202.99 20.97 203.04 20.39 203.09 20.03 203.14 19.82 203.18 19.65 203.23 19.39 203.28 18.92 203.33 18.14 203.37 17.11 203.42 16 203.47 15.16 203.52 14.88 203.56 15.38 203.61 16.64 203.66 18.52 203.71 20.84 203.75 23.42 203.8 26.1 203.85 28.74 203.89 31.27 203.94 33.61 203.99 35.76 204.04 37.72 204.08 39.56 204.13 41.33 204.18 43.09 204.23 44.85 204.27 46.56 204.32 48.15 204.37 49.54 204.42 50.66 204.46 51.4 204.51 51.68 204.56 51.37 204.61 50.34 204.65 48.55 204.7 46.05 204.75 43.04 204.8 39.8 204.84 36.58 204.89 33.6 204.94 30.98 204.99 28.8 205.03 27.09 205.08 25.85 205.13 25.07 205.18 24.69 205.22 24.63 205.27 24.79 205.32 25.08 205.37 25.33 205.41 25.42 205.46 25.17 205.51 24.48 205.56 23.33 205.6 21.82 205.65 20.24 205.7 18.95 205.75 18.29 205.79 18.38 205.84 19.15 205.89 20.4 205.94 21.94 205.98 23.56 206.03 25.11 206.08 26.51 206.13 27.68 206.17 28.64 206.22 29.43 206.27 30.17 206.32 31 206.36 32.09 206.41 33.53 206.46 35.31 206.51 37.32 206.55 39.35 206.6 41.22 206.65 42.79 206.7 43.95 206.74 44.64 206.79 44.8 206.84 44.45 206.88 43.62 206.93 42.4 206.98 40.9 207.03 39.21 207.07 37.41 207.12 35.52 207.17 33.5 207.22 31.34 207.26 29.07 207.31 26.79 207.36 24.69 207.41 22.91 207.45 21.49 207.5 20.41 207.55 19.59 207.6 18.93 207.64 18.33 207.69 17.68 207.74 16.94 207.79 16.1 207.83 15.18 207.88 14.27 207.93 13.48 207.98 12.94 208.02 12.82 208.07 13.31 208.12 14.51 208.17 16.41 208.21 18.86 208.26 21.67 208.31 24.63 208.36 27.6 208.4 30.48 208.45 33.22 208.5 35.82 208.55 38.26 208.59 40.59 208.64 42.79 208.69 44.86 208.74 46.8 208.78 48.57 208.83 50.17 208.88 51.55 208.93 52.68 208.97 53.5 209.02 53.93 209.07 53.84 209.12 53.09 209.16 51.54 209.21 49.18 209.26 46.16 209.31 42.77 209.35 39.36 209.4 36.2 209.45 33.49 209.5 31.32 209.54 29.71 209.59 28.62 209.64 28.01 209.69 27.8 209.73 27.91 209.78 28.27"/>
      </g>
    </g>
  </g>
</g>
  <g class="guide ylabels" font-size="2.82" font-family="'PT Sans Caption','Helvetica Neue','Helvetica',sans-serif" fill="#6C606B" id="img-23b2729b-16">
    <text x="16.94" y="58.72" text-anchor="end" dy="0.35em">-0.6</text>
    <text x="16.94" y="48.37" text-anchor="end" dy="0.35em">-0.4</text>
    <text x="16.94" y="38.03" text-anchor="end" dy="0.35em">-0.2</text>
    <text x="16.94" y="27.69" text-anchor="end" dy="0.35em">0.0</text>
    <text x="16.94" y="17.34" text-anchor="end" dy="0.35em">0.2</text>
    <text x="16.94" y="7" text-anchor="end" dy="0.35em">0.4</text>
  </g>
  <g font-size="3.88" font-family="'PT Sans','Helvetica Neue','Helvetica',sans-serif" fill="#564A55" stroke="#000000" stroke-opacity="0.000" id="img-23b2729b-17">
    <text x="8.81" y="32.86" text-anchor="end" dy="0.35em">y</text>
  </g>
</g>
<defs>
  <clipPath id="img-23b2729b-8">
  <path d="M17.94,5 L 211.78 5 211.78 60.72 17.94 60.72" />
</clipPath>
</defs>
</svg>
