<?xml version="1.0" encoding="UTF-8"?>
<svg xmlns="http://www.w3.org/2000/svg"
     xmlns:xlink="http://www.w3.org/1999/xlink"
     xmlns:gadfly="http://www.gadflyjl.org/ns"
     version="1.2"
     width="101.6mm" height="101.6mm" viewBox="0 0 101.6 101.6"
     stroke="none"
     fill="#000000"
     stroke-width="0.3"
     font-size="3.88"
>
<g class="plotroot xscalable yscalable" id="img-6003b177-1">
  <g font-size="3.88" font-family="'PT Sans','Helvetica Neue','Helvetica',sans-serif" fill="#564A55" stroke="#000000" stroke-opacity="0.000" id="img-6003b177-2">
    <text x="51.68" y="89.99" text-anchor="middle" dy="0.6em">x</text>
  </g>
  <g class="guide xlabels" font-size="2.82" font-family="'PT Sans Caption','Helvetica Neue','Helvetica',sans-serif" fill="#6C606B" id="img-6003b177-3">
    <text x="17.59" y="83.32" text-anchor="middle" dy="0.6em">-6</text>
    <text x="28.95" y="83.32" text-anchor="middle" dy="0.6em">-4</text>
    <text x="40.32" y="83.32" text-anchor="middle" dy="0.6em">-2</text>
    <text x="51.68" y="83.32" text-anchor="middle" dy="0.6em">0</text>
    <text x="63.04" y="83.32" text-anchor="middle" dy="0.6em">2</text>
    <text x="74.4" y="83.32" text-anchor="middle" dy="0.6em">4</text>
    <text x="85.76" y="83.32" text-anchor="middle" dy="0.6em">6</text>
  </g>
  <g class="guide colorkey" id="img-6003b177-4">
    <g font-size="2.82" font-family="'PT Sans','Helvetica Neue','Helvetica',sans-serif" fill="#4C404B" id="img-6003b177-5">
      <text x="92.08" y="57.04" dy="0.35em">0</text>
    </g>
    <g shape-rendering="crispEdges" stroke="#000000" stroke-opacity="0.000" id="img-6003b177-6">
      <rect x="89.76" y="56.76" width="1.31" height="0.29" fill="#004D84"/>
      <rect x="89.76" y="56.47" width="1.31" height="0.29" fill="#005B8D"/>
      <rect x="89.76" y="56.18" width="1.31" height="0.29" fill="#006995"/>
      <rect x="89.76" y="55.89" width="1.31" height="0.29" fill="#00769D"/>
      <rect x="89.76" y="55.6" width="1.31" height="0.29" fill="#0083A3"/>
      <rect x="89.76" y="55.31" width="1.31" height="0.29" fill="#278FA9"/>
      <rect x="89.76" y="55.02" width="1.31" height="0.29" fill="#409BAF"/>
      <rect x="89.76" y="54.73" width="1.31" height="0.29" fill="#55A7B5"/>
      <rect x="89.76" y="54.45" width="1.31" height="0.29" fill="#69B2BA"/>
      <rect x="89.76" y="54.16" width="1.31" height="0.29" fill="#7BBCC0"/>
      <rect x="89.76" y="53.87" width="1.31" height="0.29" fill="#8DC6C5"/>
      <rect x="89.76" y="53.58" width="1.31" height="0.29" fill="#9ED0CB"/>
      <rect x="89.76" y="53.29" width="1.31" height="0.29" fill="#A5CFC7"/>
      <rect x="89.76" y="53" width="1.31" height="0.29" fill="#ABCEC4"/>
      <rect x="89.76" y="52.71" width="1.31" height="0.29" fill="#B1CCC2"/>
      <rect x="89.76" y="52.42" width="1.31" height="0.29" fill="#B5CCC1"/>
      <rect x="89.76" y="52.14" width="1.31" height="0.29" fill="#B7CBBF"/>
      <rect x="89.76" y="51.85" width="1.31" height="0.29" fill="#B9CBBD"/>
      <rect x="89.76" y="51.56" width="1.31" height="0.29" fill="#BBCBBB"/>
      <rect x="89.76" y="51.27" width="1.31" height="0.29" fill="#BDCABA"/>
      <rect x="89.76" y="50.98" width="1.31" height="0.29" fill="#BFCAB8"/>
      <rect x="89.76" y="50.69" width="1.31" height="0.29" fill="#C2C9B7"/>
      <rect x="89.76" y="50.4" width="1.31" height="0.29" fill="#C4C9B6"/>
      <rect x="89.76" y="50.11" width="1.31" height="0.29" fill="#C6C8B5"/>
      <rect x="89.76" y="49.83" width="1.31" height="0.29" fill="#C9C7B4"/>
      <rect x="89.76" y="49.54" width="1.31" height="0.29" fill="#CCC7B2"/>
      <rect x="89.76" y="49.25" width="1.31" height="0.29" fill="#CFC6AE"/>
      <rect x="89.76" y="48.96" width="1.31" height="0.29" fill="#D4C5AA"/>
      <rect x="89.76" y="48.67" width="1.31" height="0.29" fill="#D8C3A6"/>
      <rect x="89.76" y="48.38" width="1.31" height="0.29" fill="#D3B79A"/>
      <rect x="89.76" y="48.09" width="1.31" height="0.29" fill="#CDAB8E"/>
      <rect x="89.76" y="47.8" width="1.31" height="0.29" fill="#C89E82"/>
      <rect x="89.76" y="47.51" width="1.31" height="0.29" fill="#C19177"/>
      <rect x="89.76" y="47.23" width="1.31" height="0.29" fill="#BA836C"/>
      <rect x="89.76" y="46.94" width="1.31" height="0.29" fill="#B27563"/>
      <rect x="89.76" y="46.65" width="1.31" height="0.29" fill="#AA665A"/>
      <rect x="89.76" y="46.36" width="1.31" height="0.29" fill="#A05752"/>
      <rect x="89.76" y="46.07" width="1.31" height="0.29" fill="#96484A"/>
      <rect x="89.76" y="45.78" width="1.31" height="0.29" fill="#8B3844"/>
      <rect x="89.76" y="45.49" width="1.31" height="0.29" fill="#7E273E"/>
      <g stroke="#FFFFFF" stroke-width="0.2" id="img-6003b177-7">
        <path fill="none" d="M89.76,57.04 L 91.08 57.04"/>
      </g>
    </g>
    <g fill="#362A35" font-size="3.88" font-family="'PT Sans','Helvetica Neue','Helvetica',sans-serif" stroke="#000000" stroke-opacity="0.000" id="img-6003b177-8">
      <text x="89.76" y="41.49">Color</text>
    </g>
  </g>
<g clip-path="url(#img-6003b177-9)">
  <g id="img-6003b177-10">
    <g pointer-events="visible" opacity="1" fill="#000000" fill-opacity="0.000" stroke="#000000" stroke-opacity="0.000" class="guide background" id="img-6003b177-11">
      <rect x="15.59" y="5" width="72.17" height="77.32"/>
    </g>
    <g class="guide ygridlines xfixed" stroke-dasharray="0.5,0.5" stroke-width="0.2" stroke="#D0D0E0" id="img-6003b177-12">
      <path fill="none" d="M15.59,80.32 L 87.76 80.32"/>
      <path fill="none" d="M15.59,68.1 L 87.76 68.1"/>
      <path fill="none" d="M15.59,55.88 L 87.76 55.88"/>
      <path fill="none" d="M15.59,43.66 L 87.76 43.66"/>
      <path fill="none" d="M15.59,31.44 L 87.76 31.44"/>
      <path fill="none" d="M15.59,19.22 L 87.76 19.22"/>
      <path fill="none" d="M15.59,7 L 87.76 7"/>
    </g>
    <g class="guide xgridlines yfixed" stroke-dasharray="0.5,0.5" stroke-width="0.2" stroke="#D0D0E0" id="img-6003b177-13">
      <path fill="none" d="M17.59,5 L 17.59 82.32"/>
      <path fill="none" d="M28.95,5 L 28.95 82.32"/>
      <path fill="none" d="M40.32,5 L 40.32 82.32"/>
      <path fill="none" d="M51.68,5 L 51.68 82.32"/>
      <path fill="none" d="M63.04,5 L 63.04 82.32"/>
      <path fill="none" d="M74.4,5 L 74.4 82.32"/>
      <path fill="none" d="M85.76,5 L 85.76 82.32"/>
    </g>
    <g class="plotpanel" id="img-6003b177-14">
      <g class="geometry" id="img-6003b177-15">
        <g class="color_RGBA{Float32}(0.9803922f0,0.5019608f0,0.44705886f0,1.0f0)" stroke="#FFFFFF" stroke-width="0.3" fill="#FA8072" id="img-6003b177-16">
          <use xlink:href="#img-6003b177-17" x="51.68" y="83.37"/>
          <use xlink:href="#img-6003b177-17" x="44.54" y="82.23"/>
          <use xlink:href="#img-6003b177-17" x="37.82" y="79.64"/>
          <use xlink:href="#img-6003b177-17" x="31.75" y="75.72"/>
          <use xlink:href="#img-6003b177-17" x="26.57" y="70.66"/>
          <use xlink:href="#img-6003b177-17" x="22.45" y="64.66"/>
          <use xlink:href="#img-6003b177-17" x="19.53" y="57.98"/>
          <use xlink:href="#img-6003b177-17" x="17.9" y="50.88"/>
          <use xlink:href="#img-6003b177-17" x="17.59" y="43.66"/>
          <use xlink:href="#img-6003b177-17" x="18.6" y="36.58"/>
          <use xlink:href="#img-6003b177-17" x="20.84" y="29.92"/>
          <use xlink:href="#img-6003b177-17" x="24.22" y="23.93"/>
          <use xlink:href="#img-6003b177-17" x="28.58" y="18.82"/>
          <use xlink:href="#img-6003b177-17" x="33.73" y="14.77"/>
          <use xlink:href="#img-6003b177-17" x="39.45" y="11.91"/>
          <use xlink:href="#img-6003b177-17" x="45.51" y="10.33"/>
          <use xlink:href="#img-6003b177-17" x="51.68" y="10.05"/>
          <use xlink:href="#img-6003b177-17" x="57.7" y="11.07"/>
          <use xlink:href="#img-6003b177-17" x="63.36" y="13.32"/>
          <use xlink:href="#img-6003b177-17" x="68.44" y="16.67"/>
          <use xlink:href="#img-6003b177-17" x="72.77" y="20.98"/>
          <use xlink:href="#img-6003b177-17" x="76.18" y="26.05"/>
          <use xlink:href="#img-6003b177-17" x="78.58" y="31.68"/>
          <use xlink:href="#img-6003b177-17" x="79.88" y="37.62"/>
          <use xlink:href="#img-6003b177-17" x="80.08" y="43.66"/>
          <use xlink:href="#img-6003b177-17" x="79.19" y="49.54"/>
          <use xlink:href="#img-6003b177-17" x="77.26" y="55.06"/>
          <use xlink:href="#img-6003b177-17" x="74.41" y="59.99"/>
          <use xlink:href="#img-6003b177-17" x="70.76" y="64.18"/>
          <use xlink:href="#img-6003b177-17" x="66.47" y="67.47"/>
          <use xlink:href="#img-6003b177-17" x="61.73" y="69.76"/>
          <use xlink:href="#img-6003b177-17" x="56.73" y="71"/>
          <use xlink:href="#img-6003b177-17" x="51.68" y="71.15"/>
          <use xlink:href="#img-6003b177-17" x="46.76" y="70.25"/>
          <use xlink:href="#img-6003b177-17" x="42.17" y="68.35"/>
          <use xlink:href="#img-6003b177-17" x="38.07" y="65.56"/>
          <use xlink:href="#img-6003b177-17" x="34.61" y="62.02"/>
          <use xlink:href="#img-6003b177-17" x="31.9" y="57.87"/>
          <use xlink:href="#img-6003b177-17" x="30.03" y="53.3"/>
          <use xlink:href="#img-6003b177-17" x="29.04" y="48.5"/>
          <use xlink:href="#img-6003b177-17" x="28.95" y="43.66"/>
          <use xlink:href="#img-6003b177-17" x="29.74" y="38.96"/>
          <use xlink:href="#img-6003b177-17" x="31.34" y="34.6"/>
          <use xlink:href="#img-6003b177-17" x="33.67" y="30.72"/>
          <use xlink:href="#img-6003b177-17" x="36.61" y="27.46"/>
          <use xlink:href="#img-6003b177-17" x="40.04" y="24.93"/>
          <use xlink:href="#img-6003b177-17" x="43.8" y="23.2"/>
          <use xlink:href="#img-6003b177-17" x="47.73" y="22.31"/>
          <use xlink:href="#img-6003b177-17" x="51.68" y="22.27"/>
          <use xlink:href="#img-6003b177-17" x="55.49" y="23.06"/>
          <use xlink:href="#img-6003b177-17" x="59.02" y="24.61"/>
          <use xlink:href="#img-6003b177-17" x="62.13" y="26.83"/>
          <use xlink:href="#img-6003b177-17" x="64.73" y="29.62"/>
          <use xlink:href="#img-6003b177-17" x="66.73" y="32.84"/>
          <use xlink:href="#img-6003b177-17" x="68.08" y="36.35"/>
          <use xlink:href="#img-6003b177-17" x="68.74" y="40.01"/>
          <use xlink:href="#img-6003b177-17" x="68.72" y="43.66"/>
          <use xlink:href="#img-6003b177-17" x="68.04" y="47.16"/>
          <use xlink:href="#img-6003b177-17" x="66.77" y="50.38"/>
          <use xlink:href="#img-6003b177-17" x="64.96" y="53.2"/>
          <use xlink:href="#img-6003b177-17" x="62.72" y="55.54"/>
          <use xlink:href="#img-6003b177-17" x="60.16" y="57.31"/>
          <use xlink:href="#img-6003b177-17" x="57.38" y="58.47"/>
          <use xlink:href="#img-6003b177-17" x="54.52" y="59.01"/>
          <use xlink:href="#img-6003b177-17" x="51.68" y="58.93"/>
          <use xlink:href="#img-6003b177-17" x="48.98" y="58.26"/>
          <use xlink:href="#img-6003b177-17" x="46.51" y="57.06"/>
          <use xlink:href="#img-6003b177-17" x="44.38" y="55.4"/>
          <use xlink:href="#img-6003b177-17" x="42.64" y="53.38"/>
          <use xlink:href="#img-6003b177-17" x="41.35" y="51.08"/>
          <use xlink:href="#img-6003b177-17" x="40.52" y="48.63"/>
          <use xlink:href="#img-6003b177-17" x="40.19" y="46.12"/>
          <use xlink:href="#img-6003b177-17" x="40.32" y="43.66"/>
          <use xlink:href="#img-6003b177-17" x="40.88" y="41.35"/>
          <use xlink:href="#img-6003b177-17" x="41.84" y="39.27"/>
          <use xlink:href="#img-6003b177-17" x="43.12" y="37.51"/>
          <use xlink:href="#img-6003b177-17" x="44.65" y="36.1"/>
          <use xlink:href="#img-6003b177-17" x="46.35" y="35.09"/>
          <use xlink:href="#img-6003b177-17" x="48.15" y="34.49"/>
          <use xlink:href="#img-6003b177-17" x="49.95" y="34.29"/>
          <use xlink:href="#img-6003b177-17" x="51.68" y="34.49"/>
          <use xlink:href="#img-6003b177-17" x="53.27" y="35.04"/>
          <use xlink:href="#img-6003b177-17" x="54.67" y="35.9"/>
          <use xlink:href="#img-6003b177-17" x="55.82" y="36.99"/>
          <use xlink:href="#img-6003b177-17" x="56.7" y="38.26"/>
          <use xlink:href="#img-6003b177-17" x="57.29" y="39.63"/>
          <use xlink:href="#img-6003b177-17" x="57.58" y="41.03"/>
          <use xlink:href="#img-6003b177-17" x="57.6" y="42.39"/>
          <use xlink:href="#img-6003b177-17" x="57.36" y="43.66"/>
          <use xlink:href="#img-6003b177-17" x="56.9" y="44.77"/>
          <use xlink:href="#img-6003b177-17" x="56.27" y="45.7"/>
          <use xlink:href="#img-6003b177-17" x="55.52" y="46.42"/>
          <use xlink:href="#img-6003b177-17" x="54.69" y="46.9"/>
          <use xlink:href="#img-6003b177-17" x="53.85" y="47.15"/>
          <use xlink:href="#img-6003b177-17" x="53.04" y="47.19"/>
          <use xlink:href="#img-6003b177-17" x="52.3" y="47.03"/>
          <use xlink:href="#img-6003b177-17" x="51.68" y="46.71"/>
        </g>
      </g>
      <g class="geometry" id="img-6003b177-18">
        <g class="color_RGBA{Float32}(0.5294118f0,0.8078432f0,0.9215687f0,1.0f0)" stroke="#FFFFFF" stroke-width="0.3" fill="#87CEEB" id="img-6003b177-19">
          <use xlink:href="#img-6003b177-20" x="51.68" y="3.95"/>
          <use xlink:href="#img-6003b177-20" x="58.81" y="5.08"/>
          <use xlink:href="#img-6003b177-20" x="65.54" y="7.67"/>
          <use xlink:href="#img-6003b177-20" x="71.6" y="11.59"/>
          <use xlink:href="#img-6003b177-20" x="76.78" y="16.66"/>
          <use xlink:href="#img-6003b177-20" x="80.9" y="22.66"/>
          <use xlink:href="#img-6003b177-20" x="83.82" y="29.34"/>
          <use xlink:href="#img-6003b177-20" x="85.46" y="36.43"/>
          <use xlink:href="#img-6003b177-20" x="85.76" y="43.66"/>
          <use xlink:href="#img-6003b177-20" x="84.76" y="50.73"/>
          <use xlink:href="#img-6003b177-20" x="82.51" y="57.39"/>
          <use xlink:href="#img-6003b177-20" x="79.13" y="63.39"/>
          <use xlink:href="#img-6003b177-20" x="74.78" y="68.5"/>
          <use xlink:href="#img-6003b177-20" x="69.63" y="72.55"/>
          <use xlink:href="#img-6003b177-20" x="63.91" y="75.41"/>
          <use xlink:href="#img-6003b177-20" x="57.84" y="76.99"/>
          <use xlink:href="#img-6003b177-20" x="51.68" y="77.26"/>
          <use xlink:href="#img-6003b177-20" x="45.65" y="76.24"/>
          <use xlink:href="#img-6003b177-20" x="39.99" y="74"/>
          <use xlink:href="#img-6003b177-20" x="34.91" y="70.64"/>
          <use xlink:href="#img-6003b177-20" x="30.59" y="66.34"/>
          <use xlink:href="#img-6003b177-20" x="27.17" y="61.27"/>
          <use xlink:href="#img-6003b177-20" x="24.78" y="55.64"/>
          <use xlink:href="#img-6003b177-20" x="23.47" y="49.69"/>
          <use xlink:href="#img-6003b177-20" x="23.27" y="43.66"/>
          <use xlink:href="#img-6003b177-20" x="24.17" y="37.77"/>
          <use xlink:href="#img-6003b177-20" x="26.09" y="32.26"/>
          <use xlink:href="#img-6003b177-20" x="28.95" y="27.32"/>
          <use xlink:href="#img-6003b177-20" x="32.6" y="23.14"/>
          <use xlink:href="#img-6003b177-20" x="36.88" y="19.85"/>
          <use xlink:href="#img-6003b177-20" x="41.62" y="17.55"/>
          <use xlink:href="#img-6003b177-20" x="46.62" y="16.32"/>
          <use xlink:href="#img-6003b177-20" x="51.68" y="16.16"/>
          <use xlink:href="#img-6003b177-20" x="56.6" y="17.07"/>
          <use xlink:href="#img-6003b177-20" x="61.19" y="18.96"/>
          <use xlink:href="#img-6003b177-20" x="65.29" y="21.75"/>
          <use xlink:href="#img-6003b177-20" x="68.75" y="25.3"/>
          <use xlink:href="#img-6003b177-20" x="71.46" y="29.44"/>
          <use xlink:href="#img-6003b177-20" x="73.33" y="34.01"/>
          <use xlink:href="#img-6003b177-20" x="74.31" y="38.82"/>
          <use xlink:href="#img-6003b177-20" x="74.4" y="43.66"/>
          <use xlink:href="#img-6003b177-20" x="73.62" y="48.35"/>
          <use xlink:href="#img-6003b177-20" x="72.02" y="52.72"/>
          <use xlink:href="#img-6003b177-20" x="69.69" y="56.6"/>
          <use xlink:href="#img-6003b177-20" x="66.74" y="59.86"/>
          <use xlink:href="#img-6003b177-20" x="63.32" y="62.39"/>
          <use xlink:href="#img-6003b177-20" x="59.56" y="64.12"/>
          <use xlink:href="#img-6003b177-20" x="55.63" y="65"/>
          <use xlink:href="#img-6003b177-20" x="51.68" y="65.04"/>
          <use xlink:href="#img-6003b177-20" x="47.87" y="64.26"/>
          <use xlink:href="#img-6003b177-20" x="44.34" y="62.71"/>
          <use xlink:href="#img-6003b177-20" x="41.22" y="60.48"/>
          <use xlink:href="#img-6003b177-20" x="38.62" y="57.7"/>
          <use xlink:href="#img-6003b177-20" x="36.62" y="54.48"/>
          <use xlink:href="#img-6003b177-20" x="35.28" y="50.96"/>
          <use xlink:href="#img-6003b177-20" x="34.61" y="47.31"/>
          <use xlink:href="#img-6003b177-20" x="34.64" y="43.66"/>
          <use xlink:href="#img-6003b177-20" x="35.31" y="40.16"/>
          <use xlink:href="#img-6003b177-20" x="36.59" y="36.94"/>
          <use xlink:href="#img-6003b177-20" x="38.39" y="34.11"/>
          <use xlink:href="#img-6003b177-20" x="40.63" y="31.78"/>
          <use xlink:href="#img-6003b177-20" x="43.2" y="30.01"/>
          <use xlink:href="#img-6003b177-20" x="45.97" y="28.84"/>
          <use xlink:href="#img-6003b177-20" x="48.84" y="28.3"/>
          <use xlink:href="#img-6003b177-20" x="51.68" y="28.38"/>
          <use xlink:href="#img-6003b177-20" x="54.38" y="29.05"/>
          <use xlink:href="#img-6003b177-20" x="56.84" y="30.25"/>
          <use xlink:href="#img-6003b177-20" x="58.98" y="31.91"/>
          <use xlink:href="#img-6003b177-20" x="60.72" y="33.94"/>
          <use xlink:href="#img-6003b177-20" x="62.01" y="36.23"/>
          <use xlink:href="#img-6003b177-20" x="62.83" y="38.69"/>
          <use xlink:href="#img-6003b177-20" x="63.17" y="41.2"/>
          <use xlink:href="#img-6003b177-20" x="63.04" y="43.66"/>
          <use xlink:href="#img-6003b177-20" x="62.47" y="45.97"/>
          <use xlink:href="#img-6003b177-20" x="61.52" y="48.04"/>
          <use xlink:href="#img-6003b177-20" x="60.24" y="49.81"/>
          <use xlink:href="#img-6003b177-20" x="58.71" y="51.22"/>
          <use xlink:href="#img-6003b177-20" x="57" y="52.23"/>
          <use xlink:href="#img-6003b177-20" x="55.21" y="52.83"/>
          <use xlink:href="#img-6003b177-20" x="53.41" y="53.02"/>
          <use xlink:href="#img-6003b177-20" x="51.68" y="52.82"/>
          <use xlink:href="#img-6003b177-20" x="50.08" y="52.27"/>
          <use xlink:href="#img-6003b177-20" x="48.69" y="51.42"/>
          <use xlink:href="#img-6003b177-20" x="47.54" y="50.32"/>
          <use xlink:href="#img-6003b177-20" x="46.66" y="49.06"/>
          <use xlink:href="#img-6003b177-20" x="46.07" y="47.69"/>
          <use xlink:href="#img-6003b177-20" x="45.77" y="46.29"/>
          <use xlink:href="#img-6003b177-20" x="45.76" y="44.92"/>
          <use xlink:href="#img-6003b177-20" x="46" y="43.66"/>
          <use xlink:href="#img-6003b177-20" x="46.45" y="42.54"/>
          <use xlink:href="#img-6003b177-20" x="47.09" y="41.61"/>
          <use xlink:href="#img-6003b177-20" x="47.84" y="40.9"/>
          <use xlink:href="#img-6003b177-20" x="48.67" y="40.42"/>
          <use xlink:href="#img-6003b177-20" x="49.51" y="40.17"/>
          <use xlink:href="#img-6003b177-20" x="50.32" y="40.13"/>
          <use xlink:href="#img-6003b177-20" x="51.05" y="40.29"/>
          <use xlink:href="#img-6003b177-20" x="51.68" y="40.6"/>
        </g>
      </g>
      <g stroke-width="0.3" fill="#000000" fill-opacity="0.000" stroke-dasharray="none" id="img-6003b177-21">
        <path fill="none" d="M50.47,80.32 L 50.05 79.7 49.97 79.57 49.64 79.09 49.41 78.75 49.08 78.48 48.84 78.3 48.27 78.19 47.7 78.26 47.13 78.4 46.85 78.48 46.57 78.56 46 78.73 45.43 78.9 44.93 79.09 44.86 79.12 44.29 79.38 43.72 79.67 43.65 79.7 43.16 79.94 42.59 80.14 42.02 80.22 41.45 80.14 40.88 79.93 40.5 79.7 40.32 79.6 39.75 79.2 39.61 79.09 39.18 78.76 38.81 78.48 38.61 78.31 38.08 77.87 38.04 77.83 37.49 77.26 37.48 77.25 37.08 76.65 36.91 76.34 36.76 76.04 36.46 75.43 36.34 75.24 36.07 74.82 35.77 74.47 35.49 74.21 35.2 74 34.64 73.7 34.34 73.59 34.07 73.5 33.5 73.34 32.93 73.22 32.36 73.1 31.88 72.98 31.79 72.96 31.23 72.76 30.66 72.5 30.46 72.37 30.09 72.1 29.78 71.76 29.52 71.4 29.4 71.15 29.2 70.54 29.07 69.93 28.99 69.32 28.95 69.05 28.91 68.71 28.8 68.1 28.6 67.48 28.39 67.1 28.23 66.87 27.82 66.47 27.57 66.26 27.25 66.03 26.77 65.65 26.68 65.58 26.13 65.04 26.11 65.02 25.65 64.43 25.55 64.27 25.22 63.82 24.98 63.46 24.77 63.21 24.41 62.78 24.21 62.6 23.84 62.22 23.61 61.99 23.27 61.55 23.17 61.38 22.93 60.76 22.75 60.15 22.71 60.03 22.57 59.54 22.36 58.93 22.14 58.42 22.1 58.32 21.84 57.71 21.61 57.1 21.57 56.95 21.44 56.49 21.39 55.88 21.43 55.27 21.55 54.65 21.57 54.52 21.66 54.04 21.65 53.43 21.57 53.23 21.41 52.82 21 52.24 20.98 52.21 20.62 51.6 20.43 51.16 20.38 50.99 20.24 50.38 20.16 49.77 20.11 49.16 20.05 48.55 19.96 47.93 19.86 47.48 19.83 47.32 19.65 46.71 19.48 46.1 19.38 45.49 19.42 44.88 19.6 44.27 19.86 43.74 19.91 43.66 20.27 43.05 20.43 42.69 20.55 42.44 20.67 41.82 20.6 41.21 20.43 40.69 20.41 40.6 20.17 39.99 19.94 39.38 19.86 39.14 19.77 38.77 19.69 38.16 19.71 37.55 19.83 36.94 19.86 36.84 20.03 36.33 20.29 35.72 20.43 35.43 20.6 35.1 20.93 34.49 21 34.36 21.27 33.88 21.57 33.31 21.59 33.27 21.89 32.66 22.14 32.09 22.16 32.05 22.44 31.44 22.71 30.9 22.75 30.83 23.16 30.22 23.27 30.07 23.73 29.61 23.84 29.5 24.41 29.09 24.59 28.99 24.98 28.77 25.55 28.52 25.87 28.38 26.11 28.17 26.34 27.77 26.45 27.16 26.53 26.55 26.62 25.94 26.68 25.68 26.75 25.33 26.89 24.72 27.05 24.11 27.22 23.5 27.25 23.41 27.42 22.88 27.66 22.27 27.82 21.95 27.98 21.66 28.39 21.07 28.4 21.05 28.93 20.44 28.95 20.41 29.48 19.83 29.52 19.78 30.01 19.22 30.09 19.1 30.5 18.61 30.66 18.39 31.08 18 31.23 17.85 31.79 17.61 32.36 17.58 32.93 17.64 33.5 17.67 34.07 17.58 34.47 17.39 34.64 17.3 35.2 16.85 35.28 16.78 35.77 16.28 35.87 16.16 36.34 15.63 36.41 15.55 36.91 15 36.96 14.94 37.48 14.46 37.66 14.33 38.04 14.09 38.61 13.86 39.18 13.73 39.31 13.72 39.75 13.68 40.32 13.68 40.88 13.69 41.45 13.71 42.02 13.7 42.59 13.67 43.16 13.58 43.72 13.44 44.29 13.26 44.77 13.11 44.86 13.08 45.43 12.98 46 12.96 46.57 13.04 46.83 13.11 47.13 13.19 47.7 13.36 48.27 13.46 48.84 13.4 49.41 13.17 49.51 13.11 49.97 12.88 50.54 12.62 50.92 12.5 51.11 12.44 51.68 12.33 52.25 12.3 52.81 12.38 53.05 12.5 53.38 12.72 53.72 13.11 53.95 13.44 54.15 13.72 54.52 14.19 54.71 14.33 55.09 14.55 55.65 14.65 56.22 14.64 56.79 14.58 57.36 14.5 57.93 14.42 58.49 14.36 59.06 14.35 59.63 14.38 60.2 14.47 60.77 14.63 61.34 14.88 61.45 14.94 61.9 15.24 62.28 15.55 62.47 15.77 62.79 16.16 63.04 16.65 63.11 16.78 63.36 17.39 63.59 18 63.61 18.03 64.18 18.58 64.32 18.61 64.74 18.66 65.31 18.63 65.88 18.63 66.45 18.74 67.02 19.03 67.23 19.22 67.58 19.58 67.76 19.83 68.12 20.44 68.15 20.5 68.42 21.05 68.72 21.59 68.76 21.66 69.22 22.27 69.29 22.35 69.86 22.85 69.9 22.88 70.42 23.22 70.92 23.5 70.99 23.54 71.56 23.85 71.96 24.11 72.13 24.23 72.62 24.72 72.7 24.81 73.07 25.33 73.27 25.64 73.44 25.94 73.78 26.55 73.83 26.65 74.11 27.16 74.4 27.76 74.41 27.77 74.7 28.38 74.95 28.99 74.97 29.04 75.19 29.61 75.44 30.22 75.54 30.43 75.7 30.83 75.97 31.44 76.11 31.69 76.28 32.05 76.59 32.66 76.67 32.82 76.93 33.27 77.24 33.85 77.27 33.88 77.59 34.49 77.77 35.1 77.81 35.72 77.72 36.33 77.57 36.94 77.39 37.55 77.24 38.03 77.2 38.16 77.03 38.77 76.88 39.38 76.77 39.99 76.71 40.6 76.72 41.21 76.81 41.82 76.98 42.44 77.2 43.05 77.24 43.16 77.42 43.66 77.57 44.27 77.63 44.88 77.58 45.49 77.41 46.1 77.24 46.49 77.16 46.71 76.9 47.32 76.67 47.84 76.64 47.93 76.41 48.55 76.17 49.16 76.11 49.33 75.94 49.77 75.7 50.38 75.54 50.76 75.45 50.99 75.18 51.6 74.97 52.08 74.92 52.21 74.66 52.82 74.43 53.43 74.4 53.52 74.23 54.04 74.08 54.65 73.95 55.27 73.83 55.79 73.81 55.88 73.58 56.49 73.27 56.83 73 57.1 72.7 57.28 72.13 57.66 72.06 57.71 71.56 58.01 71.1 58.32 70.99 58.4 70.42 58.82 70.29 58.93 69.86 59.37 69.71 59.54 69.34 60.15 69.29 60.27 69.08 60.76 68.9 61.38 68.73 61.99 68.72 62.01 68.52 62.6 68.25 63.21 68.15 63.39 67.87 63.82 67.58 64.19 67.32 64.43 67.02 64.67 66.45 64.98 66.29 65.04 65.88 65.18 65.31 65.36 64.74 65.57 64.59 65.65 64.18 65.82 63.61 66.12 63.38 66.26 63.04 66.46 62.47 66.83 62.41 66.87 61.9 67.22 61.52 67.48 61.34 67.62 60.77 67.96 60.45 68.1 60.2 68.2 59.63 68.27 59.06 68.17 58.86 68.1 58.49 67.98 57.93 67.81 57.36 67.69 56.79 67.61 56.22 67.56 55.65 67.52 55.09 67.51 54.52 67.52 53.95 67.56 53.38 67.61 52.81 67.67 52.25 67.72 51.68 67.77 51.11 67.81 50.54 67.82 49.97 67.77 49.41 67.65 48.9 67.48 48.84 67.47 48.27 67.26 47.7 67.03 47.36 66.87 47.13 66.77 46.57 66.49 46.07 66.26 46 66.23 45.43 65.98 44.86 65.8 44.29 65.66 44.26 65.65 43.72 65.52 43.16 65.37 42.59 65.16 42.36 65.04 42.02 64.85 41.52 64.43 41.45 64.37 40.9 63.82 40.88 63.81 40.32 63.25 40.27 63.21 39.75 62.73 39.58 62.6 39.18 62.26 38.82 61.99 38.61 61.81 38.08 61.38 38.04 61.34 37.48 60.79 37.45 60.76 36.91 60.19 36.88 60.15 36.34 59.59 36.29 59.54 35.77 58.98 35.73 58.93 35.28 58.32 35.2 58.18 34.97 57.71 34.73 57.1 34.64 56.87 34.49 56.49 34.19 55.88 34.07 55.69 33.76 55.27 33.5 54.94 33.23 54.65 32.93 54.29 32.74 54.04 32.45 53.43 32.36 53.1 32.3 52.82 32.25 52.21 32.21 51.6 32.18 50.99 32.11 50.38 32.01 49.77 31.89 49.16 31.79 48.62 31.78 48.55 31.69 47.93 31.65 47.32 31.66 46.71 31.72 46.1 31.79 45.57 31.81 45.49 31.9 44.88 31.99 44.27 32.06 43.66 32.1 43.05 32.14 42.44 32.19 41.82 32.24 41.21 32.31 40.6 32.36 40.26 32.41 39.99 32.57 39.38 32.81 38.77 32.93 38.53 33.16 38.16 33.5 37.65 33.57 37.55 33.91 36.94 34.07 36.54 34.14 36.33 34.25 35.72 34.32 35.1 34.38 34.49 34.49 33.88 34.64 33.35 34.66 33.27 34.92 32.66 35.2 32.13 35.25 32.05 35.71 31.44 35.77 31.37 36.34 30.83 36.34 30.82 36.91 30.41 37.19 30.22 37.48 30.04 38.04 29.72 38.26 29.61 38.61 29.44 39.18 29.21 39.75 29.02 39.82 28.99 40.32 28.84 40.88 28.65 41.45 28.41 41.51 28.38 42.02 28.13 42.59 27.81 42.66 27.77 43.16 27.47 43.67 27.16 43.72 27.12 44.29 26.77 44.63 26.55 44.86 26.41 45.43 26.08 45.68 25.94 46 25.79 46.57 25.57 47.13 25.42 47.7 25.33 47.79 25.33 48.27 25.31 48.84 25.32 49.33 25.33 49.41 25.33 49.45 25.33 49.97 25.31 50.54 25.25 51.11 25.15 51.68 25.05 52.25 24.98 52.81 25.03 53.38 25.23 53.54 25.33 53.95 25.61 54.36 25.94 54.52 26.07 55.09 26.53 55.12 26.55 55.65 26.89 56.2 27.16 56.22 27.17 56.79 27.36 57.36 27.51 57.93 27.65 58.31 27.77 58.49 27.83 59.06 28.04 59.63 28.29 59.81 28.38 60.2 28.58 60.77 28.9 60.92 28.99 61.34 29.32 61.63 29.61 61.9 29.99 62.03 30.22 62.28 30.83 62.47 31.4 62.48 31.44 62.73 32.05 63.04 32.6 63.08 32.66 63.61 33.22 63.66 33.27 64.18 33.74 64.3 33.88 64.74 34.43 64.78 34.49 65.12 35.1 65.31 35.48 65.42 35.72 65.72 36.33 65.88 36.62 66.06 36.94 66.39 37.55 66.45 37.67 66.66 38.16 66.82 38.77 66.87 39.38 66.82 39.99 66.71 40.6 66.55 41.21 66.45 41.54 66.35 41.82 66.15 42.44 65.96 43.05 65.88 43.32 65.78 43.66 65.63 44.27 65.47 44.88 65.31 45.4 65.29 45.49 65.08 46.1 64.84 46.71 64.74 46.92 64.57 47.32 64.29 47.93 64.18 48.16 63.97 48.55 63.61 49.16 63.61 49.16 63.16 49.77 63.04 49.91 62.59 50.38 62.47 50.5 61.96 50.99 61.9 51.04 61.34 51.59 61.33 51.6 60.77 52.14 60.69 52.21 60.2 52.63 59.94 52.82 59.63 53.03 59.06 53.38 58.98 53.43 58.49 53.72 58 54.04 57.93 54.09 57.36 54.5 57.16 54.65 56.79 54.97 56.41 55.27 56.22 55.43 55.65 55.82 55.52 55.88 55.09 56.06 54.52 56.13 53.95 56.08 53.38 55.96 53.09 55.88 52.81 55.8 52.25 55.64 51.68 55.45 51.21 55.27 51.11 55.23 50.54 54.99 49.97 54.72 49.84 54.65 49.41 54.45 48.84 54.2 48.48 54.04 48.27 53.94 47.7 53.68 47.24 53.43 47.13 53.36 46.57 52.91 46.48 52.82 46 52.26 45.96 52.21 45.5 51.6 45.43 51.52 44.99 50.99 44.86 50.84 44.43 50.38 44.29 50.24 43.82 49.77 43.72 49.66 43.29 49.16 43.16 48.97 42.89 48.55 42.63 47.93 42.59 47.79 42.48 47.32 42.42 46.71 42.45 46.1 42.53 45.49 42.59 45.25 42.67 44.88 42.85 44.27 43.06 43.66 43.16 43.4 43.3 43.05 43.58 42.44 43.72 42.16 43.9 41.82 44.26 41.21 44.29 41.16 44.63 40.6 44.86 40.26 45.03 39.99 45.43 39.42 45.46 39.38 45.94 38.77 46 38.7 46.55 38.16 46.57 38.15 47.13 37.76 47.61 37.55 47.7 37.51 48.27 37.41 48.84 37.42 49.41 37.52 49.49 37.55 49.97 37.68 50.54 37.87 51.11 38.08 51.29 38.16 51.68 38.34 52.25 38.65 52.44 38.77 52.81 39.02 53.28 39.38 53.38 39.47 53.95 39.98 53.96 39.99 54.49 40.6 54.52 40.66 54.83 41.21 55 41.82 54.98 42.44 54.79 43.05 54.52 43.44 54.28 43.66 53.95 43.86 53.38 43.99 52.81 43.97 52.25 43.84 51.68 43.66 51.68 43.66 51.11 43.48 50.54 43.35 49.97 43.32 49.41 43.45 49.07 43.66 48.84 43.87 48.57 44.27 48.37 44.88 48.36 45.49 48.52 46.1 48.84 46.66 48.87 46.71 49.39 47.32 49.41 47.33 49.97 47.85 50.08 47.93 50.54 48.29 50.92 48.55 51.11 48.67 51.68 48.98 52.07 49.16 52.25 49.24 52.81 49.45 53.38 49.63 53.87 49.77 53.95 49.79 54.52 49.89 55.09 49.91 55.65 49.8 55.74 49.77 56.22 49.56 56.79 49.17 56.81 49.16 57.36 48.61 57.42 48.55 57.9 47.93 57.93 47.9 58.32 47.32 58.49 47.06 58.72 46.71 59.06 46.16 59.1 46.1 59.45 45.49 59.63 45.16 59.78 44.88 60.05 44.27 60.2 43.92 60.3 43.66 60.51 43.05 60.68 42.44 60.77 42.06 60.82 41.82 60.91 41.21 60.93 40.6 60.88 39.99 60.77 39.53 60.73 39.38 60.47 38.77 60.2 38.34 60.07 38.16 59.63 37.65 59.53 37.55 59.06 37.07 58.93 36.94 58.49 36.47 58.36 36.33 57.93 35.79 57.86 35.72 57.39 35.1 57.36 35.05 56.87 34.49 56.79 34.4 56.22 33.95 56.11 33.88 55.65 33.63 55.09 33.37 54.87 33.27 54.52 33.12 53.95 32.86 53.52 32.66 53.38 32.6 52.81 32.33 52.25 32.09 52.15 32.05 51.68 31.86 51.11 31.68 50.54 31.51 50.27 31.44 49.97 31.36 49.41 31.24 48.84 31.19 48.27 31.26 47.84 31.44 47.7 31.49 47.13 31.88 46.94 32.05 46.57 32.35 46.19 32.66 46 32.81 45.43 33.22 45.35 33.27 44.86 33.59 44.38 33.88 44.29 33.93 43.72 34.29 43.42 34.49 43.16 34.69 42.67 35.1 42.59 35.17 42.03 35.72 42.02 35.72 41.45 36.28 41.4 36.33 40.88 36.82 40.77 36.94 40.32 37.41 40.2 37.55 39.75 38.15 39.74 38.16 39.38 38.77 39.18 39.15 39.07 39.38 38.79 39.99 38.61 40.39 38.52 40.6 38.28 41.21 38.07 41.82 38.04 41.91 37.89 42.44 37.73 43.05 37.57 43.66 37.48 44 37.4 44.27 37.21 44.88 37 45.49 36.91 45.78 36.81 46.1 36.65 46.71 36.53 47.32 36.49 47.93 36.54 48.55 36.7 49.16 36.91 49.64 36.97 49.77 37.3 50.38 37.48 50.7 37.63 50.99 37.94 51.6 38.04 51.83 38.24 52.21 38.57 52.82 38.61 52.89 39.05 53.43 39.18 53.57 39.7 54.04 39.75 54.09 40.27 54.65 40.32 54.71 40.63 55.27 40.87 55.88 40.88 55.91 41.07 56.49 41.32 57.1 41.45 57.32 41.72 57.71 42.02 58 42.43 58.32 42.59 58.42 43.16 58.73 43.54 58.93 43.72 59.02 44.29 59.27 44.86 59.49 45.04 59.54 45.43 59.66 46 59.8 46.57 59.95 47.13 60.14 47.15 60.15 47.7 60.42 48.23 60.76 48.27 60.79 48.84 61.24 49 61.38 49.41 61.71 49.82 61.99 49.97 62.08 50.54 62.29 51.11 62.33 51.68 62.27 52.25 62.16 52.81 62.06 53.38 62 53.91 61.99 53.95 61.98 54.03 61.99 54.52 61.99 55.09 62.01 55.57 61.99 55.65 61.98 56.22 61.9 56.79 61.75 57.36 61.53 57.67 61.38 57.93 61.24 58.49 60.91 58.73 60.76 59.06 60.55 59.63 60.19 59.69 60.15 60.2 59.84 60.7 59.54 60.77 59.5 61.34 59.18 61.84 58.93 61.9 58.9 62.47 58.67 63.04 58.48 63.53 58.32 63.61 58.3 64.18 58.1 64.74 57.87 65.09 57.71 65.31 57.59 65.88 57.27 66.17 57.1 66.45 56.91 67.02 56.49 67.02 56.49 67.58 55.95 67.64 55.88 68.1 55.27 68.15 55.19 68.44 54.65 68.7 54.04 68.72 53.96 68.87 53.43 68.97 52.82 69.04 52.21 69.1 51.6 69.22 50.99 69.29 50.78 69.44 50.38 69.79 49.77 69.86 49.67 70.2 49.16 70.42 48.79 70.55 48.55 70.78 47.93 70.94 47.32 70.99 47.06 71.05 46.71 71.12 46.1 71.17 45.49 71.21 44.88 71.25 44.27 71.3 43.66 71.37 43.05 71.45 42.44 71.55 41.82 71.56 41.74 71.64 41.21 71.69 40.6 71.7 39.99 71.66 39.38 71.58 38.77 71.56 38.7 71.46 38.16 71.34 37.55 71.25 36.94 71.18 36.33 71.14 35.72 71.11 35.1 71.05 34.49 70.99 34.22 70.91 33.88 70.61 33.27 70.42 33.03 70.12 32.66 69.86 32.37 69.59 32.05 69.29 31.63 69.17 31.44 68.87 30.83 68.72 30.45 68.63 30.22 68.39 29.61 68.15 29.13 68.07 28.99 67.62 28.38 67.58 28.34 67.06 27.77 67.02 27.73 66.48 27.16 66.45 27.13 65.91 26.55 65.88 26.52 65.31 25.97 65.27 25.94 64.74 25.5 64.54 25.33 64.18 25.05 63.78 24.72 63.61 24.58 63.08 24.11 63.04 24.06 62.47 23.51 62.46 23.5 61.9 22.94 61.83 22.88 61.34 22.47 60.99 22.27 60.77 22.15 60.2 21.94 59.63 21.79 59.09 21.66 59.06 21.66 58.49 21.51 57.93 21.33 57.36 21.09 57.29 21.05 56.79 20.82 56.22 20.55 55.99 20.44 55.65 20.29 55.09 20.05 54.52 19.85 54.46 19.83 53.95 19.67 53.38 19.55 52.81 19.5 52.25 19.5 51.68 19.54 51.11 19.59 50.54 19.65 49.97 19.7 49.41 19.76 48.84 19.79 48.27 19.81 47.7 19.79 47.13 19.76 46.57 19.71 46 19.63 45.43 19.51 44.86 19.34 44.49 19.22 44.29 19.15 43.72 19.05 43.16 19.11 42.91 19.22 42.59 19.35 42.02 19.7 41.83 19.83 41.45 20.09 40.94 20.44 40.88 20.48 40.32 20.86 39.98 21.05 39.75 21.2 39.18 21.49 38.77 21.66 38.61 21.74 38.04 21.96 37.48 22.14 37.07 22.27 36.91 22.34 36.34 22.64 36.03 22.88 35.77 23.13 35.49 23.5 35.2 23.93 35.11 24.11 34.84 24.72 34.64 25.31 34.63 25.33 34.46 25.94 34.27 26.55 34.07 27.05 34.02 27.16 33.65 27.77 33.5 27.94 33.07 28.38 32.93 28.49 32.36 28.92 32.25 28.99 31.79 29.3 31.3 29.61 31.23 29.66 30.66 30.03 30.36 30.22 30.09 30.49 29.78 30.83 29.54 31.44 29.52 31.52 29.41 32.05 29.28 32.66 29.13 33.27 28.95 33.8 28.93 33.88 28.69 34.49 28.44 35.1 28.39 35.23 28.17 35.72 27.91 36.33 27.82 36.55 27.65 36.94 27.41 37.55 27.25 37.98 27.18 38.16 26.95 38.77 26.72 39.38 26.68 39.47 26.46 39.99 26.2 40.6 26.11 40.82 25.95 41.21 25.78 41.82 25.72 42.44 25.78 43.05 25.94 43.66 26.11 44.16 26.15 44.27 26.37 44.88 26.54 45.49 26.63 46.1 26.64 46.71 26.58 47.32 26.48 47.93 26.33 48.55 26.15 49.16 26.11 49.29 25.97 49.77 25.78 50.38 25.63 50.99 25.55 51.6 25.58 52.21 25.77 52.82 26.09 53.43 26.11 53.47 26.42 54.04 26.68 54.49 26.77 54.65 27.08 55.27 27.25 55.62 27.38 55.88 27.66 56.49 27.82 56.88 27.92 57.1 28.16 57.71 28.39 58.28 28.4 58.32 28.66 58.93 28.95 59.54 28.95 59.55 29.25 60.15 29.52 60.66 29.57 60.76 29.91 61.38 30.09 61.68 30.29 61.99 30.66 62.51 30.74 62.6 31.23 63.08 31.4 63.21 31.79 63.47 32.36 63.78 32.44 63.82 32.93 64.09 33.45 64.43 33.5 64.46 34.07 64.97 34.14 65.04 34.59 65.65 34.64 65.72 34.93 66.26 35.2 66.81 35.24 66.87 35.59 67.48 35.77 67.74 36.12 68.1 36.34 68.29 36.91 68.58 37.48 68.69 38.04 68.68 38.61 68.65 39.04 68.71 39.18 68.73 39.75 69.29 39.76 69.32 39.99 69.93 40.24 70.54 40.32 70.67 40.57 71.15 40.88 71.55 41.07 71.76 41.45 72.08 41.91 72.37 42.02 72.43 42.59 72.68 43.16 72.84 43.72 72.93 44.29 72.97 44.86 72.95 45.43 72.9 46 72.82 46.57 72.74 47.13 72.68 47.7 72.66 48.27 72.77 48.65 72.98 48.84 73.13 49.21 73.59 49.41 73.88 49.64 74.21 49.97 74.6 50.3 74.82 50.54 74.93 51.11 75.02 51.68 74.98 52.25 74.87 52.44 74.82 52.81 74.69 53.38 74.44 53.85 74.21 53.95 74.14 54.52 73.91 55.09 73.85 55.65 73.95 56.22 74.12 56.53 74.21 56.79 74.27 57.36 74.35 57.93 74.34 58.49 74.23 58.58 74.21 59.06 74.06 59.63 73.88 60.2 73.73 60.77 73.65 61.34 73.61 61.9 73.61 62.47 73.62 63.04 73.64 63.61 73.63 64.05 73.59 64.18 73.58 64.74 73.46 65.31 73.22 65.7 72.98 65.88 72.85 66.4 72.37 66.45 72.32 66.94 71.76 67.02 71.68 67.48 71.15 67.58 71.04 68.07 70.54 68.15 70.46 68.72 70.01 68.89 69.93 69.29 69.74 69.86 69.64 70.42 69.67 70.99 69.73 71.56 69.7 72.13 69.46 72.28 69.32 72.7 68.92 72.86 68.71 73.27 68.21 73.35 68.1 73.83 67.53 73.87 67.48 74.4 66.9 74.43 66.87 74.96 66.26 74.97 66.25 75.37 65.65 75.54 65.36 75.7 65.04 75.94 64.43 76.11 63.91 76.13 63.82 76.31 63.21 76.47 62.6 76.61 61.99 76.67 61.64 76.73 61.38 76.83 60.76 76.9 60.15 77.02 59.54 77.24 59.14 77.49 58.93 77.81 58.79 78.38 58.54 78.76 58.32 78.95 58.23 79.51 57.81 79.62 57.71 80.08 57.24 80.19 57.1 80.61 56.49 80.65 56.42 80.92 55.88 81.2 55.27 81.22 55.22 81.47 54.65 81.77 54.04 81.79 54.01 82.08 53.43 82.35 52.95 82.42 52.82 82.75 52.21 82.92 51.88 83.06 51.6 83.32 50.99 83.49 50.48 83.52 50.38 83.64 49.77 83.66 49.16 83.59 48.55 83.49 48.18 83.42 47.93 83.19 47.32 82.95 46.71 82.92 46.62 82.75 46.1 82.69 45.49 82.81 44.88 82.92 44.63 83.09 44.27 83.45 43.66 83.49 43.58 83.76 43.05 83.94 42.44 83.97 41.82 83.88 41.21 83.71 40.6 83.53 39.99 83.49 39.84 83.39 39.38 83.31 38.77 83.25 38.16 83.19 37.55 83.11 36.94 82.98 36.33 82.92 36.16 82.73 35.72 82.37 35.1 82.35 35.07 81.95 34.49 81.79 34.09 81.7 33.88 81.7 33.27 81.79 32.8 81.81 32.66 81.93 32.05 81.97 31.44 81.91 30.83 81.79 30.36 81.75 30.22 81.52 29.61 81.26 28.99 81.22 28.9 81 28.38 80.78 27.77 80.65 27.28 80.61 27.16 80.43 26.55 80.18 25.94 80.08 25.77 79.75 25.33 79.51 25.1 79.14 24.72 78.95 24.53 78.59 24.11 78.38 23.86 78.13 23.5 77.81 23.04 77.71 22.88 77.24 22.29 77.23 22.27 76.67 21.73 76.59 21.66 76.11 21.29 75.78 21.05 75.54 20.85 75.13 20.44 74.97 20.21 74.76 19.83 74.55 19.22 74.44 18.61 74.4 18.27 74.37 18 74.29 17.39 74.16 16.78 73.95 16.16 73.83 15.92 73.58 15.55 73.27 15.21 72.9 14.94 72.7 14.82 72.13 14.56 71.56 14.36 71.47 14.33 70.99 14.22 70.42 14.09 69.86 13.97 69.29 13.82 69.01 13.72 68.72 13.61 68.15 13.32 67.87 13.11 67.58 12.84 67.28 12.5 67.02 12.08 66.9 11.89 66.59 11.28 66.45 10.98 66.28 10.67 65.88 10.07 65.87 10.05 65.31 9.48 65.28 9.44 64.74 9.01 64.54 8.83 64.18 8.56 63.75 8.22 63.61 8.12 63.04 7.72 62.85 7.61 62.47 7.39 61.9 7.17 61.34 7.1 60.77 7.18 60.2 7.37 59.7 7.61 59.63 7.65 59.06 7.93 58.49 8.2 58.43 8.22 57.93 8.41 57.36 8.59 56.79 8.75 56.5 8.83 56.22 8.91 55.65 9.05 55.09 9.12 54.52 9.02 54.27 8.83 53.95 8.57 53.72 8.22 53.38 7.74 53.31 7.61 52.88 7" class="geometry color_" stroke="#004D84"/>
        <path fill="none" d="M29.82,7 L 30.09 7.12 30.66 7.1 31.05 7" class="geometry color_" stroke="#004D84"/>
        <path fill="none" d="M27.99,80.32 L 28.03 79.7 27.96 79.09 27.86 78.48 27.82 78.23 27.74 77.87 27.55 77.26 27.25 76.7 27.06 76.65 26.68 76.58 26.52 76.65 26.11 76.81 25.55 77.18 25.44 77.26 24.98 77.62 24.7 77.87 24.41 78.16 24.14 78.48 23.84 78.93 23.75 79.09 23.48 79.7 23.27 80.3 23.27 80.32" class="geometry color_" stroke="#004D84"/>
        <path fill="none" d="M75.37,7 L 75.32 7.61 75.39 8.22 75.49 8.83 75.54 9.09 75.62 9.44 75.81 10.05 76.11 10.61 76.29 10.67 76.67 10.74 76.83 10.67 77.24 10.51 77.81 10.14 77.92 10.05 78.38 9.7 78.66 9.44 78.95 9.16 79.22 8.83 79.51 8.39 79.6 8.22 79.88 7.61 80.08 7.01 80.09 7" class="geometry color_" stroke="#004D84"/>
        <path fill="none" d="M85.76,75.64 L 85.2 76.03 85.18 76.04 84.63 76.31 84.06 76.61 83.97 76.65 83.49 76.8 82.92 76.88 82.35 76.86 81.79 76.76 81.42 76.65 81.22 76.55 80.68 76.04 80.65 75.84 80.61 75.43 80.65 75.27 80.77 74.82 81.14 74.21 81.22 74.13 81.79 73.79 82.35 73.68 82.92 73.73 83.49 73.84 84.06 73.95 84.63 74.04 85.2 74.12 85.59 74.21 85.76 74.3" class="geometry color_" stroke="#004D84"/>
        <path fill="none" d="M17.59,11.68 L 18.16 11.28 18.17 11.28 18.73 11 19.3 10.7 19.39 10.67 19.86 10.51 20.43 10.43 21 10.45 21.57 10.55 21.94 10.67 22.14 10.77 22.68 11.28 22.71 11.47 22.75 11.89 22.71 12.04 22.58 12.5 22.21 13.11 22.14 13.18 21.57 13.52 21 13.63 20.43 13.59 19.86 13.48 19.3 13.37 18.73 13.28 18.16 13.2 17.77 13.11 17.59 13.02" class="geometry color_" stroke="#004D84"/>
        <path fill="none" d="M73.54,80.32 L 73.27 80.2 72.7 80.22 72.31 80.32" class="geometry color_" stroke="#004D84"/>
      </g>
    </g>
  </g>
</g>
  <g class="guide ylabels" font-size="2.82" font-family="'PT Sans Caption','Helvetica Neue','Helvetica',sans-serif" fill="#6C606B" id="img-6003b177-22">
    <text x="14.59" y="80.32" text-anchor="end" dy="0.35em">-6</text>
    <text x="14.59" y="68.1" text-anchor="end" dy="0.35em">-4</text>
    <text x="14.59" y="55.88" text-anchor="end" dy="0.35em">-2</text>
    <text x="14.59" y="43.66" text-anchor="end" dy="0.35em">0</text>
    <text x="14.59" y="31.44" text-anchor="end" dy="0.35em">2</text>
    <text x="14.59" y="19.22" text-anchor="end" dy="0.35em">4</text>
    <text x="14.59" y="7" text-anchor="end" dy="0.35em">6</text>
  </g>
  <g font-size="3.88" font-family="'PT Sans','Helvetica Neue','Helvetica',sans-serif" fill="#564A55" stroke="#000000" stroke-opacity="0.000" id="img-6003b177-23">
    <text x="8.81" y="43.66" text-anchor="end" dy="0.35em">y</text>
  </g>
</g>
<defs>
  <clipPath id="img-6003b177-9">
  <path d="M15.59,5 L 87.76 5 87.76 82.32 15.59 82.32" />
</clipPath>
  <g id="img-6003b177-17">
    <circle cx="0" cy="0" r="0.9"/>
  </g>
  <g id="img-6003b177-20">
    <circle cx="0" cy="0" r="0.9"/>
  </g>
</defs>
</svg>
