<?xml version="1.0" encoding="UTF-8"?>
<svg xmlns="http://www.w3.org/2000/svg"
     xmlns:xlink="http://www.w3.org/1999/xlink"
     version="1.2"
     width="60mm" height="60mm" viewBox="0 0 60 60"
     stroke="none"
     fill="#000000"
     stroke-width="0.3"
     font-size="3.88"
>
<g fill="#FFFF00" id="img-89e702b4-1">
  <rect x="57" y="57" width="3" height="3"/>
</g>
<g fill="#FFFF00" id="img-89e702b4-2">
  <rect x="54" y="57" width="3" height="3"/>
</g>
<g fill="#FFFF00" id="img-89e702b4-3">
  <rect x="51" y="57" width="3" height="3"/>
</g>
<g fill="#FFFF00" id="img-89e702b4-4">
  <rect x="48" y="57" width="3" height="3"/>
</g>
<g fill="#FFFF00" id="img-89e702b4-5">
  <rect x="45" y="57" width="3" height="3"/>
</g>
<g fill="#FFFD00" id="img-89e702b4-6">
  <rect x="42" y="57" width="3" height="3"/>
</g>
<g fill="#FFD700" id="img-89e702b4-7">
  <rect x="39" y="57" width="3" height="3"/>
</g>
<g fill="#FF0300" id="img-89e702b4-8">
  <rect x="36" y="57" width="3" height="3"/>
</g>
<g fill="#FF0000" id="img-89e702b4-9">
  <rect x="33" y="57" width="3" height="3"/>
</g>
<g fill="#FF0000" id="img-89e702b4-10">
  <rect x="30" y="57" width="3" height="3"/>
</g>
<g fill="#FF0000" id="img-89e702b4-11">
  <rect x="27" y="57" width="3" height="3"/>
</g>
<g fill="#FF0000" id="img-89e702b4-12">
  <rect x="24" y="57" width="3" height="3"/>
</g>
<g fill="#FF0000" id="img-89e702b4-13">
  <rect x="21" y="57" width="3" height="3"/>
</g>
<g fill="#804000" id="img-89e702b4-14">
  <rect x="18" y="57" width="3" height="3"/>
</g>
<g fill="#008000" id="img-89e702b4-15">
  <rect x="15" y="57" width="3" height="3"/>
</g>
<g fill="#008000" id="img-89e702b4-16">
  <rect x="12" y="57" width="3" height="3"/>
</g>
<g fill="#008000" id="img-89e702b4-17">
  <rect x="9" y="57" width="3" height="3"/>
</g>
<g fill="#008000" id="img-89e702b4-18">
  <rect x="6" y="57" width="3" height="3"/>
</g>
<g fill="#008000" id="img-89e702b4-19">
  <rect x="3" y="57" width="3" height="3"/>
</g>
<g fill="#008000" id="img-89e702b4-20">
  <rect x="0" y="57" width="3" height="3"/>
</g>
<g fill="#FFFF00" id="img-89e702b4-21">
  <rect x="57" y="54" width="3" height="3"/>
</g>
<g fill="#FFFF00" id="img-89e702b4-22">
  <rect x="54" y="54" width="3" height="3"/>
</g>
<g fill="#FFFF00" id="img-89e702b4-23">
  <rect x="51" y="54" width="3" height="3"/>
</g>
<g fill="#FFFF00" id="img-89e702b4-24">
  <rect x="48" y="54" width="3" height="3"/>
</g>
<g fill="#FFDB00" id="img-89e702b4-25">
  <rect x="45" y="54" width="3" height="3"/>
</g>
<g fill="#FFC100" id="img-89e702b4-26">
  <rect x="42" y="54" width="3" height="3"/>
</g>
<g fill="#FFB200" id="img-89e702b4-27">
  <rect x="39" y="54" width="3" height="3"/>
</g>
<g fill="#FF7100" id="img-89e702b4-28">
  <rect x="36" y="54" width="3" height="3"/>
</g>
<g fill="#FF4200" id="img-89e702b4-29">
  <rect x="33" y="54" width="3" height="3"/>
</g>
<g fill="#FF0000" id="img-89e702b4-30">
  <rect x="30" y="54" width="3" height="3"/>
</g>
<g fill="#FF0000" id="img-89e702b4-31">
  <rect x="27" y="54" width="3" height="3"/>
</g>
<g fill="#FF0000" id="img-89e702b4-32">
  <rect x="24" y="54" width="3" height="3"/>
</g>
<g fill="#FF0000" id="img-89e702b4-33">
  <rect x="21" y="54" width="3" height="3"/>
</g>
<g fill="#804000" id="img-89e702b4-34">
  <rect x="18" y="54" width="3" height="3"/>
</g>
<g fill="#008000" id="img-89e702b4-35">
  <rect x="15" y="54" width="3" height="3"/>
</g>
<g fill="#008000" id="img-89e702b4-36">
  <rect x="12" y="54" width="3" height="3"/>
</g>
<g fill="#008000" id="img-89e702b4-37">
  <rect x="9" y="54" width="3" height="3"/>
</g>
<g fill="#008000" id="img-89e702b4-38">
  <rect x="6" y="54" width="3" height="3"/>
</g>
<g fill="#008000" id="img-89e702b4-39">
  <rect x="3" y="54" width="3" height="3"/>
</g>
<g fill="#008000" id="img-89e702b4-40">
  <rect x="0" y="54" width="3" height="3"/>
</g>
<g fill="#FFFF00" id="img-89e702b4-41">
  <rect x="57" y="51" width="3" height="3"/>
</g>
<g fill="#FFFF00" id="img-89e702b4-42">
  <rect x="54" y="51" width="3" height="3"/>
</g>
<g fill="#FFFF00" id="img-89e702b4-43">
  <rect x="51" y="51" width="3" height="3"/>
</g>
<g fill="#FFFF00" id="img-89e702b4-44">
  <rect x="48" y="51" width="3" height="3"/>
</g>
<g fill="#FFC400" id="img-89e702b4-45">
  <rect x="45" y="51" width="3" height="3"/>
</g>
<g fill="#FFA600" id="img-89e702b4-46">
  <rect x="42" y="51" width="3" height="3"/>
</g>
<g fill="#FFA500" id="img-89e702b4-47">
  <rect x="39" y="51" width="3" height="3"/>
</g>
<g fill="#FFA300" id="img-89e702b4-48">
  <rect x="36" y="51" width="3" height="3"/>
</g>
<g fill="#FF6C00" id="img-89e702b4-49">
  <rect x="33" y="51" width="3" height="3"/>
</g>
<g fill="#FF0000" id="img-89e702b4-50">
  <rect x="30" y="51" width="3" height="3"/>
</g>
<g fill="#FF0000" id="img-89e702b4-51">
  <rect x="27" y="51" width="3" height="3"/>
</g>
<g fill="#FF0000" id="img-89e702b4-52">
  <rect x="24" y="51" width="3" height="3"/>
</g>
<g fill="#FF0000" id="img-89e702b4-53">
  <rect x="21" y="51" width="3" height="3"/>
</g>
<g fill="#804000" id="img-89e702b4-54">
  <rect x="18" y="51" width="3" height="3"/>
</g>
<g fill="#008000" id="img-89e702b4-55">
  <rect x="15" y="51" width="3" height="3"/>
</g>
<g fill="#008000" id="img-89e702b4-56">
  <rect x="12" y="51" width="3" height="3"/>
</g>
<g fill="#008000" id="img-89e702b4-57">
  <rect x="9" y="51" width="3" height="3"/>
</g>
<g fill="#008000" id="img-89e702b4-58">
  <rect x="6" y="51" width="3" height="3"/>
</g>
<g fill="#008000" id="img-89e702b4-59">
  <rect x="3" y="51" width="3" height="3"/>
</g>
<g fill="#008000" id="img-89e702b4-60">
  <rect x="0" y="51" width="3" height="3"/>
</g>
<g fill="#FFFF00" id="img-89e702b4-61">
  <rect x="57" y="48" width="3" height="3"/>
</g>
<g fill="#FFFF00" id="img-89e702b4-62">
  <rect x="54" y="48" width="3" height="3"/>
</g>
<g fill="#FFFF00" id="img-89e702b4-63">
  <rect x="51" y="48" width="3" height="3"/>
</g>
<g fill="#FFFF00" id="img-89e702b4-64">
  <rect x="48" y="48" width="3" height="3"/>
</g>
<g fill="#FFC400" id="img-89e702b4-65">
  <rect x="45" y="48" width="3" height="3"/>
</g>
<g fill="#FFA600" id="img-89e702b4-66">
  <rect x="42" y="48" width="3" height="3"/>
</g>
<g fill="#FFA500" id="img-89e702b4-67">
  <rect x="39" y="48" width="3" height="3"/>
</g>
<g fill="#FFA300" id="img-89e702b4-68">
  <rect x="36" y="48" width="3" height="3"/>
</g>
<g fill="#FF6C00" id="img-89e702b4-69">
  <rect x="33" y="48" width="3" height="3"/>
</g>
<g fill="#FF0000" id="img-89e702b4-70">
  <rect x="30" y="48" width="3" height="3"/>
</g>
<g fill="#FF0000" id="img-89e702b4-71">
  <rect x="27" y="48" width="3" height="3"/>
</g>
<g fill="#FF0000" id="img-89e702b4-72">
  <rect x="24" y="48" width="3" height="3"/>
</g>
<g fill="#FF0000" id="img-89e702b4-73">
  <rect x="21" y="48" width="3" height="3"/>
</g>
<g fill="#804000" id="img-89e702b4-74">
  <rect x="18" y="48" width="3" height="3"/>
</g>
<g fill="#008000" id="img-89e702b4-75">
  <rect x="15" y="48" width="3" height="3"/>
</g>
<g fill="#008000" id="img-89e702b4-76">
  <rect x="12" y="48" width="3" height="3"/>
</g>
<g fill="#008000" id="img-89e702b4-77">
  <rect x="9" y="48" width="3" height="3"/>
</g>
<g fill="#008000" id="img-89e702b4-78">
  <rect x="6" y="48" width="3" height="3"/>
</g>
<g fill="#008000" id="img-89e702b4-79">
  <rect x="3" y="48" width="3" height="3"/>
</g>
<g fill="#008000" id="img-89e702b4-80">
  <rect x="0" y="48" width="3" height="3"/>
</g>
<g fill="#FFFF00" id="img-89e702b4-81">
  <rect x="57" y="45" width="3" height="3"/>
</g>
<g fill="#FFFF00" id="img-89e702b4-82">
  <rect x="54" y="45" width="3" height="3"/>
</g>
<g fill="#FFFF00" id="img-89e702b4-83">
  <rect x="51" y="45" width="3" height="3"/>
</g>
<g fill="#FFC400" id="img-89e702b4-84">
  <rect x="48" y="45" width="3" height="3"/>
</g>
<g fill="#FFA500" id="img-89e702b4-85">
  <rect x="45" y="45" width="3" height="3"/>
</g>
<g fill="#FFA500" id="img-89e702b4-86">
  <rect x="42" y="45" width="3" height="3"/>
</g>
<g fill="#FFA500" id="img-89e702b4-87">
  <rect x="39" y="45" width="3" height="3"/>
</g>
<g fill="#FFA500" id="img-89e702b4-88">
  <rect x="36" y="45" width="3" height="3"/>
</g>
<g fill="#FF6C00" id="img-89e702b4-89">
  <rect x="33" y="45" width="3" height="3"/>
</g>
<g fill="#FF0000" id="img-89e702b4-90">
  <rect x="30" y="45" width="3" height="3"/>
</g>
<g fill="#FF0000" id="img-89e702b4-91">
  <rect x="27" y="45" width="3" height="3"/>
</g>
<g fill="#FF0000" id="img-89e702b4-92">
  <rect x="24" y="45" width="3" height="3"/>
</g>
<g fill="#FF0000" id="img-89e702b4-93">
  <rect x="21" y="45" width="3" height="3"/>
</g>
<g fill="#804000" id="img-89e702b4-94">
  <rect x="18" y="45" width="3" height="3"/>
</g>
<g fill="#008000" id="img-89e702b4-95">
  <rect x="15" y="45" width="3" height="3"/>
</g>
<g fill="#008000" id="img-89e702b4-96">
  <rect x="12" y="45" width="3" height="3"/>
</g>
<g fill="#008000" id="img-89e702b4-97">
  <rect x="9" y="45" width="3" height="3"/>
</g>
<g fill="#008000" id="img-89e702b4-98">
  <rect x="6" y="45" width="3" height="3"/>
</g>
<g fill="#008000" id="img-89e702b4-99">
  <rect x="3" y="45" width="3" height="3"/>
</g>
<g fill="#008000" id="img-89e702b4-100">
  <rect x="0" y="45" width="3" height="3"/>
</g>
<g fill="#FFFF00" id="img-89e702b4-101">
  <rect x="57" y="42" width="3" height="3"/>
</g>
<g fill="#FFFF00" id="img-89e702b4-102">
  <rect x="54" y="42" width="3" height="3"/>
</g>
<g fill="#FFFD00" id="img-89e702b4-103">
  <rect x="51" y="42" width="3" height="3"/>
</g>
<g fill="#FFA600" id="img-89e702b4-104">
  <rect x="48" y="42" width="3" height="3"/>
</g>
<g fill="#FFA500" id="img-89e702b4-105">
  <rect x="45" y="42" width="3" height="3"/>
</g>
<g fill="#FFA500" id="img-89e702b4-106">
  <rect x="42" y="42" width="3" height="3"/>
</g>
<g fill="#FFA500" id="img-89e702b4-107">
  <rect x="39" y="42" width="3" height="3"/>
</g>
<g fill="#FFA500" id="img-89e702b4-108">
  <rect x="36" y="42" width="3" height="3"/>
</g>
<g fill="#FFA300" id="img-89e702b4-109">
  <rect x="33" y="42" width="3" height="3"/>
</g>
<g fill="#FF0300" id="img-89e702b4-110">
  <rect x="30" y="42" width="3" height="3"/>
</g>
<g fill="#FF0000" id="img-89e702b4-111">
  <rect x="27" y="42" width="3" height="3"/>
</g>
<g fill="#FF0000" id="img-89e702b4-112">
  <rect x="24" y="42" width="3" height="3"/>
</g>
<g fill="#FE0000" id="img-89e702b4-113">
  <rect x="21" y="42" width="3" height="3"/>
</g>
<g fill="#804000" id="img-89e702b4-114">
  <rect x="18" y="42" width="3" height="3"/>
</g>
<g fill="#008000" id="img-89e702b4-115">
  <rect x="15" y="42" width="3" height="3"/>
</g>
<g fill="#008000" id="img-89e702b4-116">
  <rect x="12" y="42" width="3" height="3"/>
</g>
<g fill="#008000" id="img-89e702b4-117">
  <rect x="9" y="42" width="3" height="3"/>
</g>
<g fill="#008000" id="img-89e702b4-118">
  <rect x="6" y="42" width="3" height="3"/>
</g>
<g fill="#008000" id="img-89e702b4-119">
  <rect x="3" y="42" width="3" height="3"/>
</g>
<g fill="#008000" id="img-89e702b4-120">
  <rect x="0" y="42" width="3" height="3"/>
</g>
<g fill="#FFFF00" id="img-89e702b4-121">
  <rect x="57" y="39" width="3" height="3"/>
</g>
<g fill="#FFFE00" id="img-89e702b4-122">
  <rect x="54" y="39" width="3" height="3"/>
</g>
<g fill="#FFD800" id="img-89e702b4-123">
  <rect x="51" y="39" width="3" height="3"/>
</g>
<g fill="#FFA500" id="img-89e702b4-124">
  <rect x="48" y="39" width="3" height="3"/>
</g>
<g fill="#FFA500" id="img-89e702b4-125">
  <rect x="45" y="39" width="3" height="3"/>
</g>
<g fill="#FFA500" id="img-89e702b4-126">
  <rect x="42" y="39" width="3" height="3"/>
</g>
<g fill="#FFA500" id="img-89e702b4-127">
  <rect x="39" y="39" width="3" height="3"/>
</g>
<g fill="#FFA500" id="img-89e702b4-128">
  <rect x="36" y="39" width="3" height="3"/>
</g>
<g fill="#FFA500" id="img-89e702b4-129">
  <rect x="33" y="39" width="3" height="3"/>
</g>
<g fill="#FF4800" id="img-89e702b4-130">
  <rect x="30" y="39" width="3" height="3"/>
</g>
<g fill="#FE0000" id="img-89e702b4-131">
  <rect x="27" y="39" width="3" height="3"/>
</g>
<g fill="#FD0100" id="img-89e702b4-132">
  <rect x="24" y="39" width="3" height="3"/>
</g>
<g fill="#F20600" id="img-89e702b4-133">
  <rect x="21" y="39" width="3" height="3"/>
</g>
<g fill="#804000" id="img-89e702b4-134">
  <rect x="18" y="39" width="3" height="3"/>
</g>
<g fill="#018000" id="img-89e702b4-135">
  <rect x="15" y="39" width="3" height="3"/>
</g>
<g fill="#008000" id="img-89e702b4-136">
  <rect x="12" y="39" width="3" height="3"/>
</g>
<g fill="#008000" id="img-89e702b4-137">
  <rect x="9" y="39" width="3" height="3"/>
</g>
<g fill="#008000" id="img-89e702b4-138">
  <rect x="6" y="39" width="3" height="3"/>
</g>
<g fill="#008000" id="img-89e702b4-139">
  <rect x="3" y="39" width="3" height="3"/>
</g>
<g fill="#008000" id="img-89e702b4-140">
  <rect x="0" y="39" width="3" height="3"/>
</g>
<g fill="#FFFD00" id="img-89e702b4-141">
  <rect x="57" y="36" width="3" height="3"/>
</g>
<g fill="#FFF700" id="img-89e702b4-142">
  <rect x="54" y="36" width="3" height="3"/>
</g>
<g fill="#FFAD00" id="img-89e702b4-143">
  <rect x="51" y="36" width="3" height="3"/>
</g>
<g fill="#FFA500" id="img-89e702b4-144">
  <rect x="48" y="36" width="3" height="3"/>
</g>
<g fill="#FFA500" id="img-89e702b4-145">
  <rect x="45" y="36" width="3" height="3"/>
</g>
<g fill="#FFA500" id="img-89e702b4-146">
  <rect x="42" y="36" width="3" height="3"/>
</g>
<g fill="#FFA500" id="img-89e702b4-147">
  <rect x="39" y="36" width="3" height="3"/>
</g>
<g fill="#FFA500" id="img-89e702b4-148">
  <rect x="36" y="36" width="3" height="3"/>
</g>
<g fill="#FFA500" id="img-89e702b4-149">
  <rect x="33" y="36" width="3" height="3"/>
</g>
<g fill="#FF9700" id="img-89e702b4-150">
  <rect x="30" y="36" width="3" height="3"/>
</g>
<g fill="#F80202" id="img-89e702b4-151">
  <rect x="27" y="36" width="3" height="3"/>
</g>
<g fill="#E10708" id="img-89e702b4-152">
  <rect x="24" y="36" width="3" height="3"/>
</g>
<g fill="#552B2E" id="img-89e702b4-153">
  <rect x="21" y="36" width="3" height="3"/>
</g>
<g fill="#00008B" id="img-89e702b4-154">
  <rect x="18" y="36" width="3" height="3"/>
</g>
<g fill="#00008B" id="img-89e702b4-155">
  <rect x="15" y="36" width="3" height="3"/>
</g>
<g fill="#00008B" id="img-89e702b4-156">
  <rect x="12" y="36" width="3" height="3"/>
</g>
<g fill="#00008B" id="img-89e702b4-157">
  <rect x="9" y="36" width="3" height="3"/>
</g>
<g fill="#00008B" id="img-89e702b4-158">
  <rect x="6" y="36" width="3" height="3"/>
</g>
<g fill="#00008B" id="img-89e702b4-159">
  <rect x="3" y="36" width="3" height="3"/>
</g>
<g fill="#000684" id="img-89e702b4-160">
  <rect x="0" y="36" width="3" height="3"/>
</g>
<g fill="#FFC1C9" id="img-89e702b4-161">
  <rect x="57" y="33" width="3" height="3"/>
</g>
<g fill="#FFC0CB" id="img-89e702b4-162">
  <rect x="54" y="33" width="3" height="3"/>
</g>
<g fill="#FFC0CB" id="img-89e702b4-163">
  <rect x="51" y="33" width="3" height="3"/>
</g>
<g fill="#FFC0CB" id="img-89e702b4-164">
  <rect x="48" y="33" width="3" height="3"/>
</g>
<g fill="#FFC0CB" id="img-89e702b4-165">
  <rect x="45" y="33" width="3" height="3"/>
</g>
<g fill="#FFC0CB" id="img-89e702b4-166">
  <rect x="42" y="33" width="3" height="3"/>
</g>
<g fill="#FFC0CB" id="img-89e702b4-167">
  <rect x="39" y="33" width="3" height="3"/>
</g>
<g fill="#FFB9B0" id="img-89e702b4-168">
  <rect x="36" y="33" width="3" height="3"/>
</g>
<g fill="#FF9933" id="img-89e702b4-169">
  <rect x="33" y="33" width="3" height="3"/>
</g>
<g fill="#FF5703" id="img-89e702b4-170">
  <rect x="30" y="33" width="3" height="3"/>
</g>
<g fill="#D50B0C" id="img-89e702b4-171">
  <rect x="27" y="33" width="3" height="3"/>
</g>
<g fill="#552B2E" id="img-89e702b4-172">
  <rect x="24" y="33" width="3" height="3"/>
</g>
<g fill="#0F077B" id="img-89e702b4-173">
  <rect x="21" y="33" width="3" height="3"/>
</g>
<g fill="#00008B" id="img-89e702b4-174">
  <rect x="18" y="33" width="3" height="3"/>
</g>
<g fill="#00008B" id="img-89e702b4-175">
  <rect x="15" y="33" width="3" height="3"/>
</g>
<g fill="#00008B" id="img-89e702b4-176">
  <rect x="12" y="33" width="3" height="3"/>
</g>
<g fill="#00008B" id="img-89e702b4-177">
  <rect x="9" y="33" width="3" height="3"/>
</g>
<g fill="#00008B" id="img-89e702b4-178">
  <rect x="6" y="33" width="3" height="3"/>
</g>
<g fill="#00008B" id="img-89e702b4-179">
  <rect x="3" y="33" width="3" height="3"/>
</g>
<g fill="#00018A" id="img-89e702b4-180">
  <rect x="0" y="33" width="3" height="3"/>
</g>
<g fill="#FFC0CA" id="img-89e702b4-181">
  <rect x="57" y="30" width="3" height="3"/>
</g>
<g fill="#FFC0CB" id="img-89e702b4-182">
  <rect x="54" y="30" width="3" height="3"/>
</g>
<g fill="#FFC0CB" id="img-89e702b4-183">
  <rect x="51" y="30" width="3" height="3"/>
</g>
<g fill="#FFC0CB" id="img-89e702b4-184">
  <rect x="48" y="30" width="3" height="3"/>
</g>
<g fill="#FFC0CB" id="img-89e702b4-185">
  <rect x="45" y="30" width="3" height="3"/>
</g>
<g fill="#FFC0CB" id="img-89e702b4-186">
  <rect x="42" y="30" width="3" height="3"/>
</g>
<g fill="#FFC0CB" id="img-89e702b4-187">
  <rect x="39" y="30" width="3" height="3"/>
</g>
<g fill="#FFBEC4" id="img-89e702b4-188">
  <rect x="36" y="30" width="3" height="3"/>
</g>
<g fill="#FFB6A5" id="img-89e702b4-189">
  <rect x="33" y="30" width="3" height="3"/>
</g>
<g fill="#FE9834" id="img-89e702b4-190">
  <rect x="30" y="30" width="3" height="3"/>
</g>
<g fill="#572D31" id="img-89e702b4-191">
  <rect x="27" y="30" width="3" height="3"/>
</g>
<g fill="#160B74" id="img-89e702b4-192">
  <rect x="24" y="30" width="3" height="3"/>
</g>
<g fill="#040287" id="img-89e702b4-193">
  <rect x="21" y="30" width="3" height="3"/>
</g>
<g fill="#00008B" id="img-89e702b4-194">
  <rect x="18" y="30" width="3" height="3"/>
</g>
<g fill="#00008B" id="img-89e702b4-195">
  <rect x="15" y="30" width="3" height="3"/>
</g>
<g fill="#00008B" id="img-89e702b4-196">
  <rect x="12" y="30" width="3" height="3"/>
</g>
<g fill="#00008B" id="img-89e702b4-197">
  <rect x="9" y="30" width="3" height="3"/>
</g>
<g fill="#00008B" id="img-89e702b4-198">
  <rect x="6" y="30" width="3" height="3"/>
</g>
<g fill="#00008B" id="img-89e702b4-199">
  <rect x="3" y="30" width="3" height="3"/>
</g>
<g fill="#00008B" id="img-89e702b4-200">
  <rect x="0" y="30" width="3" height="3"/>
</g>
<g fill="#FFC0CB" id="img-89e702b4-201">
  <rect x="57" y="27" width="3" height="3"/>
</g>
<g fill="#FFC0CB" id="img-89e702b4-202">
  <rect x="54" y="27" width="3" height="3"/>
</g>
<g fill="#FFC0CB" id="img-89e702b4-203">
  <rect x="51" y="27" width="3" height="3"/>
</g>
<g fill="#FFC0CB" id="img-89e702b4-204">
  <rect x="48" y="27" width="3" height="3"/>
</g>
<g fill="#FFC0CB" id="img-89e702b4-205">
  <rect x="45" y="27" width="3" height="3"/>
</g>
<g fill="#FFC0CB" id="img-89e702b4-206">
  <rect x="42" y="27" width="3" height="3"/>
</g>
<g fill="#FFC0CB" id="img-89e702b4-207">
  <rect x="39" y="27" width="3" height="3"/>
</g>
<g fill="#FDBDCC" id="img-89e702b4-208">
  <rect x="36" y="27" width="3" height="3"/>
</g>
<g fill="#F5B1D1" id="img-89e702b4-209">
  <rect x="33" y="27" width="3" height="3"/>
</g>
<g fill="#D584E3" id="img-89e702b4-210">
  <rect x="30" y="27" width="3" height="3"/>
</g>
<g fill="#5704D5" id="img-89e702b4-211">
  <rect x="27" y="27" width="3" height="3"/>
</g>
<g fill="#16009E" id="img-89e702b4-212">
  <rect x="24" y="27" width="3" height="3"/>
</g>
<g fill="#04008E" id="img-89e702b4-213">
  <rect x="21" y="27" width="3" height="3"/>
</g>
<g fill="#00008B" id="img-89e702b4-214">
  <rect x="18" y="27" width="3" height="3"/>
</g>
<g fill="#00008B" id="img-89e702b4-215">
  <rect x="15" y="27" width="3" height="3"/>
</g>
<g fill="#00008B" id="img-89e702b4-216">
  <rect x="12" y="27" width="3" height="3"/>
</g>
<g fill="#00008B" id="img-89e702b4-217">
  <rect x="9" y="27" width="3" height="3"/>
</g>
<g fill="#00008B" id="img-89e702b4-218">
  <rect x="6" y="27" width="3" height="3"/>
</g>
<g fill="#00008B" id="img-89e702b4-219">
  <rect x="3" y="27" width="3" height="3"/>
</g>
<g fill="#00008B" id="img-89e702b4-220">
  <rect x="0" y="27" width="3" height="3"/>
</g>
<g fill="#FEC0CB" id="img-89e702b4-221">
  <rect x="57" y="24" width="3" height="3"/>
</g>
<g fill="#FFC0CB" id="img-89e702b4-222">
  <rect x="54" y="24" width="3" height="3"/>
</g>
<g fill="#FFC0CB" id="img-89e702b4-223">
  <rect x="51" y="24" width="3" height="3"/>
</g>
<g fill="#FFC0CB" id="img-89e702b4-224">
  <rect x="48" y="24" width="3" height="3"/>
</g>
<g fill="#FFC0CB" id="img-89e702b4-225">
  <rect x="45" y="24" width="3" height="3"/>
</g>
<g fill="#FFC0CB" id="img-89e702b4-226">
  <rect x="42" y="24" width="3" height="3"/>
</g>
<g fill="#FFC0CB" id="img-89e702b4-227">
  <rect x="39" y="24" width="3" height="3"/>
</g>
<g fill="#F8B6D0" id="img-89e702b4-228">
  <rect x="36" y="24" width="3" height="3"/>
</g>
<g fill="#D785E7" id="img-89e702b4-229">
  <rect x="33" y="24" width="3" height="3"/>
</g>
<g fill="#F421F9" id="img-89e702b4-230">
  <rect x="30" y="24" width="3" height="3"/>
</g>
<g fill="#D501F5" id="img-89e702b4-231">
  <rect x="27" y="24" width="3" height="3"/>
</g>
<g fill="#5500D8" id="img-89e702b4-232">
  <rect x="24" y="24" width="3" height="3"/>
</g>
<g fill="#0F0098" id="img-89e702b4-233">
  <rect x="21" y="24" width="3" height="3"/>
</g>
<g fill="#00008B" id="img-89e702b4-234">
  <rect x="18" y="24" width="3" height="3"/>
</g>
<g fill="#00008B" id="img-89e702b4-235">
  <rect x="15" y="24" width="3" height="3"/>
</g>
<g fill="#00008B" id="img-89e702b4-236">
  <rect x="12" y="24" width="3" height="3"/>
</g>
<g fill="#00008B" id="img-89e702b4-237">
  <rect x="9" y="24" width="3" height="3"/>
</g>
<g fill="#00008B" id="img-89e702b4-238">
  <rect x="6" y="24" width="3" height="3"/>
</g>
<g fill="#00008B" id="img-89e702b4-239">
  <rect x="3" y="24" width="3" height="3"/>
</g>
<g fill="#00008C" id="img-89e702b4-240">
  <rect x="0" y="24" width="3" height="3"/>
</g>
<g fill="#F9C1CD" id="img-89e702b4-241">
  <rect x="57" y="21" width="3" height="3"/>
</g>
<g fill="#FFC0CB" id="img-89e702b4-242">
  <rect x="54" y="21" width="3" height="3"/>
</g>
<g fill="#FFC0CB" id="img-89e702b4-243">
  <rect x="51" y="21" width="3" height="3"/>
</g>
<g fill="#FFC0CB" id="img-89e702b4-244">
  <rect x="48" y="21" width="3" height="3"/>
</g>
<g fill="#FFC0CB" id="img-89e702b4-245">
  <rect x="45" y="21" width="3" height="3"/>
</g>
<g fill="#FFC0CB" id="img-89e702b4-246">
  <rect x="42" y="21" width="3" height="3"/>
</g>
<g fill="#FFC0CB" id="img-89e702b4-247">
  <rect x="39" y="21" width="3" height="3"/>
</g>
<g fill="#D785E7" id="img-89e702b4-248">
  <rect x="36" y="21" width="3" height="3"/>
</g>
<g fill="#F817FB" id="img-89e702b4-249">
  <rect x="33" y="21" width="3" height="3"/>
</g>
<g fill="#FD06FE" id="img-89e702b4-250">
  <rect x="30" y="21" width="3" height="3"/>
</g>
<g fill="#F800FD" id="img-89e702b4-251">
  <rect x="27" y="21" width="3" height="3"/>
</g>
<g fill="#E100F8" id="img-89e702b4-252">
  <rect x="24" y="21" width="3" height="3"/>
</g>
<g fill="#5500D8" id="img-89e702b4-253">
  <rect x="21" y="21" width="3" height="3"/>
</g>
<g fill="#00008B" id="img-89e702b4-254">
  <rect x="18" y="21" width="3" height="3"/>
</g>
<g fill="#00008B" id="img-89e702b4-255">
  <rect x="15" y="21" width="3" height="3"/>
</g>
<g fill="#00008B" id="img-89e702b4-256">
  <rect x="12" y="21" width="3" height="3"/>
</g>
<g fill="#00008B" id="img-89e702b4-257">
  <rect x="9" y="21" width="3" height="3"/>
</g>
<g fill="#00008B" id="img-89e702b4-258">
  <rect x="6" y="21" width="3" height="3"/>
</g>
<g fill="#00008B" id="img-89e702b4-259">
  <rect x="3" y="21" width="3" height="3"/>
</g>
<g fill="#000091" id="img-89e702b4-260">
  <rect x="0" y="21" width="3" height="3"/>
</g>
<g fill="#C3C7DB" id="img-89e702b4-261">
  <rect x="57" y="18" width="3" height="3"/>
</g>
<g fill="#FCC0CC" id="img-89e702b4-262">
  <rect x="54" y="18" width="3" height="3"/>
</g>
<g fill="#FCC0CC" id="img-89e702b4-263">
  <rect x="51" y="18" width="3" height="3"/>
</g>
<g fill="#FCC0CC" id="img-89e702b4-264">
  <rect x="48" y="18" width="3" height="3"/>
</g>
<g fill="#FCC0CC" id="img-89e702b4-265">
  <rect x="45" y="18" width="3" height="3"/>
</g>
<g fill="#FCC0CC" id="img-89e702b4-266">
  <rect x="42" y="18" width="3" height="3"/>
</g>
<g fill="#FDBDCC" id="img-89e702b4-267">
  <rect x="39" y="18" width="3" height="3"/>
</g>
<g fill="#FB0DFD" id="img-89e702b4-268">
  <rect x="36" y="18" width="3" height="3"/>
</g>
<g fill="#FE02FF" id="img-89e702b4-269">
  <rect x="33" y="18" width="3" height="3"/>
</g>
<g fill="#FF01FF" id="img-89e702b4-270">
  <rect x="30" y="18" width="3" height="3"/>
</g>
<g fill="#FE00FF" id="img-89e702b4-271">
  <rect x="27" y="18" width="3" height="3"/>
</g>
<g fill="#FC00FE" id="img-89e702b4-272">
  <rect x="24" y="18" width="3" height="3"/>
</g>
<g fill="#EE00FB" id="img-89e702b4-273">
  <rect x="21" y="18" width="3" height="3"/>
</g>
<g fill="#0000C5" id="img-89e702b4-274">
  <rect x="18" y="18" width="3" height="3"/>
</g>
<g fill="#0000C5" id="img-89e702b4-275">
  <rect x="15" y="18" width="3" height="3"/>
</g>
<g fill="#0000C5" id="img-89e702b4-276">
  <rect x="12" y="18" width="3" height="3"/>
</g>
<g fill="#0000C5" id="img-89e702b4-277">
  <rect x="9" y="18" width="3" height="3"/>
</g>
<g fill="#0000C5" id="img-89e702b4-278">
  <rect x="6" y="18" width="3" height="3"/>
</g>
<g fill="#0000C5" id="img-89e702b4-279">
  <rect x="3" y="18" width="3" height="3"/>
</g>
<g fill="#0000C5" id="img-89e702b4-280">
  <rect x="0" y="18" width="3" height="3"/>
</g>
<g fill="#8ACEEA" id="img-89e702b4-281">
  <rect x="57" y="15" width="3" height="3"/>
</g>
<g fill="#8ACEEA" id="img-89e702b4-282">
  <rect x="54" y="15" width="3" height="3"/>
</g>
<g fill="#8ACEEA" id="img-89e702b4-283">
  <rect x="51" y="15" width="3" height="3"/>
</g>
<g fill="#8ACEEA" id="img-89e702b4-284">
  <rect x="48" y="15" width="3" height="3"/>
</g>
<g fill="#8ACEEA" id="img-89e702b4-285">
  <rect x="45" y="15" width="3" height="3"/>
</g>
<g fill="#8ACEEA" id="img-89e702b4-286">
  <rect x="42" y="15" width="3" height="3"/>
</g>
<g fill="#D785E7" id="img-89e702b4-287">
  <rect x="39" y="15" width="3" height="3"/>
</g>
<g fill="#FF01FF" id="img-89e702b4-288">
  <rect x="36" y="15" width="3" height="3"/>
</g>
<g fill="#FF00FF" id="img-89e702b4-289">
  <rect x="33" y="15" width="3" height="3"/>
</g>
<g fill="#FF00FF" id="img-89e702b4-290">
  <rect x="30" y="15" width="3" height="3"/>
</g>
<g fill="#FF00FF" id="img-89e702b4-291">
  <rect x="27" y="15" width="3" height="3"/>
</g>
<g fill="#FF00FF" id="img-89e702b4-292">
  <rect x="24" y="15" width="3" height="3"/>
</g>
<g fill="#FE00FF" id="img-89e702b4-293">
  <rect x="21" y="15" width="3" height="3"/>
</g>
<g fill="#0000FF" id="img-89e702b4-294">
  <rect x="18" y="15" width="3" height="3"/>
</g>
<g fill="#0000FF" id="img-89e702b4-295">
  <rect x="15" y="15" width="3" height="3"/>
</g>
<g fill="#0000FF" id="img-89e702b4-296">
  <rect x="12" y="15" width="3" height="3"/>
</g>
<g fill="#0000FF" id="img-89e702b4-297">
  <rect x="9" y="15" width="3" height="3"/>
</g>
<g fill="#0000FF" id="img-89e702b4-298">
  <rect x="6" y="15" width="3" height="3"/>
</g>
<g fill="#0000FF" id="img-89e702b4-299">
  <rect x="3" y="15" width="3" height="3"/>
</g>
<g fill="#0000F9" id="img-89e702b4-300">
  <rect x="0" y="15" width="3" height="3"/>
</g>
<g fill="#87CEEB" id="img-89e702b4-301">
  <rect x="57" y="12" width="3" height="3"/>
</g>
<g fill="#87CEEB" id="img-89e702b4-302">
  <rect x="54" y="12" width="3" height="3"/>
</g>
<g fill="#87CEEB" id="img-89e702b4-303">
  <rect x="51" y="12" width="3" height="3"/>
</g>
<g fill="#87CEEB" id="img-89e702b4-304">
  <rect x="48" y="12" width="3" height="3"/>
</g>
<g fill="#87CEEB" id="img-89e702b4-305">
  <rect x="45" y="12" width="3" height="3"/>
</g>
<g fill="#87CEEB" id="img-89e702b4-306">
  <rect x="42" y="12" width="3" height="3"/>
</g>
<g fill="#C367F5" id="img-89e702b4-307">
  <rect x="39" y="12" width="3" height="3"/>
</g>
<g fill="#FF00FF" id="img-89e702b4-308">
  <rect x="36" y="12" width="3" height="3"/>
</g>
<g fill="#FF00FF" id="img-89e702b4-309">
  <rect x="33" y="12" width="3" height="3"/>
</g>
<g fill="#FF00FF" id="img-89e702b4-310">
  <rect x="30" y="12" width="3" height="3"/>
</g>
<g fill="#FF00FF" id="img-89e702b4-311">
  <rect x="27" y="12" width="3" height="3"/>
</g>
<g fill="#FF00FF" id="img-89e702b4-312">
  <rect x="24" y="12" width="3" height="3"/>
</g>
<g fill="#FE00FF" id="img-89e702b4-313">
  <rect x="21" y="12" width="3" height="3"/>
</g>
<g fill="#0000FF" id="img-89e702b4-314">
  <rect x="18" y="12" width="3" height="3"/>
</g>
<g fill="#0000FF" id="img-89e702b4-315">
  <rect x="15" y="12" width="3" height="3"/>
</g>
<g fill="#0000FF" id="img-89e702b4-316">
  <rect x="12" y="12" width="3" height="3"/>
</g>
<g fill="#0000FF" id="img-89e702b4-317">
  <rect x="9" y="12" width="3" height="3"/>
</g>
<g fill="#0000FF" id="img-89e702b4-318">
  <rect x="6" y="12" width="3" height="3"/>
</g>
<g fill="#0000FF" id="img-89e702b4-319">
  <rect x="3" y="12" width="3" height="3"/>
</g>
<g fill="#0000FE" id="img-89e702b4-320">
  <rect x="0" y="12" width="3" height="3"/>
</g>
<g fill="#87CEEB" id="img-89e702b4-321">
  <rect x="57" y="9" width="3" height="3"/>
</g>
<g fill="#87CEEB" id="img-89e702b4-322">
  <rect x="54" y="9" width="3" height="3"/>
</g>
<g fill="#87CEEB" id="img-89e702b4-323">
  <rect x="51" y="9" width="3" height="3"/>
</g>
<g fill="#87CEEB" id="img-89e702b4-324">
  <rect x="48" y="9" width="3" height="3"/>
</g>
<g fill="#87CEEB" id="img-89e702b4-325">
  <rect x="45" y="9" width="3" height="3"/>
</g>
<g fill="#87CEEB" id="img-89e702b4-326">
  <rect x="42" y="9" width="3" height="3"/>
</g>
<g fill="#C367F5" id="img-89e702b4-327">
  <rect x="39" y="9" width="3" height="3"/>
</g>
<g fill="#FF00FF" id="img-89e702b4-328">
  <rect x="36" y="9" width="3" height="3"/>
</g>
<g fill="#FF00FF" id="img-89e702b4-329">
  <rect x="33" y="9" width="3" height="3"/>
</g>
<g fill="#FF00FF" id="img-89e702b4-330">
  <rect x="30" y="9" width="3" height="3"/>
</g>
<g fill="#FF00FF" id="img-89e702b4-331">
  <rect x="27" y="9" width="3" height="3"/>
</g>
<g fill="#FF00FF" id="img-89e702b4-332">
  <rect x="24" y="9" width="3" height="3"/>
</g>
<g fill="#FE00FF" id="img-89e702b4-333">
  <rect x="21" y="9" width="3" height="3"/>
</g>
<g fill="#0000FF" id="img-89e702b4-334">
  <rect x="18" y="9" width="3" height="3"/>
</g>
<g fill="#0000FF" id="img-89e702b4-335">
  <rect x="15" y="9" width="3" height="3"/>
</g>
<g fill="#0000FF" id="img-89e702b4-336">
  <rect x="12" y="9" width="3" height="3"/>
</g>
<g fill="#0000FF" id="img-89e702b4-337">
  <rect x="9" y="9" width="3" height="3"/>
</g>
<g fill="#0000FF" id="img-89e702b4-338">
  <rect x="6" y="9" width="3" height="3"/>
</g>
<g fill="#0000FF" id="img-89e702b4-339">
  <rect x="3" y="9" width="3" height="3"/>
</g>
<g fill="#0000FF" id="img-89e702b4-340">
  <rect x="0" y="9" width="3" height="3"/>
</g>
<g fill="#87CEEB" id="img-89e702b4-341">
  <rect x="57" y="6" width="3" height="3"/>
</g>
<g fill="#87CEEB" id="img-89e702b4-342">
  <rect x="54" y="6" width="3" height="3"/>
</g>
<g fill="#87CEEB" id="img-89e702b4-343">
  <rect x="51" y="6" width="3" height="3"/>
</g>
<g fill="#87CEEB" id="img-89e702b4-344">
  <rect x="48" y="6" width="3" height="3"/>
</g>
<g fill="#87CEEB" id="img-89e702b4-345">
  <rect x="45" y="6" width="3" height="3"/>
</g>
<g fill="#87CEEB" id="img-89e702b4-346">
  <rect x="42" y="6" width="3" height="3"/>
</g>
<g fill="#C367F5" id="img-89e702b4-347">
  <rect x="39" y="6" width="3" height="3"/>
</g>
<g fill="#FF00FF" id="img-89e702b4-348">
  <rect x="36" y="6" width="3" height="3"/>
</g>
<g fill="#FF00FF" id="img-89e702b4-349">
  <rect x="33" y="6" width="3" height="3"/>
</g>
<g fill="#FF00FF" id="img-89e702b4-350">
  <rect x="30" y="6" width="3" height="3"/>
</g>
<g fill="#FF00FF" id="img-89e702b4-351">
  <rect x="27" y="6" width="3" height="3"/>
</g>
<g fill="#FF00FF" id="img-89e702b4-352">
  <rect x="24" y="6" width="3" height="3"/>
</g>
<g fill="#FE00FF" id="img-89e702b4-353">
  <rect x="21" y="6" width="3" height="3"/>
</g>
<g fill="#0000FF" id="img-89e702b4-354">
  <rect x="18" y="6" width="3" height="3"/>
</g>
<g fill="#0000FF" id="img-89e702b4-355">
  <rect x="15" y="6" width="3" height="3"/>
</g>
<g fill="#0000FF" id="img-89e702b4-356">
  <rect x="12" y="6" width="3" height="3"/>
</g>
<g fill="#0000FF" id="img-89e702b4-357">
  <rect x="9" y="6" width="3" height="3"/>
</g>
<g fill="#0000FF" id="img-89e702b4-358">
  <rect x="6" y="6" width="3" height="3"/>
</g>
<g fill="#0000FF" id="img-89e702b4-359">
  <rect x="3" y="6" width="3" height="3"/>
</g>
<g fill="#0000FF" id="img-89e702b4-360">
  <rect x="0" y="6" width="3" height="3"/>
</g>
<g fill="#87CEEB" id="img-89e702b4-361">
  <rect x="57" y="3" width="3" height="3"/>
</g>
<g fill="#87CEEB" id="img-89e702b4-362">
  <rect x="54" y="3" width="3" height="3"/>
</g>
<g fill="#87CEEB" id="img-89e702b4-363">
  <rect x="51" y="3" width="3" height="3"/>
</g>
<g fill="#87CEEB" id="img-89e702b4-364">
  <rect x="48" y="3" width="3" height="3"/>
</g>
<g fill="#87CEEB" id="img-89e702b4-365">
  <rect x="45" y="3" width="3" height="3"/>
</g>
<g fill="#87CEEB" id="img-89e702b4-366">
  <rect x="42" y="3" width="3" height="3"/>
</g>
<g fill="#C367F5" id="img-89e702b4-367">
  <rect x="39" y="3" width="3" height="3"/>
</g>
<g fill="#FF00FF" id="img-89e702b4-368">
  <rect x="36" y="3" width="3" height="3"/>
</g>
<g fill="#FF00FF" id="img-89e702b4-369">
  <rect x="33" y="3" width="3" height="3"/>
</g>
<g fill="#FF00FF" id="img-89e702b4-370">
  <rect x="30" y="3" width="3" height="3"/>
</g>
<g fill="#FF00FF" id="img-89e702b4-371">
  <rect x="27" y="3" width="3" height="3"/>
</g>
<g fill="#FF00FF" id="img-89e702b4-372">
  <rect x="24" y="3" width="3" height="3"/>
</g>
<g fill="#FE00FF" id="img-89e702b4-373">
  <rect x="21" y="3" width="3" height="3"/>
</g>
<g fill="#0000FF" id="img-89e702b4-374">
  <rect x="18" y="3" width="3" height="3"/>
</g>
<g fill="#0000FF" id="img-89e702b4-375">
  <rect x="15" y="3" width="3" height="3"/>
</g>
<g fill="#0000FF" id="img-89e702b4-376">
  <rect x="12" y="3" width="3" height="3"/>
</g>
<g fill="#0000FF" id="img-89e702b4-377">
  <rect x="9" y="3" width="3" height="3"/>
</g>
<g fill="#0000FF" id="img-89e702b4-378">
  <rect x="6" y="3" width="3" height="3"/>
</g>
<g fill="#0000FF" id="img-89e702b4-379">
  <rect x="3" y="3" width="3" height="3"/>
</g>
<g fill="#0000FF" id="img-89e702b4-380">
  <rect x="0" y="3" width="3" height="3"/>
</g>
<g fill="#87CEEB" id="img-89e702b4-381">
  <rect x="57" y="0" width="3" height="3"/>
</g>
<g fill="#87CEEB" id="img-89e702b4-382">
  <rect x="54" y="0" width="3" height="3"/>
</g>
<g fill="#87CEEB" id="img-89e702b4-383">
  <rect x="51" y="0" width="3" height="3"/>
</g>
<g fill="#87CEEB" id="img-89e702b4-384">
  <rect x="48" y="0" width="3" height="3"/>
</g>
<g fill="#87CEEB" id="img-89e702b4-385">
  <rect x="45" y="0" width="3" height="3"/>
</g>
<g fill="#87CEEB" id="img-89e702b4-386">
  <rect x="42" y="0" width="3" height="3"/>
</g>
<g fill="#C367F5" id="img-89e702b4-387">
  <rect x="39" y="0" width="3" height="3"/>
</g>
<g fill="#FF00FF" id="img-89e702b4-388">
  <rect x="36" y="0" width="3" height="3"/>
</g>
<g fill="#FF00FF" id="img-89e702b4-389">
  <rect x="33" y="0" width="3" height="3"/>
</g>
<g fill="#FF00FF" id="img-89e702b4-390">
  <rect x="30" y="0" width="3" height="3"/>
</g>
<g fill="#FF00FF" id="img-89e702b4-391">
  <rect x="27" y="0" width="3" height="3"/>
</g>
<g fill="#FF00FF" id="img-89e702b4-392">
  <rect x="24" y="0" width="3" height="3"/>
</g>
<g fill="#FE00FF" id="img-89e702b4-393">
  <rect x="21" y="0" width="3" height="3"/>
</g>
<g fill="#0000FF" id="img-89e702b4-394">
  <rect x="18" y="0" width="3" height="3"/>
</g>
<g fill="#0000FF" id="img-89e702b4-395">
  <rect x="15" y="0" width="3" height="3"/>
</g>
<g fill="#0000FF" id="img-89e702b4-396">
  <rect x="12" y="0" width="3" height="3"/>
</g>
<g fill="#0000FF" id="img-89e702b4-397">
  <rect x="9" y="0" width="3" height="3"/>
</g>
<g fill="#0000FF" id="img-89e702b4-398">
  <rect x="6" y="0" width="3" height="3"/>
</g>
<g fill="#0000FF" id="img-89e702b4-399">
  <rect x="3" y="0" width="3" height="3"/>
</g>
<g fill="#0000FF" id="img-89e702b4-400">
  <rect x="0" y="0" width="3" height="3"/>
</g>
</svg>
