<?xml version="1.0" encoding="UTF-8"?>
<svg xmlns="http://www.w3.org/2000/svg"
     xmlns:xlink="http://www.w3.org/1999/xlink"
     version="1.2"
     width="60mm" height="60mm" viewBox="0 0 60 60"
     stroke="none"
     fill="#000000"
     stroke-width="0.3"
     font-size="3.88"
>
<g fill="#008000" id="img-84e80a42-1">
  <rect x="60" y="60" width="3" height="3"/>
</g>
<g fill="#008000" id="img-84e80a42-2">
  <rect x="57" y="60" width="3" height="3"/>
</g>
<g fill="#008000" id="img-84e80a42-3">
  <rect x="54" y="60" width="3" height="3"/>
</g>
<g fill="#008000" id="img-84e80a42-4">
  <rect x="51" y="60" width="3" height="3"/>
</g>
<g fill="#008000" id="img-84e80a42-5">
  <rect x="48" y="60" width="3" height="3"/>
</g>
<g fill="#008000" id="img-84e80a42-6">
  <rect x="45" y="60" width="3" height="3"/>
</g>
<g fill="#008000" id="img-84e80a42-7">
  <rect x="42" y="60" width="3" height="3"/>
</g>
<g fill="#008000" id="img-84e80a42-8">
  <rect x="39" y="60" width="3" height="3"/>
</g>
<g fill="#018000" id="img-84e80a42-9">
  <rect x="36" y="60" width="3" height="3"/>
</g>
<g fill="#FF0000" id="img-84e80a42-10">
  <rect x="33" y="60" width="3" height="3"/>
</g>
<g fill="#FF0000" id="img-84e80a42-11">
  <rect x="30" y="60" width="3" height="3"/>
</g>
<g fill="#FF0000" id="img-84e80a42-12">
  <rect x="27" y="60" width="3" height="3"/>
</g>
<g fill="#FF0000" id="img-84e80a42-13">
  <rect x="24" y="60" width="3" height="3"/>
</g>
<g fill="#FF0000" id="img-84e80a42-14">
  <rect x="21" y="60" width="3" height="3"/>
</g>
<g fill="#FF0000" id="img-84e80a42-15">
  <rect x="18" y="60" width="3" height="3"/>
</g>
<g fill="#FF0100" id="img-84e80a42-16">
  <rect x="15" y="60" width="3" height="3"/>
</g>
<g fill="#FF0700" id="img-84e80a42-17">
  <rect x="12" y="60" width="3" height="3"/>
</g>
<g fill="#FF2600" id="img-84e80a42-18">
  <rect x="9" y="60" width="3" height="3"/>
</g>
<g fill="#FF9100" id="img-84e80a42-19">
  <rect x="6" y="60" width="3" height="3"/>
</g>
<g fill="#FFC300" id="img-84e80a42-20">
  <rect x="3" y="60" width="3" height="3"/>
</g>
<g fill="#008000" id="img-84e80a42-21">
  <rect x="60" y="57" width="3" height="3"/>
</g>
<g fill="#008000" id="img-84e80a42-22">
  <rect x="57" y="57" width="3" height="3"/>
</g>
<g fill="#008000" id="img-84e80a42-23">
  <rect x="54" y="57" width="3" height="3"/>
</g>
<g fill="#008000" id="img-84e80a42-24">
  <rect x="51" y="57" width="3" height="3"/>
</g>
<g fill="#008000" id="img-84e80a42-25">
  <rect x="48" y="57" width="3" height="3"/>
</g>
<g fill="#008000" id="img-84e80a42-26">
  <rect x="45" y="57" width="3" height="3"/>
</g>
<g fill="#008000" id="img-84e80a42-27">
  <rect x="42" y="57" width="3" height="3"/>
</g>
<g fill="#008000" id="img-84e80a42-28">
  <rect x="39" y="57" width="3" height="3"/>
</g>
<g fill="#018000" id="img-84e80a42-29">
  <rect x="36" y="57" width="3" height="3"/>
</g>
<g fill="#FF0000" id="img-84e80a42-30">
  <rect x="33" y="57" width="3" height="3"/>
</g>
<g fill="#FF0000" id="img-84e80a42-31">
  <rect x="30" y="57" width="3" height="3"/>
</g>
<g fill="#FF0000" id="img-84e80a42-32">
  <rect x="27" y="57" width="3" height="3"/>
</g>
<g fill="#FF2E00" id="img-84e80a42-33">
  <rect x="24" y="57" width="3" height="3"/>
</g>
<g fill="#FF9400" id="img-84e80a42-34">
  <rect x="21" y="57" width="3" height="3"/>
</g>
<g fill="#FFA200" id="img-84e80a42-35">
  <rect x="18" y="57" width="3" height="3"/>
</g>
<g fill="#FFA500" id="img-84e80a42-36">
  <rect x="15" y="57" width="3" height="3"/>
</g>
<g fill="#FFA500" id="img-84e80a42-37">
  <rect x="12" y="57" width="3" height="3"/>
</g>
<g fill="#FFA500" id="img-84e80a42-38">
  <rect x="9" y="57" width="3" height="3"/>
</g>
<g fill="#FFA500" id="img-84e80a42-39">
  <rect x="6" y="57" width="3" height="3"/>
</g>
<g fill="#FFA500" id="img-84e80a42-40">
  <rect x="3" y="57" width="3" height="3"/>
</g>
<g fill="#008000" id="img-84e80a42-41">
  <rect x="60" y="54" width="3" height="3"/>
</g>
<g fill="#008000" id="img-84e80a42-42">
  <rect x="57" y="54" width="3" height="3"/>
</g>
<g fill="#008000" id="img-84e80a42-43">
  <rect x="54" y="54" width="3" height="3"/>
</g>
<g fill="#008000" id="img-84e80a42-44">
  <rect x="51" y="54" width="3" height="3"/>
</g>
<g fill="#008000" id="img-84e80a42-45">
  <rect x="48" y="54" width="3" height="3"/>
</g>
<g fill="#008000" id="img-84e80a42-46">
  <rect x="45" y="54" width="3" height="3"/>
</g>
<g fill="#008000" id="img-84e80a42-47">
  <rect x="42" y="54" width="3" height="3"/>
</g>
<g fill="#008000" id="img-84e80a42-48">
  <rect x="39" y="54" width="3" height="3"/>
</g>
<g fill="#018000" id="img-84e80a42-49">
  <rect x="36" y="54" width="3" height="3"/>
</g>
<g fill="#FF0000" id="img-84e80a42-50">
  <rect x="33" y="54" width="3" height="3"/>
</g>
<g fill="#FF0000" id="img-84e80a42-51">
  <rect x="30" y="54" width="3" height="3"/>
</g>
<g fill="#FF0000" id="img-84e80a42-52">
  <rect x="27" y="54" width="3" height="3"/>
</g>
<g fill="#FF4300" id="img-84e80a42-53">
  <rect x="24" y="54" width="3" height="3"/>
</g>
<g fill="#FF9700" id="img-84e80a42-54">
  <rect x="21" y="54" width="3" height="3"/>
</g>
<g fill="#FFA300" id="img-84e80a42-55">
  <rect x="18" y="54" width="3" height="3"/>
</g>
<g fill="#FFA500" id="img-84e80a42-56">
  <rect x="15" y="54" width="3" height="3"/>
</g>
<g fill="#FFA500" id="img-84e80a42-57">
  <rect x="12" y="54" width="3" height="3"/>
</g>
<g fill="#FFA500" id="img-84e80a42-58">
  <rect x="9" y="54" width="3" height="3"/>
</g>
<g fill="#FFA500" id="img-84e80a42-59">
  <rect x="6" y="54" width="3" height="3"/>
</g>
<g fill="#FFA500" id="img-84e80a42-60">
  <rect x="3" y="54" width="3" height="3"/>
</g>
<g fill="#008000" id="img-84e80a42-61">
  <rect x="60" y="51" width="3" height="3"/>
</g>
<g fill="#008000" id="img-84e80a42-62">
  <rect x="57" y="51" width="3" height="3"/>
</g>
<g fill="#008000" id="img-84e80a42-63">
  <rect x="54" y="51" width="3" height="3"/>
</g>
<g fill="#008000" id="img-84e80a42-64">
  <rect x="51" y="51" width="3" height="3"/>
</g>
<g fill="#008000" id="img-84e80a42-65">
  <rect x="48" y="51" width="3" height="3"/>
</g>
<g fill="#008000" id="img-84e80a42-66">
  <rect x="45" y="51" width="3" height="3"/>
</g>
<g fill="#008000" id="img-84e80a42-67">
  <rect x="42" y="51" width="3" height="3"/>
</g>
<g fill="#008000" id="img-84e80a42-68">
  <rect x="39" y="51" width="3" height="3"/>
</g>
<g fill="#018000" id="img-84e80a42-69">
  <rect x="36" y="51" width="3" height="3"/>
</g>
<g fill="#FF0000" id="img-84e80a42-70">
  <rect x="33" y="51" width="3" height="3"/>
</g>
<g fill="#FF0000" id="img-84e80a42-71">
  <rect x="30" y="51" width="3" height="3"/>
</g>
<g fill="#FF0000" id="img-84e80a42-72">
  <rect x="27" y="51" width="3" height="3"/>
</g>
<g fill="#FF4300" id="img-84e80a42-73">
  <rect x="24" y="51" width="3" height="3"/>
</g>
<g fill="#FFA300" id="img-84e80a42-74">
  <rect x="21" y="51" width="3" height="3"/>
</g>
<g fill="#FFA500" id="img-84e80a42-75">
  <rect x="18" y="51" width="3" height="3"/>
</g>
<g fill="#FFA500" id="img-84e80a42-76">
  <rect x="15" y="51" width="3" height="3"/>
</g>
<g fill="#FFA500" id="img-84e80a42-77">
  <rect x="12" y="51" width="3" height="3"/>
</g>
<g fill="#FFA500" id="img-84e80a42-78">
  <rect x="9" y="51" width="3" height="3"/>
</g>
<g fill="#FFA500" id="img-84e80a42-79">
  <rect x="6" y="51" width="3" height="3"/>
</g>
<g fill="#FFA700" id="img-84e80a42-80">
  <rect x="3" y="51" width="3" height="3"/>
</g>
<g fill="#008000" id="img-84e80a42-81">
  <rect x="60" y="48" width="3" height="3"/>
</g>
<g fill="#008000" id="img-84e80a42-82">
  <rect x="57" y="48" width="3" height="3"/>
</g>
<g fill="#008000" id="img-84e80a42-83">
  <rect x="54" y="48" width="3" height="3"/>
</g>
<g fill="#008000" id="img-84e80a42-84">
  <rect x="51" y="48" width="3" height="3"/>
</g>
<g fill="#008000" id="img-84e80a42-85">
  <rect x="48" y="48" width="3" height="3"/>
</g>
<g fill="#008000" id="img-84e80a42-86">
  <rect x="45" y="48" width="3" height="3"/>
</g>
<g fill="#008000" id="img-84e80a42-87">
  <rect x="42" y="48" width="3" height="3"/>
</g>
<g fill="#008000" id="img-84e80a42-88">
  <rect x="39" y="48" width="3" height="3"/>
</g>
<g fill="#018000" id="img-84e80a42-89">
  <rect x="36" y="48" width="3" height="3"/>
</g>
<g fill="#FF0000" id="img-84e80a42-90">
  <rect x="33" y="48" width="3" height="3"/>
</g>
<g fill="#FF0000" id="img-84e80a42-91">
  <rect x="30" y="48" width="3" height="3"/>
</g>
<g fill="#FF0000" id="img-84e80a42-92">
  <rect x="27" y="48" width="3" height="3"/>
</g>
<g fill="#FF8B00" id="img-84e80a42-93">
  <rect x="24" y="48" width="3" height="3"/>
</g>
<g fill="#FFA500" id="img-84e80a42-94">
  <rect x="21" y="48" width="3" height="3"/>
</g>
<g fill="#FFA500" id="img-84e80a42-95">
  <rect x="18" y="48" width="3" height="3"/>
</g>
<g fill="#FFA500" id="img-84e80a42-96">
  <rect x="15" y="48" width="3" height="3"/>
</g>
<g fill="#FFA500" id="img-84e80a42-97">
  <rect x="12" y="48" width="3" height="3"/>
</g>
<g fill="#FFA600" id="img-84e80a42-98">
  <rect x="9" y="48" width="3" height="3"/>
</g>
<g fill="#FFA600" id="img-84e80a42-99">
  <rect x="6" y="48" width="3" height="3"/>
</g>
<g fill="#FFB200" id="img-84e80a42-100">
  <rect x="3" y="48" width="3" height="3"/>
</g>
<g fill="#008001" id="img-84e80a42-101">
  <rect x="60" y="45" width="3" height="3"/>
</g>
<g fill="#008000" id="img-84e80a42-102">
  <rect x="57" y="45" width="3" height="3"/>
</g>
<g fill="#008000" id="img-84e80a42-103">
  <rect x="54" y="45" width="3" height="3"/>
</g>
<g fill="#008000" id="img-84e80a42-104">
  <rect x="51" y="45" width="3" height="3"/>
</g>
<g fill="#008000" id="img-84e80a42-105">
  <rect x="48" y="45" width="3" height="3"/>
</g>
<g fill="#008000" id="img-84e80a42-106">
  <rect x="45" y="45" width="3" height="3"/>
</g>
<g fill="#008000" id="img-84e80a42-107">
  <rect x="42" y="45" width="3" height="3"/>
</g>
<g fill="#008000" id="img-84e80a42-108">
  <rect x="39" y="45" width="3" height="3"/>
</g>
<g fill="#018000" id="img-84e80a42-109">
  <rect x="36" y="45" width="3" height="3"/>
</g>
<g fill="#FF0000" id="img-84e80a42-110">
  <rect x="33" y="45" width="3" height="3"/>
</g>
<g fill="#FF0000" id="img-84e80a42-111">
  <rect x="30" y="45" width="3" height="3"/>
</g>
<g fill="#FF0000" id="img-84e80a42-112">
  <rect x="27" y="45" width="3" height="3"/>
</g>
<g fill="#FFA000" id="img-84e80a42-113">
  <rect x="24" y="45" width="3" height="3"/>
</g>
<g fill="#FFA500" id="img-84e80a42-114">
  <rect x="21" y="45" width="3" height="3"/>
</g>
<g fill="#FFA500" id="img-84e80a42-115">
  <rect x="18" y="45" width="3" height="3"/>
</g>
<g fill="#FFA500" id="img-84e80a42-116">
  <rect x="15" y="45" width="3" height="3"/>
</g>
<g fill="#FFA600" id="img-84e80a42-117">
  <rect x="12" y="45" width="3" height="3"/>
</g>
<g fill="#FFAC00" id="img-84e80a42-118">
  <rect x="9" y="45" width="3" height="3"/>
</g>
<g fill="#FFAE00" id="img-84e80a42-119">
  <rect x="6" y="45" width="3" height="3"/>
</g>
<g fill="#FFF300" id="img-84e80a42-120">
  <rect x="3" y="45" width="3" height="3"/>
</g>
<g fill="#007F01" id="img-84e80a42-121">
  <rect x="60" y="42" width="3" height="3"/>
</g>
<g fill="#008000" id="img-84e80a42-122">
  <rect x="57" y="42" width="3" height="3"/>
</g>
<g fill="#008000" id="img-84e80a42-123">
  <rect x="54" y="42" width="3" height="3"/>
</g>
<g fill="#008000" id="img-84e80a42-124">
  <rect x="51" y="42" width="3" height="3"/>
</g>
<g fill="#008000" id="img-84e80a42-125">
  <rect x="48" y="42" width="3" height="3"/>
</g>
<g fill="#008000" id="img-84e80a42-126">
  <rect x="45" y="42" width="3" height="3"/>
</g>
<g fill="#008000" id="img-84e80a42-127">
  <rect x="42" y="42" width="3" height="3"/>
</g>
<g fill="#008000" id="img-84e80a42-128">
  <rect x="39" y="42" width="3" height="3"/>
</g>
<g fill="#018000" id="img-84e80a42-129">
  <rect x="36" y="42" width="3" height="3"/>
</g>
<g fill="#FE0000" id="img-84e80a42-130">
  <rect x="33" y="42" width="3" height="3"/>
</g>
<g fill="#FF0100" id="img-84e80a42-131">
  <rect x="30" y="42" width="3" height="3"/>
</g>
<g fill="#FF0200" id="img-84e80a42-132">
  <rect x="27" y="42" width="3" height="3"/>
</g>
<g fill="#FFA300" id="img-84e80a42-133">
  <rect x="24" y="42" width="3" height="3"/>
</g>
<g fill="#FFA500" id="img-84e80a42-134">
  <rect x="21" y="42" width="3" height="3"/>
</g>
<g fill="#FFA500" id="img-84e80a42-135">
  <rect x="18" y="42" width="3" height="3"/>
</g>
<g fill="#FFA500" id="img-84e80a42-136">
  <rect x="15" y="42" width="3" height="3"/>
</g>
<g fill="#FFDA00" id="img-84e80a42-137">
  <rect x="12" y="42" width="3" height="3"/>
</g>
<g fill="#FFDA00" id="img-84e80a42-138">
  <rect x="9" y="42" width="3" height="3"/>
</g>
<g fill="#FFE600" id="img-84e80a42-139">
  <rect x="6" y="42" width="3" height="3"/>
</g>
<g fill="#FFFF00" id="img-84e80a42-140">
  <rect x="3" y="42" width="3" height="3"/>
</g>
<g fill="#00008B" id="img-84e80a42-141">
  <rect x="60" y="39" width="3" height="3"/>
</g>
<g fill="#00008B" id="img-84e80a42-142">
  <rect x="57" y="39" width="3" height="3"/>
</g>
<g fill="#00008B" id="img-84e80a42-143">
  <rect x="54" y="39" width="3" height="3"/>
</g>
<g fill="#00008B" id="img-84e80a42-144">
  <rect x="51" y="39" width="3" height="3"/>
</g>
<g fill="#00008B" id="img-84e80a42-145">
  <rect x="48" y="39" width="3" height="3"/>
</g>
<g fill="#00008B" id="img-84e80a42-146">
  <rect x="45" y="39" width="3" height="3"/>
</g>
<g fill="#000684" id="img-84e80a42-147">
  <rect x="42" y="39" width="3" height="3"/>
</g>
<g fill="#003F46" id="img-84e80a42-148">
  <rect x="39" y="39" width="3" height="3"/>
</g>
<g fill="#00750C" id="img-84e80a42-149">
  <rect x="36" y="39" width="3" height="3"/>
</g>
<g fill="#F80202" id="img-84e80a42-150">
  <rect x="33" y="39" width="3" height="3"/>
</g>
<g fill="#FF0600" id="img-84e80a42-151">
  <rect x="30" y="39" width="3" height="3"/>
</g>
<g fill="#FF1800" id="img-84e80a42-152">
  <rect x="27" y="39" width="3" height="3"/>
</g>
<g fill="#FFA500" id="img-84e80a42-153">
  <rect x="24" y="39" width="3" height="3"/>
</g>
<g fill="#FFA500" id="img-84e80a42-154">
  <rect x="21" y="39" width="3" height="3"/>
</g>
<g fill="#FFA700" id="img-84e80a42-155">
  <rect x="18" y="39" width="3" height="3"/>
</g>
<g fill="#FFB300" id="img-84e80a42-156">
  <rect x="15" y="39" width="3" height="3"/>
</g>
<g fill="#FFDA00" id="img-84e80a42-157">
  <rect x="12" y="39" width="3" height="3"/>
</g>
<g fill="#FFFF00" id="img-84e80a42-158">
  <rect x="9" y="39" width="3" height="3"/>
</g>
<g fill="#FFFF00" id="img-84e80a42-159">
  <rect x="6" y="39" width="3" height="3"/>
</g>
<g fill="#FFFF00" id="img-84e80a42-160">
  <rect x="3" y="39" width="3" height="3"/>
</g>
<g fill="#00008B" id="img-84e80a42-161">
  <rect x="60" y="36" width="3" height="3"/>
</g>
<g fill="#00008B" id="img-84e80a42-162">
  <rect x="57" y="36" width="3" height="3"/>
</g>
<g fill="#00008B" id="img-84e80a42-163">
  <rect x="54" y="36" width="3" height="3"/>
</g>
<g fill="#00008B" id="img-84e80a42-164">
  <rect x="51" y="36" width="3" height="3"/>
</g>
<g fill="#00008B" id="img-84e80a42-165">
  <rect x="48" y="36" width="3" height="3"/>
</g>
<g fill="#00008B" id="img-84e80a42-166">
  <rect x="45" y="36" width="3" height="3"/>
</g>
<g fill="#00018A" id="img-84e80a42-167">
  <rect x="42" y="36" width="3" height="3"/>
</g>
<g fill="#000B7F" id="img-84e80a42-168">
  <rect x="39" y="36" width="3" height="3"/>
</g>
<g fill="#004046" id="img-84e80a42-169">
  <rect x="36" y="36" width="3" height="3"/>
</g>
<g fill="#D50B0C" id="img-84e80a42-170">
  <rect x="33" y="36" width="3" height="3"/>
</g>
<g fill="#FFBEC9" id="img-84e80a42-171">
  <rect x="30" y="36" width="3" height="3"/>
</g>
<g fill="#FFC0CA" id="img-84e80a42-172">
  <rect x="27" y="36" width="3" height="3"/>
</g>
<g fill="#FFA710" id="img-84e80a42-173">
  <rect x="24" y="36" width="3" height="3"/>
</g>
<g fill="#FFA80E" id="img-84e80a42-174">
  <rect x="21" y="36" width="3" height="3"/>
</g>
<g fill="#FFB202" id="img-84e80a42-175">
  <rect x="18" y="36" width="3" height="3"/>
</g>
<g fill="#FFF300" id="img-84e80a42-176">
  <rect x="15" y="36" width="3" height="3"/>
</g>
<g fill="#FFFF00" id="img-84e80a42-177">
  <rect x="12" y="36" width="3" height="3"/>
</g>
<g fill="#FFFF00" id="img-84e80a42-178">
  <rect x="9" y="36" width="3" height="3"/>
</g>
<g fill="#FFFF00" id="img-84e80a42-179">
  <rect x="6" y="36" width="3" height="3"/>
</g>
<g fill="#FFFF00" id="img-84e80a42-180">
  <rect x="3" y="36" width="3" height="3"/>
</g>
<g fill="#00008B" id="img-84e80a42-181">
  <rect x="60" y="33" width="3" height="3"/>
</g>
<g fill="#00008B" id="img-84e80a42-182">
  <rect x="57" y="33" width="3" height="3"/>
</g>
<g fill="#00008B" id="img-84e80a42-183">
  <rect x="54" y="33" width="3" height="3"/>
</g>
<g fill="#00008B" id="img-84e80a42-184">
  <rect x="51" y="33" width="3" height="3"/>
</g>
<g fill="#00008B" id="img-84e80a42-185">
  <rect x="48" y="33" width="3" height="3"/>
</g>
<g fill="#00008B" id="img-84e80a42-186">
  <rect x="45" y="33" width="3" height="3"/>
</g>
<g fill="#00008B" id="img-84e80a42-187">
  <rect x="42" y="33" width="3" height="3"/>
</g>
<g fill="#000388" id="img-84e80a42-188">
  <rect x="39" y="33" width="3" height="3"/>
</g>
<g fill="#01117C" id="img-84e80a42-189">
  <rect x="36" y="33" width="3" height="3"/>
</g>
<g fill="#572D31" id="img-84e80a42-190">
  <rect x="33" y="33" width="3" height="3"/>
</g>
<g fill="#FFC0CA" id="img-84e80a42-191">
  <rect x="30" y="33" width="3" height="3"/>
</g>
<g fill="#FFC0CB" id="img-84e80a42-192">
  <rect x="27" y="33" width="3" height="3"/>
</g>
<g fill="#FFC0CB" id="img-84e80a42-193">
  <rect x="24" y="33" width="3" height="3"/>
</g>
<g fill="#FFC0CB" id="img-84e80a42-194">
  <rect x="21" y="33" width="3" height="3"/>
</g>
<g fill="#FFC0CA" id="img-84e80a42-195">
  <rect x="18" y="33" width="3" height="3"/>
</g>
<g fill="#FFDF68" id="img-84e80a42-196">
  <rect x="15" y="33" width="3" height="3"/>
</g>
<g fill="#FFFF00" id="img-84e80a42-197">
  <rect x="12" y="33" width="3" height="3"/>
</g>
<g fill="#FFFF00" id="img-84e80a42-198">
  <rect x="9" y="33" width="3" height="3"/>
</g>
<g fill="#FFFF00" id="img-84e80a42-199">
  <rect x="6" y="33" width="3" height="3"/>
</g>
<g fill="#FFFF00" id="img-84e80a42-200">
  <rect x="3" y="33" width="3" height="3"/>
</g>
<g fill="#00008B" id="img-84e80a42-201">
  <rect x="60" y="30" width="3" height="3"/>
</g>
<g fill="#00008B" id="img-84e80a42-202">
  <rect x="57" y="30" width="3" height="3"/>
</g>
<g fill="#00008B" id="img-84e80a42-203">
  <rect x="54" y="30" width="3" height="3"/>
</g>
<g fill="#00008B" id="img-84e80a42-204">
  <rect x="51" y="30" width="3" height="3"/>
</g>
<g fill="#00008B" id="img-84e80a42-205">
  <rect x="48" y="30" width="3" height="3"/>
</g>
<g fill="#00008B" id="img-84e80a42-206">
  <rect x="45" y="30" width="3" height="3"/>
</g>
<g fill="#00008B" id="img-84e80a42-207">
  <rect x="42" y="30" width="3" height="3"/>
</g>
<g fill="#80C3E6" id="img-84e80a42-208">
  <rect x="39" y="30" width="3" height="3"/>
</g>
<g fill="#86CCEA" id="img-84e80a42-209">
  <rect x="36" y="30" width="3" height="3"/>
</g>
<g fill="#87CDEB" id="img-84e80a42-210">
  <rect x="33" y="30" width="3" height="3"/>
</g>
<g fill="#C2C7DB" id="img-84e80a42-211">
  <rect x="30" y="30" width="3" height="3"/>
</g>
<g fill="#FFC0CB" id="img-84e80a42-212">
  <rect x="27" y="30" width="3" height="3"/>
</g>
<g fill="#FFC0CB" id="img-84e80a42-213">
  <rect x="24" y="30" width="3" height="3"/>
</g>
<g fill="#FFC0CB" id="img-84e80a42-214">
  <rect x="21" y="30" width="3" height="3"/>
</g>
<g fill="#FFC0CB" id="img-84e80a42-215">
  <rect x="18" y="30" width="3" height="3"/>
</g>
<g fill="#FFC0CB" id="img-84e80a42-216">
  <rect x="15" y="30" width="3" height="3"/>
</g>
<g fill="#FFC0CB" id="img-84e80a42-217">
  <rect x="12" y="30" width="3" height="3"/>
</g>
<g fill="#FFBCCC" id="img-84e80a42-218">
  <rect x="9" y="30" width="3" height="3"/>
</g>
<g fill="#FFA8CE" id="img-84e80a42-219">
  <rect x="6" y="30" width="3" height="3"/>
</g>
<g fill="#FF62D6" id="img-84e80a42-220">
  <rect x="3" y="30" width="3" height="3"/>
</g>
<g fill="#00008B" id="img-84e80a42-221">
  <rect x="60" y="27" width="3" height="3"/>
</g>
<g fill="#00008B" id="img-84e80a42-222">
  <rect x="57" y="27" width="3" height="3"/>
</g>
<g fill="#00008B" id="img-84e80a42-223">
  <rect x="54" y="27" width="3" height="3"/>
</g>
<g fill="#00008B" id="img-84e80a42-224">
  <rect x="51" y="27" width="3" height="3"/>
</g>
<g fill="#00008B" id="img-84e80a42-225">
  <rect x="48" y="27" width="3" height="3"/>
</g>
<g fill="#00008B" id="img-84e80a42-226">
  <rect x="45" y="27" width="3" height="3"/>
</g>
<g fill="#00008C" id="img-84e80a42-227">
  <rect x="42" y="27" width="3" height="3"/>
</g>
<g fill="#83C8E8" id="img-84e80a42-228">
  <rect x="39" y="27" width="3" height="3"/>
</g>
<g fill="#86CDEB" id="img-84e80a42-229">
  <rect x="36" y="27" width="3" height="3"/>
</g>
<g fill="#87CEEB" id="img-84e80a42-230">
  <rect x="33" y="27" width="3" height="3"/>
</g>
<g fill="#A8CAE2" id="img-84e80a42-231">
  <rect x="30" y="27" width="3" height="3"/>
</g>
<g fill="#FFC0CB" id="img-84e80a42-232">
  <rect x="27" y="27" width="3" height="3"/>
</g>
<g fill="#FFC0CB" id="img-84e80a42-233">
  <rect x="24" y="27" width="3" height="3"/>
</g>
<g fill="#FFC0CB" id="img-84e80a42-234">
  <rect x="21" y="27" width="3" height="3"/>
</g>
<g fill="#FFC0CB" id="img-84e80a42-235">
  <rect x="18" y="27" width="3" height="3"/>
</g>
<g fill="#FFC0CB" id="img-84e80a42-236">
  <rect x="15" y="27" width="3" height="3"/>
</g>
<g fill="#FFC0CB" id="img-84e80a42-237">
  <rect x="12" y="27" width="3" height="3"/>
</g>
<g fill="#FFAFD0" id="img-84e80a42-238">
  <rect x="9" y="27" width="3" height="3"/>
</g>
<g fill="#FF5FE5" id="img-84e80a42-239">
  <rect x="6" y="27" width="3" height="3"/>
</g>
<g fill="#FF18F8" id="img-84e80a42-240">
  <rect x="3" y="27" width="3" height="3"/>
</g>
<g fill="#00008B" id="img-84e80a42-241">
  <rect x="60" y="24" width="3" height="3"/>
</g>
<g fill="#00008B" id="img-84e80a42-242">
  <rect x="57" y="24" width="3" height="3"/>
</g>
<g fill="#00008B" id="img-84e80a42-243">
  <rect x="54" y="24" width="3" height="3"/>
</g>
<g fill="#00008B" id="img-84e80a42-244">
  <rect x="51" y="24" width="3" height="3"/>
</g>
<g fill="#00008B" id="img-84e80a42-245">
  <rect x="48" y="24" width="3" height="3"/>
</g>
<g fill="#00008B" id="img-84e80a42-246">
  <rect x="45" y="24" width="3" height="3"/>
</g>
<g fill="#000091" id="img-84e80a42-247">
  <rect x="42" y="24" width="3" height="3"/>
</g>
<g fill="#87CDEB" id="img-84e80a42-248">
  <rect x="39" y="24" width="3" height="3"/>
</g>
<g fill="#87CEEB" id="img-84e80a42-249">
  <rect x="36" y="24" width="3" height="3"/>
</g>
<g fill="#87CEEB" id="img-84e80a42-250">
  <rect x="33" y="24" width="3" height="3"/>
</g>
<g fill="#8ACEEA" id="img-84e80a42-251">
  <rect x="30" y="24" width="3" height="3"/>
</g>
<g fill="#FEC0CB" id="img-84e80a42-252">
  <rect x="27" y="24" width="3" height="3"/>
</g>
<g fill="#FFC0CB" id="img-84e80a42-253">
  <rect x="24" y="24" width="3" height="3"/>
</g>
<g fill="#FFC0CB" id="img-84e80a42-254">
  <rect x="21" y="24" width="3" height="3"/>
</g>
<g fill="#FFC0CB" id="img-84e80a42-255">
  <rect x="18" y="24" width="3" height="3"/>
</g>
<g fill="#FFC0CB" id="img-84e80a42-256">
  <rect x="15" y="24" width="3" height="3"/>
</g>
<g fill="#FFC0CB" id="img-84e80a42-257">
  <rect x="12" y="24" width="3" height="3"/>
</g>
<g fill="#FF5FE5" id="img-84e80a42-258">
  <rect x="9" y="24" width="3" height="3"/>
</g>
<g fill="#FF11FA" id="img-84e80a42-259">
  <rect x="6" y="24" width="3" height="3"/>
</g>
<g fill="#FF04FE" id="img-84e80a42-260">
  <rect x="3" y="24" width="3" height="3"/>
</g>
<g fill="#0000C4" id="img-84e80a42-261">
  <rect x="60" y="21" width="3" height="3"/>
</g>
<g fill="#0000C4" id="img-84e80a42-262">
  <rect x="57" y="21" width="3" height="3"/>
</g>
<g fill="#0000C4" id="img-84e80a42-263">
  <rect x="54" y="21" width="3" height="3"/>
</g>
<g fill="#0000C4" id="img-84e80a42-264">
  <rect x="51" y="21" width="3" height="3"/>
</g>
<g fill="#0000C4" id="img-84e80a42-265">
  <rect x="48" y="21" width="3" height="3"/>
</g>
<g fill="#0000C4" id="img-84e80a42-266">
  <rect x="45" y="21" width="3" height="3"/>
</g>
<g fill="#0000C4" id="img-84e80a42-267">
  <rect x="42" y="21" width="3" height="3"/>
</g>
<g fill="#87CEEB" id="img-84e80a42-268">
  <rect x="39" y="21" width="3" height="3"/>
</g>
<g fill="#87CEEB" id="img-84e80a42-269">
  <rect x="36" y="21" width="3" height="3"/>
</g>
<g fill="#87CEEB" id="img-84e80a42-270">
  <rect x="33" y="21" width="3" height="3"/>
</g>
<g fill="#87CEEB" id="img-84e80a42-271">
  <rect x="30" y="21" width="3" height="3"/>
</g>
<g fill="#C2C7DB" id="img-84e80a42-272">
  <rect x="27" y="21" width="3" height="3"/>
</g>
<g fill="#FFC0CB" id="img-84e80a42-273">
  <rect x="24" y="21" width="3" height="3"/>
</g>
<g fill="#FFC0CB" id="img-84e80a42-274">
  <rect x="21" y="21" width="3" height="3"/>
</g>
<g fill="#FFC0CB" id="img-84e80a42-275">
  <rect x="18" y="21" width="3" height="3"/>
</g>
<g fill="#FFC0CB" id="img-84e80a42-276">
  <rect x="15" y="21" width="3" height="3"/>
</g>
<g fill="#FFBCCC" id="img-84e80a42-277">
  <rect x="12" y="21" width="3" height="3"/>
</g>
<g fill="#FF0AFC" id="img-84e80a42-278">
  <rect x="9" y="21" width="3" height="3"/>
</g>
<g fill="#FF02FF" id="img-84e80a42-279">
  <rect x="6" y="21" width="3" height="3"/>
</g>
<g fill="#FF00FF" id="img-84e80a42-280">
  <rect x="3" y="21" width="3" height="3"/>
</g>
<g fill="#0000F9" id="img-84e80a42-281">
  <rect x="60" y="18" width="3" height="3"/>
</g>
<g fill="#0000FF" id="img-84e80a42-282">
  <rect x="57" y="18" width="3" height="3"/>
</g>
<g fill="#0000FF" id="img-84e80a42-283">
  <rect x="54" y="18" width="3" height="3"/>
</g>
<g fill="#0000FF" id="img-84e80a42-284">
  <rect x="51" y="18" width="3" height="3"/>
</g>
<g fill="#0000FF" id="img-84e80a42-285">
  <rect x="48" y="18" width="3" height="3"/>
</g>
<g fill="#0000FF" id="img-84e80a42-286">
  <rect x="45" y="18" width="3" height="3"/>
</g>
<g fill="#0000FF" id="img-84e80a42-287">
  <rect x="42" y="18" width="3" height="3"/>
</g>
<g fill="#87CEEB" id="img-84e80a42-288">
  <rect x="39" y="18" width="3" height="3"/>
</g>
<g fill="#87CEEB" id="img-84e80a42-289">
  <rect x="36" y="18" width="3" height="3"/>
</g>
<g fill="#87CEEB" id="img-84e80a42-290">
  <rect x="33" y="18" width="3" height="3"/>
</g>
<g fill="#87CEEB" id="img-84e80a42-291">
  <rect x="30" y="18" width="3" height="3"/>
</g>
<g fill="#88CEEB" id="img-84e80a42-292">
  <rect x="27" y="18" width="3" height="3"/>
</g>
<g fill="#C0C7DC" id="img-84e80a42-293">
  <rect x="24" y="18" width="3" height="3"/>
</g>
<g fill="#F6B3D1" id="img-84e80a42-294">
  <rect x="21" y="18" width="3" height="3"/>
</g>
<g fill="#FF5BE6" id="img-84e80a42-295">
  <rect x="18" y="18" width="3" height="3"/>
</g>
<g fill="#FF5BE6" id="img-84e80a42-296">
  <rect x="15" y="18" width="3" height="3"/>
</g>
<g fill="#FF5BE6" id="img-84e80a42-297">
  <rect x="12" y="18" width="3" height="3"/>
</g>
<g fill="#FF00FF" id="img-84e80a42-298">
  <rect x="9" y="18" width="3" height="3"/>
</g>
<g fill="#FF00FF" id="img-84e80a42-299">
  <rect x="6" y="18" width="3" height="3"/>
</g>
<g fill="#FF00FF" id="img-84e80a42-300">
  <rect x="3" y="18" width="3" height="3"/>
</g>
<g fill="#0000FE" id="img-84e80a42-301">
  <rect x="60" y="15" width="3" height="3"/>
</g>
<g fill="#0000FF" id="img-84e80a42-302">
  <rect x="57" y="15" width="3" height="3"/>
</g>
<g fill="#0000FF" id="img-84e80a42-303">
  <rect x="54" y="15" width="3" height="3"/>
</g>
<g fill="#0000FF" id="img-84e80a42-304">
  <rect x="51" y="15" width="3" height="3"/>
</g>
<g fill="#0000FF" id="img-84e80a42-305">
  <rect x="48" y="15" width="3" height="3"/>
</g>
<g fill="#0000FF" id="img-84e80a42-306">
  <rect x="45" y="15" width="3" height="3"/>
</g>
<g fill="#0000FF" id="img-84e80a42-307">
  <rect x="42" y="15" width="3" height="3"/>
</g>
<g fill="#87CEEB" id="img-84e80a42-308">
  <rect x="39" y="15" width="3" height="3"/>
</g>
<g fill="#87CEEB" id="img-84e80a42-309">
  <rect x="36" y="15" width="3" height="3"/>
</g>
<g fill="#87CEEB" id="img-84e80a42-310">
  <rect x="33" y="15" width="3" height="3"/>
</g>
<g fill="#87CEEB" id="img-84e80a42-311">
  <rect x="30" y="15" width="3" height="3"/>
</g>
<g fill="#87CEEB" id="img-84e80a42-312">
  <rect x="27" y="15" width="3" height="3"/>
</g>
<g fill="#87CEEB" id="img-84e80a42-313">
  <rect x="24" y="15" width="3" height="3"/>
</g>
<g fill="#C368F5" id="img-84e80a42-314">
  <rect x="21" y="15" width="3" height="3"/>
</g>
<g fill="#FF01FF" id="img-84e80a42-315">
  <rect x="18" y="15" width="3" height="3"/>
</g>
<g fill="#FF00FF" id="img-84e80a42-316">
  <rect x="15" y="15" width="3" height="3"/>
</g>
<g fill="#FF00FF" id="img-84e80a42-317">
  <rect x="12" y="15" width="3" height="3"/>
</g>
<g fill="#FF00FF" id="img-84e80a42-318">
  <rect x="9" y="15" width="3" height="3"/>
</g>
<g fill="#FF00FF" id="img-84e80a42-319">
  <rect x="6" y="15" width="3" height="3"/>
</g>
<g fill="#FF00FF" id="img-84e80a42-320">
  <rect x="3" y="15" width="3" height="3"/>
</g>
<g fill="#0000FF" id="img-84e80a42-321">
  <rect x="60" y="12" width="3" height="3"/>
</g>
<g fill="#0000FF" id="img-84e80a42-322">
  <rect x="57" y="12" width="3" height="3"/>
</g>
<g fill="#0000FF" id="img-84e80a42-323">
  <rect x="54" y="12" width="3" height="3"/>
</g>
<g fill="#0000FF" id="img-84e80a42-324">
  <rect x="51" y="12" width="3" height="3"/>
</g>
<g fill="#0000FF" id="img-84e80a42-325">
  <rect x="48" y="12" width="3" height="3"/>
</g>
<g fill="#0000FF" id="img-84e80a42-326">
  <rect x="45" y="12" width="3" height="3"/>
</g>
<g fill="#0000FF" id="img-84e80a42-327">
  <rect x="42" y="12" width="3" height="3"/>
</g>
<g fill="#87CEEB" id="img-84e80a42-328">
  <rect x="39" y="12" width="3" height="3"/>
</g>
<g fill="#87CEEB" id="img-84e80a42-329">
  <rect x="36" y="12" width="3" height="3"/>
</g>
<g fill="#87CEEB" id="img-84e80a42-330">
  <rect x="33" y="12" width="3" height="3"/>
</g>
<g fill="#87CEEB" id="img-84e80a42-331">
  <rect x="30" y="12" width="3" height="3"/>
</g>
<g fill="#87CEEB" id="img-84e80a42-332">
  <rect x="27" y="12" width="3" height="3"/>
</g>
<g fill="#87CEEB" id="img-84e80a42-333">
  <rect x="24" y="12" width="3" height="3"/>
</g>
<g fill="#C268F5" id="img-84e80a42-334">
  <rect x="21" y="12" width="3" height="3"/>
</g>
<g fill="#FF00FF" id="img-84e80a42-335">
  <rect x="18" y="12" width="3" height="3"/>
</g>
<g fill="#FF00FF" id="img-84e80a42-336">
  <rect x="15" y="12" width="3" height="3"/>
</g>
<g fill="#FF00FF" id="img-84e80a42-337">
  <rect x="12" y="12" width="3" height="3"/>
</g>
<g fill="#FF00FF" id="img-84e80a42-338">
  <rect x="9" y="12" width="3" height="3"/>
</g>
<g fill="#FF00FF" id="img-84e80a42-339">
  <rect x="6" y="12" width="3" height="3"/>
</g>
<g fill="#FF00FF" id="img-84e80a42-340">
  <rect x="3" y="12" width="3" height="3"/>
</g>
<g fill="#0000FF" id="img-84e80a42-341">
  <rect x="60" y="9" width="3" height="3"/>
</g>
<g fill="#0000FF" id="img-84e80a42-342">
  <rect x="57" y="9" width="3" height="3"/>
</g>
<g fill="#0000FF" id="img-84e80a42-343">
  <rect x="54" y="9" width="3" height="3"/>
</g>
<g fill="#0000FF" id="img-84e80a42-344">
  <rect x="51" y="9" width="3" height="3"/>
</g>
<g fill="#0000FF" id="img-84e80a42-345">
  <rect x="48" y="9" width="3" height="3"/>
</g>
<g fill="#0000FF" id="img-84e80a42-346">
  <rect x="45" y="9" width="3" height="3"/>
</g>
<g fill="#0000FF" id="img-84e80a42-347">
  <rect x="42" y="9" width="3" height="3"/>
</g>
<g fill="#87CEEB" id="img-84e80a42-348">
  <rect x="39" y="9" width="3" height="3"/>
</g>
<g fill="#87CEEB" id="img-84e80a42-349">
  <rect x="36" y="9" width="3" height="3"/>
</g>
<g fill="#87CEEB" id="img-84e80a42-350">
  <rect x="33" y="9" width="3" height="3"/>
</g>
<g fill="#87CEEB" id="img-84e80a42-351">
  <rect x="30" y="9" width="3" height="3"/>
</g>
<g fill="#87CEEB" id="img-84e80a42-352">
  <rect x="27" y="9" width="3" height="3"/>
</g>
<g fill="#8CC6EC" id="img-84e80a42-353">
  <rect x="24" y="9" width="3" height="3"/>
</g>
<g fill="#F90BFE" id="img-84e80a42-354">
  <rect x="21" y="9" width="3" height="3"/>
</g>
<g fill="#FF00FF" id="img-84e80a42-355">
  <rect x="18" y="9" width="3" height="3"/>
</g>
<g fill="#FF00FF" id="img-84e80a42-356">
  <rect x="15" y="9" width="3" height="3"/>
</g>
<g fill="#FF00FF" id="img-84e80a42-357">
  <rect x="12" y="9" width="3" height="3"/>
</g>
<g fill="#FF00FF" id="img-84e80a42-358">
  <rect x="9" y="9" width="3" height="3"/>
</g>
<g fill="#FF00FF" id="img-84e80a42-359">
  <rect x="6" y="9" width="3" height="3"/>
</g>
<g fill="#FF00FF" id="img-84e80a42-360">
  <rect x="3" y="9" width="3" height="3"/>
</g>
<g fill="#0000FF" id="img-84e80a42-361">
  <rect x="60" y="6" width="3" height="3"/>
</g>
<g fill="#0000FF" id="img-84e80a42-362">
  <rect x="57" y="6" width="3" height="3"/>
</g>
<g fill="#0000FF" id="img-84e80a42-363">
  <rect x="54" y="6" width="3" height="3"/>
</g>
<g fill="#0000FF" id="img-84e80a42-364">
  <rect x="51" y="6" width="3" height="3"/>
</g>
<g fill="#0000FF" id="img-84e80a42-365">
  <rect x="48" y="6" width="3" height="3"/>
</g>
<g fill="#0000FF" id="img-84e80a42-366">
  <rect x="45" y="6" width="3" height="3"/>
</g>
<g fill="#0000FF" id="img-84e80a42-367">
  <rect x="42" y="6" width="3" height="3"/>
</g>
<g fill="#0C12FD" id="img-84e80a42-368">
  <rect x="39" y="6" width="3" height="3"/>
</g>
<g fill="#4468F5" id="img-84e80a42-369">
  <rect x="36" y="6" width="3" height="3"/>
</g>
<g fill="#79B4ED" id="img-84e80a42-370">
  <rect x="33" y="6" width="3" height="3"/>
</g>
<g fill="#95B4ED" id="img-84e80a42-371">
  <rect x="30" y="6" width="3" height="3"/>
</g>
<g fill="#C368F5" id="img-84e80a42-372">
  <rect x="27" y="6" width="3" height="3"/>
</g>
<g fill="#F512FD" id="img-84e80a42-373">
  <rect x="24" y="6" width="3" height="3"/>
</g>
<g fill="#FE02FF" id="img-84e80a42-374">
  <rect x="21" y="6" width="3" height="3"/>
</g>
<g fill="#FF00FF" id="img-84e80a42-375">
  <rect x="18" y="6" width="3" height="3"/>
</g>
<g fill="#FF00FF" id="img-84e80a42-376">
  <rect x="15" y="6" width="3" height="3"/>
</g>
<g fill="#FF00FF" id="img-84e80a42-377">
  <rect x="12" y="6" width="3" height="3"/>
</g>
<g fill="#FF00FF" id="img-84e80a42-378">
  <rect x="9" y="6" width="3" height="3"/>
</g>
<g fill="#FF00FF" id="img-84e80a42-379">
  <rect x="6" y="6" width="3" height="3"/>
</g>
<g fill="#FF00FF" id="img-84e80a42-380">
  <rect x="3" y="6" width="3" height="3"/>
</g>
<g fill="#0000FF" id="img-84e80a42-381">
  <rect x="60" y="3" width="3" height="3"/>
</g>
<g fill="#0000FF" id="img-84e80a42-382">
  <rect x="57" y="3" width="3" height="3"/>
</g>
<g fill="#0000FF" id="img-84e80a42-383">
  <rect x="54" y="3" width="3" height="3"/>
</g>
<g fill="#0000FF" id="img-84e80a42-384">
  <rect x="51" y="3" width="3" height="3"/>
</g>
<g fill="#0000FF" id="img-84e80a42-385">
  <rect x="48" y="3" width="3" height="3"/>
</g>
<g fill="#0000FF" id="img-84e80a42-386">
  <rect x="45" y="3" width="3" height="3"/>
</g>
<g fill="#0000FF" id="img-84e80a42-387">
  <rect x="42" y="3" width="3" height="3"/>
</g>
<g fill="#0305FF" id="img-84e80a42-388">
  <rect x="39" y="3" width="3" height="3"/>
</g>
<g fill="#111AFC" id="img-84e80a42-389">
  <rect x="36" y="3" width="3" height="3"/>
</g>
<g fill="#4B64F5" id="img-84e80a42-390">
  <rect x="33" y="3" width="3" height="3"/>
</g>
<g fill="#BC64F5" id="img-84e80a42-391">
  <rect x="30" y="3" width="3" height="3"/>
</g>
<g fill="#F01AFC" id="img-84e80a42-392">
  <rect x="27" y="3" width="3" height="3"/>
</g>
<g fill="#FC05FF" id="img-84e80a42-393">
  <rect x="24" y="3" width="3" height="3"/>
</g>
<g fill="#FF00FF" id="img-84e80a42-394">
  <rect x="21" y="3" width="3" height="3"/>
</g>
<g fill="#FF00FF" id="img-84e80a42-395">
  <rect x="18" y="3" width="3" height="3"/>
</g>
<g fill="#FF00FF" id="img-84e80a42-396">
  <rect x="15" y="3" width="3" height="3"/>
</g>
<g fill="#FF00FF" id="img-84e80a42-397">
  <rect x="12" y="3" width="3" height="3"/>
</g>
<g fill="#FF00FF" id="img-84e80a42-398">
  <rect x="9" y="3" width="3" height="3"/>
</g>
<g fill="#FF00FF" id="img-84e80a42-399">
  <rect x="6" y="3" width="3" height="3"/>
</g>
<g fill="#FF00FF" id="img-84e80a42-400">
  <rect x="3" y="3" width="3" height="3"/>
</g>
</svg>
